<?xml version="1.0" encoding="UTF-8" standalone="no"?>
<!DOCTYPE svg PUBLIC "-//W3C//DTD SVG 1.1//EN"
 "http://www.w3.org/Graphics/SVG/1.1/DTD/svg11.dtd">
<!-- Generated by graphviz version 2.43.0 (0)
 -->
<!-- Title: Taxonomic_Data_Graph Pages: 1 -->
<svg width="100%" height="100%"
 viewBox="0.00 0.00 1467.27 398.21" xmlns="http://www.w3.org/2000/svg" xmlns:xlink="http://www.w3.org/1999/xlink">
<g id="graph0" class="graph" transform="scale(1 1) rotate(0) translate(4 394.21)">
<title>Taxonomic_Data_Graph</title>
<polygon fill="white" stroke="transparent" points="-4,4 -4,-394.21 1463.27,-394.21 1463.27,4 -4,4"/>
<!-- b0 -->
<g id="node1" class="node">
<title>b0</title>
<ellipse fill="#d1c4e9" stroke="#311b92" stroke-width="1.8" cx="73.58" cy="-258" rx="73.67" ry="18"/>
<text text-anchor="middle" x="73.58" y="-255.5" font-family="Arial" font-weight="bold" font-size="10.00">TaxonConceptMapping</text>
</g>
<!-- https://doi.org/10.3233/SW&#45;160220 -->
<g id="node2" class="node">
<title>https://doi.org/10.3233/SW&#45;160220</title>
<ellipse fill="#bbdefb" stroke="#0d47a1" cx="412.25" cy="-369" rx="118.17" ry="21.43"/>
<text text-anchor="middle" x="412.25" y="-372" font-family="Arial,Helvetica" font-size="10.00">BibliographicResource</text>
<text text-anchor="middle" x="412.25" y="-361" font-family="Arial,Helvetica" font-size="10.00">https://doi.org/10.3233/SW&#45;160220</text>
</g>
<!-- b0&#45;&gt;https://doi.org/10.3233/SW&#45;160220 -->
<g id="edge1" class="edge">
<title>b0&#45;&gt;https://doi.org/10.3233/SW&#45;160220</title>
<path fill="none" stroke="#546e7a" d="M112.94,-273.45C131.86,-280.88 155.09,-289.74 176.17,-297 231.36,-316.02 294.68,-335.27 341.69,-349.07"/>
<polygon fill="#546e7a" stroke="#546e7a" points="341.1,-351.45 348.51,-351.07 342.48,-346.75 341.1,-351.45"/>
<text text-anchor="middle" x="220.67" y="-326.8" font-family="Arial,Helvetica" font-size="9.00" fill="#37474f">mappingAccordingTo</text>
</g>
<!-- vcb_b0_mappingRelation_476pa -->
<g id="node3" class="node">
<title>vcb_b0_mappingRelation_476pa</title>
<path fill="#fffde7" stroke="#fbc02d" stroke-width="1.8" d="M448.25,-312C448.25,-312 376.25,-312 376.25,-312 370.25,-312 364.25,-306 364.25,-300 364.25,-300 364.25,-288 364.25,-288 364.25,-282 370.25,-276 376.25,-276 376.25,-276 448.25,-276 448.25,-276 454.25,-276 460.25,-282 460.25,-288 460.25,-288 460.25,-300 460.25,-300 460.25,-306 454.25,-312 448.25,-312"/>
<text text-anchor="middle" x="412.25" y="-291.5" font-family="Arial" font-weight="bold" font-size="10.00">isCongruentWith</text>
</g>
<!-- b0&#45;&gt;vcb_b0_mappingRelation_476pa -->
<g id="edge2" class="edge">
<title>b0&#45;&gt;vcb_b0_mappingRelation_476pa</title>
<path fill="none" stroke="#000000" stroke-width="1.8" d="M141.5,-265.16C204.8,-271.92 298.6,-281.95 357.26,-288.23"/>
<polygon fill="#000000" stroke="#000000" stroke-width="1.8" points="357.02,-290.66 364.24,-288.97 357.54,-285.79 357.02,-290.66"/>
<text text-anchor="middle" x="220.67" y="-280.8" font-family="Arial" font-weight="bold" font-size="9.00" fill="#37474f">mappingRelation</text>
</g>
<!-- b1 -->
<g id="node4" class="node">
<title>b1</title>
<ellipse fill="#c8e6c9" stroke="#1b5e20" cx="412.25" cy="-222" rx="47.19" ry="18"/>
<text text-anchor="middle" x="412.25" y="-219.5" font-family="Arial,Helvetica" font-size="10.00">TaxonConcept</text>
</g>
<!-- b0&#45;&gt;b1 -->
<g id="edge3" class="edge">
<title>b0&#45;&gt;b1</title>
<path fill="none" stroke="#546e7a" d="M141.5,-250.84C205.5,-244 300.67,-233.82 359.19,-227.57"/>
<polygon fill="#546e7a" stroke="#546e7a" points="359.79,-229.97 366.49,-226.79 359.27,-225.09 359.79,-229.97"/>
<text text-anchor="middle" x="220.67" y="-248.8" font-family="Arial,Helvetica" font-size="9.00" fill="#37474f">objectTaxonConcept</text>
</g>
<!-- b2 -->
<g id="node5" class="node">
<title>b2</title>
<ellipse fill="#c8e6c9" stroke="#1b5e20" cx="412.25" cy="-135" rx="47.19" ry="18"/>
<text text-anchor="middle" x="412.25" y="-132.5" font-family="Arial,Helvetica" font-size="10.00">TaxonConcept</text>
</g>
<!-- b0&#45;&gt;b2 -->
<g id="edge4" class="edge">
<title>b0&#45;&gt;b2</title>
<path fill="none" stroke="#546e7a" d="M112.57,-242.67C131.6,-235.09 155.03,-225.89 176.17,-218 243.61,-192.83 322.65,-165.33 369.75,-149.15"/>
<polygon fill="#546e7a" stroke="#546e7a" points="370.63,-151.44 376.46,-146.85 369.04,-146.8 370.63,-151.44"/>
<text text-anchor="middle" x="220.67" y="-220.8" font-family="Arial,Helvetica" font-size="9.00" fill="#37474f">subjectTaxonConcept</text>
</g>
<!-- lit_b1_title_bqb75 -->
<g id="node6" class="node">
<title>lit_b1_title_bqb75</title>
<path fill="#ffffff" stroke="#b0bec5" d="M961.81,-348C961.81,-348 787.81,-348 787.81,-348 781.81,-348 775.81,-342 775.81,-336 775.81,-336 775.81,-324 775.81,-324 775.81,-318 781.81,-312 787.81,-312 787.81,-312 961.81,-312 961.81,-312 967.81,-312 973.81,-318 973.81,-324 973.81,-324 973.81,-336 973.81,-336 973.81,-342 967.81,-348 961.81,-348"/>
<text text-anchor="start" x="783.81" y="-327.5" font-family="Arial,Helvetica" font-size="10.00">Andropogon capillipes sec. Weakley 2006</text>
</g>
<!-- b1&#45;&gt;lit_b1_title_bqb75 -->
<g id="edge5" class="edge">
<title>b1&#45;&gt;lit_b1_title_bqb75</title>
<path fill="none" stroke="#546e7a" d="M449.7,-233C472.84,-240.03 503.39,-249.41 530.34,-258 578.95,-273.5 589.73,-282.09 639.34,-294 681.17,-304.04 727.9,-311.89 768.57,-317.65"/>
<polygon fill="#546e7a" stroke="#546e7a" points="768.29,-320.08 775.56,-318.63 768.97,-315.23 768.29,-320.08"/>
<text text-anchor="middle" x="584.84" y="-287.8" font-family="Arial,Helvetica" font-size="9.00" fill="#37474f">title</text>
</g>
<!-- http://www.herbarium.unc.edu/FloraArchives/WeakleyFlora_2006&#45;Jan.pdf -->
<g id="node7" class="node">
<title>http://www.herbarium.unc.edu/FloraArchives/WeakleyFlora_2006&#45;Jan.pdf</title>
<ellipse fill="#bbdefb" stroke="#0d47a1" cx="874.81" cy="-255" rx="235.43" ry="21.43"/>
<text text-anchor="middle" x="874.81" y="-258" font-family="Arial,Helvetica" font-size="10.00">Report</text>
<text text-anchor="middle" x="874.81" y="-247" font-family="Arial,Helvetica" font-size="10.00">http://www.herbarium.unc.edu/FloraArchives/WeakleyFlora_2006&#45;Jan.pdf</text>
</g>
<!-- b1&#45;&gt;http://www.herbarium.unc.edu/FloraArchives/WeakleyFlora_2006&#45;Jan.pdf -->
<g id="edge6" class="edge">
<title>b1&#45;&gt;http://www.herbarium.unc.edu/FloraArchives/WeakleyFlora_2006&#45;Jan.pdf</title>
<path fill="none" stroke="#546e7a" d="M458.67,-225.25C510.94,-229 600.17,-235.39 682.55,-241.3"/>
<polygon fill="#546e7a" stroke="#546e7a" points="682.83,-243.77 689.99,-241.83 683.18,-238.88 682.83,-243.77"/>
<text text-anchor="middle" x="584.84" y="-237.8" font-family="Arial,Helvetica" font-size="9.00" fill="#37474f">accordingTo</text>
</g>
<!-- https://ipni.org/n/12781&#45;2 -->
<g id="node8" class="node">
<title>https://ipni.org/n/12781&#45;2</title>
<ellipse fill="#ffcdd2" stroke="#b71c1c" cx="874.81" cy="-177" rx="88.28" ry="21.43"/>
<text text-anchor="middle" x="874.81" y="-180" font-family="Arial,Helvetica" font-size="10.00">TaxonName</text>
<text text-anchor="middle" x="874.81" y="-169" font-family="Arial,Helvetica" font-size="10.00">https://ipni.org/n/12781&#45;2</text>
</g>
<!-- b1&#45;&gt;https://ipni.org/n/12781&#45;2 -->
<g id="edge7" class="edge">
<title>b1&#45;&gt;https://ipni.org/n/12781&#45;2</title>
<path fill="none" stroke="#546e7a" d="M458.25,-217.6C533.77,-210.22 687.33,-195.22 785.15,-185.66"/>
<polygon fill="#546e7a" stroke="#546e7a" points="785.66,-188.07 792.39,-184.95 785.19,-183.2 785.66,-188.07"/>
<text text-anchor="middle" x="584.84" y="-209.8" font-family="Arial,Helvetica" font-size="9.00" fill="#37474f">taxonName</text>
</g>
<!-- b2&#45;&gt;https://ipni.org/n/12781&#45;2 -->
<g id="edge10" class="edge">
<title>b2&#45;&gt;https://ipni.org/n/12781&#45;2</title>
<path fill="none" stroke="#546e7a" d="M458.25,-139.1C533.66,-145.98 686.89,-159.95 784.73,-168.88"/>
<polygon fill="#546e7a" stroke="#546e7a" points="784.77,-171.34 791.96,-169.54 785.22,-166.46 784.77,-171.34"/>
<text text-anchor="middle" x="584.84" y="-154.8" font-family="Arial,Helvetica" font-size="9.00" fill="#37474f">taxonName</text>
</g>
<!-- lit_b2_title_2zwt5 -->
<g id="node9" class="node">
<title>lit_b2_title_2zwt5</title>
<path fill="#ffffff" stroke="#b0bec5" d="M960.81,-120C960.81,-120 788.81,-120 788.81,-120 782.81,-120 776.81,-114 776.81,-108 776.81,-108 776.81,-96 776.81,-96 776.81,-90 782.81,-84 788.81,-84 788.81,-84 960.81,-84 960.81,-84 966.81,-84 972.81,-90 972.81,-96 972.81,-96 972.81,-108 972.81,-108 972.81,-114 966.81,-120 960.81,-120"/>
<text text-anchor="start" x="784.81" y="-99.5" font-family="Arial,Helvetica" font-size="10.00">Andropogon capillipes sec. BONAP 2014</text>
</g>
<!-- b2&#45;&gt;lit_b2_title_2zwt5 -->
<g id="edge8" class="edge">
<title>b2&#45;&gt;lit_b2_title_2zwt5</title>
<path fill="none" stroke="#546e7a" d="M450.39,-124.21C479.69,-116.28 521.74,-106.19 559.34,-102 629.09,-94.22 708.08,-94.25 769.44,-96.21"/>
<polygon fill="#546e7a" stroke="#546e7a" points="769.38,-98.66 776.46,-96.45 769.54,-93.77 769.38,-98.66"/>
<text text-anchor="middle" x="584.84" y="-104.8" font-family="Arial,Helvetica" font-size="9.00" fill="#37474f">title</text>
</g>
<!-- http://bonap.net/napa#2014 -->
<g id="node10" class="node">
<title>http://bonap.net/napa#2014</title>
<ellipse fill="#bbdefb" stroke="#0d47a1" cx="874.81" cy="-27" rx="95.42" ry="21.43"/>
<text text-anchor="middle" x="874.81" y="-30" font-family="Arial,Helvetica" font-size="10.00">Website</text>
<text text-anchor="middle" x="874.81" y="-19" font-family="Arial,Helvetica" font-size="10.00">http://bonap.net/napa#2014</text>
</g>
<!-- b2&#45;&gt;http://bonap.net/napa#2014 -->
<g id="edge9" class="edge">
<title>b2&#45;&gt;http://bonap.net/napa#2014</title>
<path fill="none" stroke="#546e7a" d="M443.76,-121.6C472.94,-109.24 518.43,-91.18 559.34,-80 633.14,-59.84 718.88,-46 782.18,-37.54"/>
<polygon fill="#546e7a" stroke="#546e7a" points="782.78,-39.93 789.4,-36.58 782.13,-35.07 782.78,-39.93"/>
<text text-anchor="middle" x="584.84" y="-82.8" font-family="Arial,Helvetica" font-size="9.00" fill="#37474f">accordingTo</text>
</g>
<!-- lit_httpwwwherbariumunceduFloraArchivesWeakleyFlora_2006Janpdf_bibliographicReference_kpapw -->
<g id="node12" class="node">
<title>lit_httpwwwherbariumunceduFloraArchivesWeakleyFlora_2006Janpdf_bibliographicReference_kpapw</title>
<path fill="#ffffff" stroke="#b0bec5" d="M1445.77,-284C1445.77,-284 1278.77,-284 1278.77,-284 1272.77,-284 1266.77,-278 1266.77,-272 1266.77,-272 1266.77,-244 1266.77,-244 1266.77,-238 1272.77,-232 1278.77,-232 1278.77,-232 1445.77,-232 1445.77,-232 1451.77,-232 1457.77,-238 1457.77,-244 1457.77,-244 1457.77,-272 1457.77,-272 1457.77,-278 1451.77,-284 1445.77,-284"/>
<text text-anchor="start" x="1274.77" y="-272" font-family="Arial,Helvetica" font-size="10.00">A.S. Weakley, Flora of the Southern and</text>
<text text-anchor="start" x="1274.77" y="-261" font-family="Arial,Helvetica" font-size="10.00">Mid&#45;Atlantic States, Working Draft of 29</text>
<text text-anchor="start" x="1274.77" y="-250" font-family="Arial,Helvetica" font-size="10.00">Mary, 2015, University of North Carolina</text>
<text text-anchor="start" x="1274.77" y="-239" font-family="Arial,Helvetica" font-size="10.00">Herbarium, Chapel Hill, 2015</text>
</g>
<!-- http://www.herbarium.unc.edu/FloraArchives/WeakleyFlora_2006&#45;Jan.pdf&#45;&gt;lit_httpwwwherbariumunceduFloraArchivesWeakleyFlora_2006Janpdf_bibliographicReference_kpapw -->
<g id="edge12" class="edge">
<title>http://www.herbarium.unc.edu/FloraArchives/WeakleyFlora_2006&#45;Jan.pdf&#45;&gt;lit_httpwwwherbariumunceduFloraArchivesWeakleyFlora_2006Janpdf_bibliographicReference_kpapw</title>
<path fill="none" stroke="#546e7a" d="M1110.01,-256.45C1162.6,-256.77 1215.74,-257.1 1259.51,-257.37"/>
<polygon fill="#546e7a" stroke="#546e7a" points="1259.71,-259.82 1266.73,-257.42 1259.74,-254.92 1259.71,-259.82"/>
<text text-anchor="middle" x="1187.77" y="-259.8" font-family="Arial,Helvetica" font-size="9.00" fill="#37474f">bibliographicReference</text>
</g>
<!-- lit_httpsipniorgn127812_scientificNameAuthor_bgxlf -->
<g id="node13" class="node">
<title>lit_httpsipniorgn127812_scientificNameAuthor_bgxlf</title>
<path fill="#ffffff" stroke="#b0bec5" d="M1377.27,-196C1377.27,-196 1347.27,-196 1347.27,-196 1341.27,-196 1335.27,-190 1335.27,-184 1335.27,-184 1335.27,-172 1335.27,-172 1335.27,-166 1341.27,-160 1347.27,-160 1347.27,-160 1377.27,-160 1377.27,-160 1383.27,-160 1389.27,-166 1389.27,-172 1389.27,-172 1389.27,-184 1389.27,-184 1389.27,-190 1383.27,-196 1377.27,-196"/>
<text text-anchor="start" x="1343.27" y="-175.5" font-family="Arial,Helvetica" font-size="10.00">Nash</text>
</g>
<!-- https://ipni.org/n/12781&#45;2&#45;&gt;lit_httpsipniorgn127812_scientificNameAuthor_bgxlf -->
<g id="edge13" class="edge">
<title>https://ipni.org/n/12781&#45;2&#45;&gt;lit_httpsipniorgn127812_scientificNameAuthor_bgxlf</title>
<path fill="none" stroke="#546e7a" d="M963.44,-177.18C1072.49,-177.41 1253.41,-177.78 1327.78,-177.93"/>
<polygon fill="#546e7a" stroke="#546e7a" points="1328.05,-180.38 1335.05,-177.95 1328.06,-175.48 1328.05,-180.38"/>
<text text-anchor="middle" x="1187.77" y="-179.8" font-family="Arial,Helvetica" font-size="9.00" fill="#37474f">scientificNameAuthor</text>
</g>
<!-- lit_httpsipniorgn127812_nameString_f0tob -->
<g id="node14" class="node">
<title>lit_httpsipniorgn127812_nameString_f0tob</title>
<path fill="#ffffff" stroke="#b0bec5" d="M1406.27,-124C1406.27,-124 1318.27,-124 1318.27,-124 1312.27,-124 1306.27,-118 1306.27,-112 1306.27,-112 1306.27,-100 1306.27,-100 1306.27,-94 1312.27,-88 1318.27,-88 1318.27,-88 1406.27,-88 1406.27,-88 1412.27,-88 1418.27,-94 1418.27,-100 1418.27,-100 1418.27,-112 1418.27,-112 1418.27,-118 1412.27,-124 1406.27,-124"/>
<text text-anchor="start" x="1314.27" y="-103.5" font-family="Arial,Helvetica" font-size="10.00">Andropogon capillipes</text>
</g>
<!-- https://ipni.org/n/12781&#45;2&#45;&gt;lit_httpsipniorgn127812_nameString_f0tob -->
<g id="edge14" class="edge">
<title>https://ipni.org/n/12781&#45;2&#45;&gt;lit_httpsipniorgn127812_nameString_f0tob</title>
<path fill="none" stroke="#546e7a" d="M950.6,-166.06C1046.15,-152.09 1209.81,-128.15 1298.95,-115.11"/>
<polygon fill="#546e7a" stroke="#546e7a" points="1299.46,-117.52 1306.03,-114.08 1298.75,-112.67 1299.46,-117.52"/>
<text text-anchor="middle" x="1187.77" y="-139.8" font-family="Arial,Helvetica" font-size="9.00" fill="#37474f">nameString</text>
</g>
<!-- lit_httpbonapnetnapa2014_bibliographicCitation_7igpo -->
<g id="node11" class="node">
<title>lit_httpbonapnetnapa2014_bibliographicCitation_7igpo</title>
<path fill="#ffffff" stroke="#b0bec5" d="M1447.27,-52C1447.27,-52 1277.27,-52 1277.27,-52 1271.27,-52 1265.27,-46 1265.27,-40 1265.27,-40 1265.27,-12 1265.27,-12 1265.27,-6 1271.27,0 1277.27,0 1277.27,0 1447.27,0 1447.27,0 1453.27,0 1459.27,-6 1459.27,-12 1459.27,-12 1459.27,-40 1459.27,-40 1459.27,-46 1453.27,-52 1447.27,-52"/>
<text text-anchor="start" x="1273.27" y="-40" font-family="Arial,Helvetica" font-size="10.00">Kartesz, J.T. 2014. The Biota of North</text>
<text text-anchor="start" x="1273.27" y="-29" font-family="Arial,Helvetica" font-size="10.00">America Program (BONAP), 2014, North</text>
<text text-anchor="start" x="1273.27" y="-18" font-family="Arial,Helvetica" font-size="10.00">American Plant Atlas. Chapel Hill, NC.</text>
<text text-anchor="start" x="1273.27" y="-7" font-family="Arial,Helvetica" font-size="10.00">http://bonap.net/napa.</text>
</g>
<!-- http://bonap.net/napa#2014&#45;&gt;lit_httpbonapnetnapa2014_bibliographicCitation_7igpo -->
<g id="edge11" class="edge">
<title>http://bonap.net/napa#2014&#45;&gt;lit_httpbonapnetnapa2014_bibliographicCitation_7igpo</title>
<path fill="none" stroke="#546e7a" d="M970.27,-26.81C1052.91,-26.64 1172.7,-26.39 1257.88,-26.21"/>
<polygon fill="#546e7a" stroke="#546e7a" points="1257.99,-28.66 1264.98,-26.2 1257.98,-23.76 1257.99,-28.66"/>
<text text-anchor="middle" x="1187.77" y="-29.8" font-family="Arial,Helvetica" font-size="9.00" fill="#37474f">bibliographicCitation</text>
</g>
</g>
</svg>
