<?xml version="1.0" encoding="UTF-8" standalone="no"?>
<!DOCTYPE svg PUBLIC "-//W3C//DTD SVG 1.1//EN"
 "http://www.w3.org/Graphics/SVG/1.1/DTD/svg11.dtd">
<!-- Generated by graphviz version 2.43.0 (0)
 -->
<!-- Title: Taxonomic_Data_Graph Pages: 1 -->
<svg width="100%" height="100%"
 viewBox="0.00 0.00 1415.27 497.21" xmlns="http://www.w3.org/2000/svg" xmlns:xlink="http://www.w3.org/1999/xlink">
<g id="graph0" class="graph" transform="scale(1 1) rotate(0) translate(4 493.21)">
<title>Taxonomic_Data_Graph</title>
<polygon fill="white" stroke="transparent" points="-4,4 -4,-493.21 1411.27,-493.21 1411.27,4 -4,4"/>
<!-- b0 -->
<g id="node1" class="node">
<title>b0</title>
<ellipse fill="#d1c4e9" stroke="#311b92" stroke-width="1.8" cx="73.58" cy="-357" rx="73.67" ry="18"/>
<text text-anchor="middle" x="73.58" y="-354.5" font-family="Arial" font-weight="bold" font-size="10.00">TaxonConceptMapping</text>
</g>
<!-- https://doi.org/10.3233/SW&#45;160220 -->
<g id="node2" class="node">
<title>https://doi.org/10.3233/SW&#45;160220</title>
<ellipse fill="#bbdefb" stroke="#0d47a1" cx="412.25" cy="-468" rx="118.17" ry="21.43"/>
<text text-anchor="middle" x="412.25" y="-471" font-family="Arial,Helvetica" font-size="10.00">BibliographicResource</text>
<text text-anchor="middle" x="412.25" y="-460" font-family="Arial,Helvetica" font-size="10.00">https://doi.org/10.3233/SW&#45;160220</text>
</g>
<!-- b0&#45;&gt;https://doi.org/10.3233/SW&#45;160220 -->
<g id="edge1" class="edge">
<title>b0&#45;&gt;https://doi.org/10.3233/SW&#45;160220</title>
<path fill="none" stroke="#546e7a" d="M112.94,-372.45C131.86,-379.88 155.09,-388.74 176.17,-396 231.36,-415.02 294.68,-434.27 341.69,-448.07"/>
<polygon fill="#546e7a" stroke="#546e7a" points="341.1,-450.45 348.51,-450.07 342.48,-445.75 341.1,-450.45"/>
<text text-anchor="middle" x="220.67" y="-425.8" font-family="Arial,Helvetica" font-size="9.00" fill="#37474f">mappingAccordingTo</text>
</g>
<!-- vcb_b0_mappingRelation_rpaw4 -->
<g id="node3" class="node">
<title>vcb_b0_mappingRelation_rpaw4</title>
<path fill="#fffde7" stroke="#fbc02d" stroke-width="1.8" d="M428.25,-411C428.25,-411 396.25,-411 396.25,-411 390.25,-411 384.25,-405 384.25,-399 384.25,-399 384.25,-387 384.25,-387 384.25,-381 390.25,-375 396.25,-375 396.25,-375 428.25,-375 428.25,-375 434.25,-375 440.25,-381 440.25,-387 440.25,-387 440.25,-399 440.25,-399 440.25,-405 434.25,-411 428.25,-411"/>
<text text-anchor="middle" x="412.25" y="-390.5" font-family="Arial" font-weight="bold" font-size="10.00">includes</text>
</g>
<!-- b0&#45;&gt;vcb_b0_mappingRelation_rpaw4 -->
<g id="edge2" class="edge">
<title>b0&#45;&gt;vcb_b0_mappingRelation_rpaw4</title>
<path fill="none" stroke="#000000" stroke-width="1.8" d="M141.5,-364.16C212.52,-371.75 321.95,-383.45 377.05,-389.34"/>
<polygon fill="#000000" stroke="#000000" stroke-width="1.8" points="376.92,-391.79 384.14,-390.1 377.44,-386.92 376.92,-391.79"/>
<text text-anchor="middle" x="220.67" y="-379.8" font-family="Arial" font-weight="bold" font-size="9.00" fill="#37474f">mappingRelation</text>
</g>
<!-- b1 -->
<g id="node4" class="node">
<title>b1</title>
<ellipse fill="#c8e6c9" stroke="#1b5e20" cx="412.25" cy="-321" rx="47.19" ry="18"/>
<text text-anchor="middle" x="412.25" y="-318.5" font-family="Arial,Helvetica" font-size="10.00">TaxonConcept</text>
</g>
<!-- b0&#45;&gt;b1 -->
<g id="edge3" class="edge">
<title>b0&#45;&gt;b1</title>
<path fill="none" stroke="#546e7a" d="M141.5,-349.84C205.5,-343 300.67,-332.82 359.19,-326.57"/>
<polygon fill="#546e7a" stroke="#546e7a" points="359.79,-328.97 366.49,-325.79 359.27,-324.09 359.79,-328.97"/>
<text text-anchor="middle" x="220.67" y="-347.8" font-family="Arial,Helvetica" font-size="9.00" fill="#37474f">objectTaxonConcept</text>
</g>
<!-- b2 -->
<g id="node5" class="node">
<title>b2</title>
<ellipse fill="#c8e6c9" stroke="#1b5e20" cx="412.25" cy="-170" rx="47.19" ry="18"/>
<text text-anchor="middle" x="412.25" y="-167.5" font-family="Arial,Helvetica" font-size="10.00">TaxonConcept</text>
</g>
<!-- b0&#45;&gt;b2 -->
<g id="edge4" class="edge">
<title>b0&#45;&gt;b2</title>
<path fill="none" stroke="#546e7a" d="M104.16,-340.57C166.84,-305.76 312.6,-224.79 378.21,-188.35"/>
<polygon fill="#546e7a" stroke="#546e7a" points="379.75,-190.3 384.68,-184.76 377.37,-186.02 379.75,-190.3"/>
<text text-anchor="middle" x="220.67" y="-298.8" font-family="Arial,Helvetica" font-size="9.00" fill="#37474f">subjectTaxonConcept</text>
</g>
<!-- lit_b1_title_9197m -->
<g id="node6" class="node">
<title>lit_b1_title_9197m</title>
<path fill="#ffffff" stroke="#b0bec5" d="M959.81,-453C959.81,-453 789.81,-453 789.81,-453 783.81,-453 777.81,-447 777.81,-441 777.81,-441 777.81,-429 777.81,-429 777.81,-423 783.81,-417 789.81,-417 789.81,-417 959.81,-417 959.81,-417 965.81,-417 971.81,-423 971.81,-429 971.81,-429 971.81,-441 971.81,-441 971.81,-447 965.81,-453 959.81,-453"/>
<text text-anchor="start" x="785.81" y="-438" font-family="Arial,Helvetica" font-size="10.00">Andropogon tenuispatheus sec. Weakley</text>
<text text-anchor="start" x="785.81" y="-427" font-family="Arial,Helvetica" font-size="10.00">2006</text>
</g>
<!-- b1&#45;&gt;lit_b1_title_9197m -->
<g id="edge5" class="edge">
<title>b1&#45;&gt;lit_b1_title_9197m</title>
<path fill="none" stroke="#546e7a" d="M450.38,-331.7C473.51,-338.54 503.81,-347.82 530.34,-357 579.4,-373.97 589.17,-385.65 639.34,-399 681.66,-410.26 729.29,-418.38 770.5,-424.02"/>
<polygon fill="#546e7a" stroke="#546e7a" points="770.32,-426.47 777.59,-424.98 770.98,-421.61 770.32,-426.47"/>
<text text-anchor="middle" x="584.84" y="-391.8" font-family="Arial,Helvetica" font-size="9.00" fill="#37474f">title</text>
</g>
<!-- http://www.herbarium.unc.edu/FloraArchives/WeakleyFlora_2006&#45;Jan.pdf -->
<g id="node7" class="node">
<title>http://www.herbarium.unc.edu/FloraArchives/WeakleyFlora_2006&#45;Jan.pdf</title>
<ellipse fill="#bbdefb" stroke="#0d47a1" cx="874.81" cy="-360" rx="235.43" ry="21.43"/>
<text text-anchor="middle" x="874.81" y="-363" font-family="Arial,Helvetica" font-size="10.00">BibliographicResource</text>
<text text-anchor="middle" x="874.81" y="-352" font-family="Arial,Helvetica" font-size="10.00">http://www.herbarium.unc.edu/FloraArchives/WeakleyFlora_2006&#45;Jan.pdf</text>
</g>
<!-- b1&#45;&gt;http://www.herbarium.unc.edu/FloraArchives/WeakleyFlora_2006&#45;Jan.pdf -->
<g id="edge6" class="edge">
<title>b1&#45;&gt;http://www.herbarium.unc.edu/FloraArchives/WeakleyFlora_2006&#45;Jan.pdf</title>
<path fill="none" stroke="#546e7a" d="M458.67,-324.85C513.69,-329.51 609.68,-337.63 695.51,-344.9"/>
<polygon fill="#546e7a" stroke="#546e7a" points="695.54,-347.36 702.72,-345.51 695.95,-342.48 695.54,-347.36"/>
<text text-anchor="middle" x="584.84" y="-339.8" font-family="Arial,Helvetica" font-size="9.00" fill="#37474f">accordingTo</text>
</g>
<!-- https://ipni.org/n/13093&#45;2 -->
<g id="node8" class="node">
<title>https://ipni.org/n/13093&#45;2</title>
<ellipse fill="#ffcdd2" stroke="#b71c1c" cx="874.81" cy="-282" rx="88.28" ry="21.43"/>
<text text-anchor="middle" x="874.81" y="-285" font-family="Arial,Helvetica" font-size="10.00">TaxonName</text>
<text text-anchor="middle" x="874.81" y="-274" font-family="Arial,Helvetica" font-size="10.00">https://ipni.org/n/13093&#45;2</text>
</g>
<!-- b1&#45;&gt;https://ipni.org/n/13093&#45;2 -->
<g id="edge7" class="edge">
<title>b1&#45;&gt;https://ipni.org/n/13093&#45;2</title>
<path fill="none" stroke="#546e7a" d="M458.67,-317.15C534.06,-310.77 686.37,-297.87 784.06,-289.6"/>
<polygon fill="#546e7a" stroke="#546e7a" points="784.52,-292.02 791.29,-288.99 784.1,-287.14 784.52,-292.02"/>
<text text-anchor="middle" x="584.84" y="-310.8" font-family="Arial,Helvetica" font-size="9.00" fill="#37474f">taxonName</text>
</g>
<!-- lit_b2_title_frtdw -->
<g id="node9" class="node">
<title>lit_b2_title_frtdw</title>
<path fill="#ffffff" stroke="#b0bec5" d="M964.31,-225C964.31,-225 785.31,-225 785.31,-225 779.31,-225 773.31,-219 773.31,-213 773.31,-213 773.31,-201 773.31,-201 773.31,-195 779.31,-189 785.31,-189 785.31,-189 964.31,-189 964.31,-189 970.31,-189 976.31,-195 976.31,-201 976.31,-201 976.31,-213 976.31,-213 976.31,-219 970.31,-225 964.31,-225"/>
<text text-anchor="start" x="781.31" y="-204.5" font-family="Arial,Helvetica" font-size="10.00">Andropogon glomeratus sec. BONAP 2014</text>
</g>
<!-- b2&#45;&gt;lit_b2_title_frtdw -->
<g id="edge8" class="edge">
<title>b2&#45;&gt;lit_b2_title_frtdw</title>
<path fill="none" stroke="#546e7a" d="M458.67,-173.65C529.52,-179.34 668.31,-190.49 765.85,-198.33"/>
<polygon fill="#546e7a" stroke="#546e7a" points="765.92,-200.79 773.09,-198.91 766.31,-195.91 765.92,-200.79"/>
<text text-anchor="middle" x="584.84" y="-187.8" font-family="Arial,Helvetica" font-size="9.00" fill="#37474f">title</text>
</g>
<!-- http://bonap.net/napa#2014 -->
<g id="node10" class="node">
<title>http://bonap.net/napa#2014</title>
<ellipse fill="#bbdefb" stroke="#0d47a1" cx="874.81" cy="-132" rx="95.42" ry="21.43"/>
<text text-anchor="middle" x="874.81" y="-135" font-family="Arial,Helvetica" font-size="10.00">BibliographicResource</text>
<text text-anchor="middle" x="874.81" y="-124" font-family="Arial,Helvetica" font-size="10.00">http://bonap.net/napa#2014</text>
</g>
<!-- b2&#45;&gt;http://bonap.net/napa#2014 -->
<g id="edge9" class="edge">
<title>b2&#45;&gt;http://bonap.net/napa#2014</title>
<path fill="none" stroke="#546e7a" d="M458.67,-166.25C532.4,-160.17 679.7,-148.02 777.52,-139.94"/>
<polygon fill="#546e7a" stroke="#546e7a" points="778,-142.36 784.77,-139.35 777.6,-137.48 778,-142.36"/>
<text text-anchor="middle" x="584.84" y="-159.8" font-family="Arial,Helvetica" font-size="9.00" fill="#37474f">accordingTo</text>
</g>
<!-- https://ipni.org/n/12850&#45;2 -->
<g id="node11" class="node">
<title>https://ipni.org/n/12850&#45;2</title>
<ellipse fill="#ffcdd2" stroke="#b71c1c" cx="874.81" cy="-54" rx="88.28" ry="21.43"/>
<text text-anchor="middle" x="874.81" y="-57" font-family="Arial,Helvetica" font-size="10.00">TaxonName</text>
<text text-anchor="middle" x="874.81" y="-46" font-family="Arial,Helvetica" font-size="10.00">https://ipni.org/n/12850&#45;2</text>
</g>
<!-- b2&#45;&gt;https://ipni.org/n/12850&#45;2 -->
<g id="edge10" class="edge">
<title>b2&#45;&gt;https://ipni.org/n/12850&#45;2</title>
<path fill="none" stroke="#546e7a" d="M445.7,-157.07C489.16,-140.19 568.97,-110.71 639.34,-93 688.34,-80.67 744.11,-71.21 788.96,-64.7"/>
<polygon fill="#546e7a" stroke="#546e7a" points="789.48,-67.1 796.06,-63.68 788.78,-62.25 789.48,-67.1"/>
<text text-anchor="middle" x="584.84" y="-116.8" font-family="Arial,Helvetica" font-size="9.00" fill="#37474f">taxonName</text>
</g>
<!-- lit_httpsipniorgn130932_scientificNameAuthorship_4x3j3 -->
<g id="node14" class="node">
<title>lit_httpsipniorgn130932_scientificNameAuthorship_4x3j3</title>
<path fill="#ffffff" stroke="#b0bec5" d="M1355.27,-336C1355.27,-336 1325.27,-336 1325.27,-336 1319.27,-336 1313.27,-330 1313.27,-324 1313.27,-324 1313.27,-312 1313.27,-312 1313.27,-306 1319.27,-300 1325.27,-300 1325.27,-300 1355.27,-300 1355.27,-300 1361.27,-300 1367.27,-306 1367.27,-312 1367.27,-312 1367.27,-324 1367.27,-324 1367.27,-330 1361.27,-336 1355.27,-336"/>
<text text-anchor="start" x="1321.27" y="-315.5" font-family="Arial,Helvetica" font-size="10.00">Nash</text>
</g>
<!-- https://ipni.org/n/13093&#45;2&#45;&gt;lit_httpsipniorgn130932_scientificNameAuthorship_4x3j3 -->
<g id="edge13" class="edge">
<title>https://ipni.org/n/13093&#45;2&#45;&gt;lit_httpsipniorgn130932_scientificNameAuthorship_4x3j3</title>
<path fill="none" stroke="#546e7a" d="M959.2,-288.48C1062.76,-296.52 1234.49,-309.86 1306.21,-315.43"/>
<polygon fill="#546e7a" stroke="#546e7a" points="1306.07,-317.88 1313.24,-315.98 1306.45,-312.99 1306.07,-317.88"/>
<text text-anchor="middle" x="1191.77" y="-312.8" font-family="Arial,Helvetica" font-size="9.00" fill="#37474f">scientificNameAuthorship</text>
</g>
<!-- lit_httpsipniorgn130932_nameString_mjohu -->
<g id="node15" class="node">
<title>lit_httpsipniorgn130932_nameString_mjohu</title>
<path fill="#ffffff" stroke="#b0bec5" d="M1394.27,-264C1394.27,-264 1286.27,-264 1286.27,-264 1280.27,-264 1274.27,-258 1274.27,-252 1274.27,-252 1274.27,-240 1274.27,-240 1274.27,-234 1280.27,-228 1286.27,-228 1286.27,-228 1394.27,-228 1394.27,-228 1400.27,-228 1406.27,-234 1406.27,-240 1406.27,-240 1406.27,-252 1406.27,-252 1406.27,-258 1400.27,-264 1394.27,-264"/>
<text text-anchor="start" x="1282.27" y="-243.5" font-family="Arial,Helvetica" font-size="10.00">Andropogon tenuispatheus</text>
</g>
<!-- https://ipni.org/n/13093&#45;2&#45;&gt;lit_httpsipniorgn130932_nameString_mjohu -->
<g id="edge14" class="edge">
<title>https://ipni.org/n/13093&#45;2&#45;&gt;lit_httpsipniorgn130932_nameString_mjohu</title>
<path fill="none" stroke="#546e7a" d="M959.2,-275.52C1046.95,-268.71 1183.64,-258.09 1266.97,-251.62"/>
<polygon fill="#546e7a" stroke="#546e7a" points="1267.33,-254.05 1274.12,-251.06 1266.95,-249.16 1267.33,-254.05"/>
<text text-anchor="middle" x="1191.77" y="-262.8" font-family="Arial,Helvetica" font-size="9.00" fill="#37474f">nameString</text>
</g>
<!-- lit_httpsipniorgn128502_scientificNameAuthorship_w0m2x -->
<g id="node12" class="node">
<title>lit_httpsipniorgn128502_scientificNameAuthorship_w0m2x</title>
<path fill="#ffffff" stroke="#b0bec5" d="M1395.27,-108C1395.27,-108 1285.27,-108 1285.27,-108 1279.27,-108 1273.27,-102 1273.27,-96 1273.27,-96 1273.27,-84 1273.27,-84 1273.27,-78 1279.27,-72 1285.27,-72 1285.27,-72 1395.27,-72 1395.27,-72 1401.27,-72 1407.27,-78 1407.27,-84 1407.27,-84 1407.27,-96 1407.27,-96 1407.27,-102 1401.27,-108 1395.27,-108"/>
<text text-anchor="start" x="1281.27" y="-87.5" font-family="Arial,Helvetica" font-size="10.00">Britton, Sterns &amp; Poggenb.</text>
</g>
<!-- https://ipni.org/n/12850&#45;2&#45;&gt;lit_httpsipniorgn128502_scientificNameAuthorship_w0m2x -->
<g id="edge11" class="edge">
<title>https://ipni.org/n/12850&#45;2&#45;&gt;lit_httpsipniorgn128502_scientificNameAuthorship_w0m2x</title>
<path fill="none" stroke="#546e7a" d="M959.2,-60.48C1046.57,-67.26 1182.46,-77.82 1265.88,-84.3"/>
<polygon fill="#546e7a" stroke="#546e7a" points="1265.87,-86.76 1273.04,-84.86 1266.25,-81.87 1265.87,-86.76"/>
<text text-anchor="middle" x="1191.77" y="-84.8" font-family="Arial,Helvetica" font-size="9.00" fill="#37474f">scientificNameAuthorship</text>
</g>
<!-- lit_httpsipniorgn128502_nameString_tl6p3 -->
<g id="node13" class="node">
<title>lit_httpsipniorgn128502_nameString_tl6p3</title>
<path fill="#ffffff" stroke="#b0bec5" d="M1387.77,-36C1387.77,-36 1292.77,-36 1292.77,-36 1286.77,-36 1280.77,-30 1280.77,-24 1280.77,-24 1280.77,-12 1280.77,-12 1280.77,-6 1286.77,0 1292.77,0 1292.77,0 1387.77,0 1387.77,0 1393.77,0 1399.77,-6 1399.77,-12 1399.77,-12 1399.77,-24 1399.77,-24 1399.77,-30 1393.77,-36 1387.77,-36"/>
<text text-anchor="start" x="1288.77" y="-15.5" font-family="Arial,Helvetica" font-size="10.00">Andropogon glomeratus</text>
</g>
<!-- https://ipni.org/n/12850&#45;2&#45;&gt;lit_httpsipniorgn128502_nameString_tl6p3 -->
<g id="edge12" class="edge">
<title>https://ipni.org/n/12850&#45;2&#45;&gt;lit_httpsipniorgn128502_nameString_tl6p3</title>
<path fill="none" stroke="#546e7a" d="M959.2,-47.52C1049.26,-40.53 1190.89,-29.53 1273.45,-23.11"/>
<polygon fill="#546e7a" stroke="#546e7a" points="1273.97,-25.53 1280.76,-22.54 1273.59,-20.64 1273.97,-25.53"/>
<text text-anchor="middle" x="1191.77" y="-34.8" font-family="Arial,Helvetica" font-size="9.00" fill="#37474f">nameString</text>
</g>
</g>
</svg>
