<?xml version="1.0" encoding="UTF-8" standalone="no"?>
<!DOCTYPE svg PUBLIC "-//W3C//DTD SVG 1.1//EN"
 "http://www.w3.org/Graphics/SVG/1.1/DTD/svg11.dtd">
<!-- Generated by graphviz version 2.43.0 (0)
 -->
<!-- Title: Taxonomic_Data_Graph Pages: 1 -->
<svg width="100%" height="100%"
 viewBox="0.00 0.00 1106.16 227.00" xmlns="http://www.w3.org/2000/svg" xmlns:xlink="http://www.w3.org/1999/xlink">
<g id="graph0" class="graph" transform="scale(1 1) rotate(0) translate(4 223)">
<title>Taxonomic_Data_Graph</title>
<polygon fill="white" stroke="transparent" points="-4,4 -4,-223 1102.16,-223 1102.16,4 -4,4"/>
<!-- http://www.wikidata.org/entity/Q1043 -->
<g id="node1" class="node">
<title>http://www.wikidata.org/entity/Q1043</title>
<ellipse fill="#b2dfdb" stroke="#004d40" cx="809.3" cy="-165" rx="125.73" ry="21.43"/>
<text text-anchor="middle" x="809.3" y="-168" font-family="Arial,Helvetica" font-size="10.00">Person</text>
<text text-anchor="middle" x="809.3" y="-157" font-family="Arial,Helvetica" font-size="10.00">http://www.wikidata.org/entity/Q1043</text>
</g>
<!-- lit_httpwwwwikidataorgentityQ1043_familyName_0 -->
<g id="node2" class="node">
<title>lit_httpwwwwikidataorgentityQ1043_familyName_0</title>
<path fill="#ffffff" stroke="#b0bec5" d="M1086.16,-219C1086.16,-219 1054.16,-219 1054.16,-219 1048.16,-219 1042.16,-213 1042.16,-207 1042.16,-207 1042.16,-195 1042.16,-195 1042.16,-189 1048.16,-183 1054.16,-183 1054.16,-183 1086.16,-183 1086.16,-183 1092.16,-183 1098.16,-189 1098.16,-195 1098.16,-195 1098.16,-207 1098.16,-207 1098.16,-213 1092.16,-219 1086.16,-219"/>
<text text-anchor="start" x="1050.16" y="-198.5" font-family="Arial,Helvetica" font-size="10.00">Linnaeus</text>
</g>
<!-- http://www.wikidata.org/entity/Q1043&#45;&gt;lit_httpwwwwikidataorgentityQ1043_familyName_0 -->
<g id="edge1" class="edge">
<title>http://www.wikidata.org/entity/Q1043&#45;&gt;lit_httpwwwwikidataorgentityQ1043_familyName_0</title>
<path fill="none" stroke="#546e7a" d="M907.06,-178.46C951.91,-184.69 1002.38,-191.71 1034.91,-196.24"/>
<polygon fill="#546e7a" stroke="#546e7a" points="1034.7,-198.68 1041.97,-197.22 1035.37,-193.83 1034.7,-198.68"/>
<text text-anchor="middle" x="988.66" y="-194.8" font-family="Arial,Helvetica" font-size="9.00" fill="#37474f">familyName</text>
</g>
<!-- lit_httpwwwwikidataorgentityQ1043_givenName_1 -->
<g id="node3" class="node">
<title>lit_httpwwwwikidataorgentityQ1043_givenName_1</title>
<path fill="#ffffff" stroke="#b0bec5" d="M1085.16,-147C1085.16,-147 1055.16,-147 1055.16,-147 1049.16,-147 1043.16,-141 1043.16,-135 1043.16,-135 1043.16,-123 1043.16,-123 1043.16,-117 1049.16,-111 1055.16,-111 1055.16,-111 1085.16,-111 1085.16,-111 1091.16,-111 1097.16,-117 1097.16,-123 1097.16,-123 1097.16,-135 1097.16,-135 1097.16,-141 1091.16,-147 1085.16,-147"/>
<text text-anchor="start" x="1051.16" y="-126.5" font-family="Arial,Helvetica" font-size="10.00">Carl</text>
</g>
<!-- http://www.wikidata.org/entity/Q1043&#45;&gt;lit_httpwwwwikidataorgentityQ1043_givenName_1 -->
<g id="edge2" class="edge">
<title>http://www.wikidata.org/entity/Q1043&#45;&gt;lit_httpwwwwikidataorgentityQ1043_givenName_1</title>
<path fill="none" stroke="#546e7a" d="M907.06,-151.54C952.45,-145.23 1003.58,-138.12 1036.06,-133.6"/>
<polygon fill="#546e7a" stroke="#546e7a" points="1036.5,-136.02 1043.1,-132.62 1035.83,-131.16 1036.5,-136.02"/>
<text text-anchor="middle" x="988.66" y="-144.8" font-family="Arial,Helvetica" font-size="9.00" fill="#37474f">givenName</text>
</g>
<!-- https://zoobank.org/NomenclaturalActs/db265300&#45;fb04&#45;4dba&#45;b843&#45;8dd236484ee4 -->
<g id="node4" class="node">
<title>https://zoobank.org/NomenclaturalActs/db265300&#45;fb04&#45;4dba&#45;b843&#45;8dd236484ee4</title>
<ellipse fill="#ffcdd2" stroke="#b71c1c" cx="260.22" cy="-90" rx="260.43" ry="21.43"/>
<text text-anchor="middle" x="260.22" y="-93" font-family="Arial,Helvetica" font-size="10.00">TaxonName</text>
<text text-anchor="middle" x="260.22" y="-82" font-family="Arial,Helvetica" font-size="10.00">https://zoobank.org/NomenclaturalActs/db265300&#45;fb04&#45;4dba&#45;b843&#45;8dd236484ee4</text>
</g>
<!-- https://zoobank.org/NomenclaturalActs/db265300&#45;fb04&#45;4dba&#45;b843&#45;8dd236484ee4&#45;&gt;http://www.wikidata.org/entity/Q1043 -->
<g id="edge4" class="edge">
<title>https://zoobank.org/NomenclaturalActs/db265300&#45;fb04&#45;4dba&#45;b843&#45;8dd236484ee4&#45;&gt;http://www.wikidata.org/entity/Q1043</title>
<path fill="none" stroke="#546e7a" d="M394,-108.2C489.3,-121.27 615.93,-138.63 704,-150.7"/>
<polygon fill="#546e7a" stroke="#546e7a" points="703.8,-153.15 711.07,-151.67 704.47,-148.29 703.8,-153.15"/>
<text text-anchor="middle" x="601.93" y="-144.8" font-family="Arial,Helvetica" font-size="9.00" fill="#37474f">combinationAuthor</text>
</g>
<!-- lit_httpszoobankorgNomenclaturalActsdb265300fb044dbab8438dd236484ee4_scientificNameAuthorship_2 -->
<g id="node5" class="node">
<title>lit_httpszoobankorgNomenclaturalActsdb265300fb044dbab8438dd236484ee4_scientificNameAuthorship_2</title>
<path fill="#ffffff" stroke="#b0bec5" d="M838.8,-108C838.8,-108 779.8,-108 779.8,-108 773.8,-108 767.8,-102 767.8,-96 767.8,-96 767.8,-84 767.8,-84 767.8,-78 773.8,-72 779.8,-72 779.8,-72 838.8,-72 838.8,-72 844.8,-72 850.8,-78 850.8,-84 850.8,-84 850.8,-96 850.8,-96 850.8,-102 844.8,-108 838.8,-108"/>
<text text-anchor="start" x="775.8" y="-87.5" font-family="Arial,Helvetica" font-size="10.00">Linnaeus, 1758</text>
</g>
<!-- https://zoobank.org/NomenclaturalActs/db265300&#45;fb04&#45;4dba&#45;b843&#45;8dd236484ee4&#45;&gt;lit_httpszoobankorgNomenclaturalActsdb265300fb044dbab8438dd236484ee4_scientificNameAuthorship_2 -->
<g id="edge3" class="edge">
<title>https://zoobank.org/NomenclaturalActs/db265300&#45;fb04&#45;4dba&#45;b843&#45;8dd236484ee4&#45;&gt;lit_httpszoobankorgNomenclaturalActsdb265300fb044dbab8438dd236484ee4_scientificNameAuthorship_2</title>
<path fill="none" stroke="#546e7a" d="M520.74,-90C612.37,-90 706.11,-90 760.67,-90"/>
<polygon fill="#546e7a" stroke="#546e7a" points="760.78,-92.45 767.78,-90 760.78,-87.55 760.78,-92.45"/>
<text text-anchor="middle" x="601.93" y="-92.8" font-family="Arial,Helvetica" font-size="9.00" fill="#37474f">scientificNameAuthorship</text>
</g>
<!-- lit_httpszoobankorgNomenclaturalActsdb265300fb044dbab8438dd236484ee4_nameString_3 -->
<g id="node6" class="node">
<title>lit_httpszoobankorgNomenclaturalActsdb265300fb044dbab8438dd236484ee4_nameString_3</title>
<path fill="#ffffff" stroke="#b0bec5" d="M824.3,-36C824.3,-36 794.3,-36 794.3,-36 788.3,-36 782.3,-30 782.3,-24 782.3,-24 782.3,-12 782.3,-12 782.3,-6 788.3,0 794.3,0 794.3,0 824.3,0 824.3,0 830.3,0 836.3,-6 836.3,-12 836.3,-12 836.3,-24 836.3,-24 836.3,-30 830.3,-36 824.3,-36"/>
<text text-anchor="start" x="790.3" y="-15.5" font-family="Arial,Helvetica" font-size="10.00">Felis leo</text>
</g>
<!-- https://zoobank.org/NomenclaturalActs/db265300&#45;fb04&#45;4dba&#45;b843&#45;8dd236484ee4&#45;&gt;lit_httpszoobankorgNomenclaturalActsdb265300fb044dbab8438dd236484ee4_nameString_3 -->
<g id="edge5" class="edge">
<title>https://zoobank.org/NomenclaturalActs/db265300&#45;fb04&#45;4dba&#45;b843&#45;8dd236484ee4&#45;&gt;lit_httpszoobankorgNomenclaturalActsdb265300fb044dbab8438dd236484ee4_nameString_3</title>
<path fill="none" stroke="#546e7a" d="M398.21,-71.97C523.97,-55.42 701.53,-32.05 774.74,-22.42"/>
<polygon fill="#546e7a" stroke="#546e7a" points="775.28,-24.82 781.9,-21.47 774.64,-19.96 775.28,-24.82"/>
<text text-anchor="middle" x="601.93" y="-54.8" font-family="Arial,Helvetica" font-size="9.00" fill="#37474f">nameString</text>
</g>
</g>
</svg>
