<?xml version="1.0" encoding="UTF-8" standalone="no"?>
<!DOCTYPE svg PUBLIC "-//W3C//DTD SVG 1.1//EN"
 "http://www.w3.org/Graphics/SVG/1.1/DTD/svg11.dtd">
<!-- Generated by graphviz version 2.43.0 (0)
 -->
<!-- Title: Taxonomic_Data_Graph Pages: 1 -->
<svg width="100%" height="100%"
 viewBox="0.00 0.00 1291.87 1436.00" xmlns="http://www.w3.org/2000/svg" xmlns:xlink="http://www.w3.org/1999/xlink">
<g id="graph0" class="graph" transform="scale(1 1) rotate(0) translate(4 1432)">
<title>Taxonomic_Data_Graph</title>
<polygon fill="white" stroke="transparent" points="-4,4 -4,-1432 1287.87,-1432 1287.87,4 -4,4"/>
<!-- b0 -->
<g id="node1" class="node">
<title>b0</title>
<ellipse fill="#c8e6c9" stroke="#1b5e20" cx="47.09" cy="-1034" rx="47.19" ry="18"/>
<text text-anchor="middle" x="47.09" y="-1031.5" font-family="Arial,Helvetica" font-size="10.00">TaxonConcept</text>
</g>
<!-- lit_b0_title_a7wgj -->
<g id="node2" class="node">
<title>lit_b0_title_a7wgj</title>
<path fill="#ffffff" stroke="#b0bec5" d="M432.85,-1349C432.85,-1349 264.85,-1349 264.85,-1349 258.85,-1349 252.85,-1343 252.85,-1337 252.85,-1337 252.85,-1325 252.85,-1325 252.85,-1319 258.85,-1313 264.85,-1313 264.85,-1313 432.85,-1313 432.85,-1313 438.85,-1313 444.85,-1319 444.85,-1325 444.85,-1325 444.85,-1337 444.85,-1337 444.85,-1343 438.85,-1349 432.85,-1349"/>
<text text-anchor="start" x="260.85" y="-1328.5" font-family="Arial,Helvetica" font-size="10.00">Dicranoloma blumei sec. Klazenga 1999</text>
</g>
<!-- b0&#45;&gt;lit_b0_title_a7wgj -->
<g id="edge1" class="edge">
<title>b0&#45;&gt;lit_b0_title_a7wgj</title>
<path fill="none" stroke="#546e7a" d="M52.3,-1051.94C64.99,-1101.47 108.03,-1240.03 203.19,-1295 216.3,-1302.58 230.99,-1308.57 245.83,-1313.31"/>
<polygon fill="#546e7a" stroke="#546e7a" points="245.25,-1315.7 252.66,-1315.4 246.68,-1311.01 245.25,-1315.7"/>
<text text-anchor="middle" x="148.69" y="-1273.8" font-family="Arial,Helvetica" font-size="9.00" fill="#37474f">title</text>
</g>
<!-- https://www.tropicos.org/reference/9020903 -->
<g id="node3" class="node">
<title>https://www.tropicos.org/reference/9020903</title>
<ellipse fill="#bbdefb" stroke="#0d47a1" cx="348.85" cy="-1256" rx="145.83" ry="21.43"/>
<text text-anchor="middle" x="348.85" y="-1259" font-family="Arial,Helvetica" font-size="10.00">AcademicArticle</text>
<text text-anchor="middle" x="348.85" y="-1248" font-family="Arial,Helvetica" font-size="10.00">https://www.tropicos.org/reference/9020903</text>
</g>
<!-- b0&#45;&gt;https://www.tropicos.org/reference/9020903 -->
<g id="edge2" class="edge">
<title>b0&#45;&gt;https://www.tropicos.org/reference/9020903</title>
<path fill="none" stroke="#546e7a" d="M57.97,-1051.67C79.41,-1088.37 133.92,-1173.04 203.19,-1217 216.73,-1225.6 232.15,-1232.32 247.75,-1237.56"/>
<polygon fill="#546e7a" stroke="#546e7a" points="247.03,-1239.91 254.45,-1239.72 248.54,-1235.24 247.03,-1239.91"/>
<text text-anchor="middle" x="148.69" y="-1195.8" font-family="Arial,Helvetica" font-size="9.00" fill="#37474f">accordingTo</text>
</g>
<!-- https://www.tropicos.org/name/35121973 -->
<g id="node4" class="node">
<title>https://www.tropicos.org/name/35121973</title>
<ellipse fill="#ffcdd2" stroke="#b71c1c" cx="348.85" cy="-1178" rx="137.36" ry="21.43"/>
<text text-anchor="middle" x="348.85" y="-1181" font-family="Arial,Helvetica" font-size="10.00">TaxonName</text>
<text text-anchor="middle" x="348.85" y="-1170" font-family="Arial,Helvetica" font-size="10.00">https://www.tropicos.org/name/35121973</text>
</g>
<!-- b0&#45;&gt;https://www.tropicos.org/name/35121973 -->
<g id="edge3" class="edge">
<title>b0&#45;&gt;https://www.tropicos.org/name/35121973</title>
<path fill="none" stroke="#000000" stroke-width="1.8" d="M77.11,-1047.94C128.6,-1072.67 236.45,-1124.49 299.38,-1154.72"/>
<polygon fill="#000000" stroke="#000000" stroke-width="1.8" points="298.33,-1156.93 305.7,-1157.75 300.45,-1152.51 298.33,-1156.93"/>
<text text-anchor="middle" x="148.69" y="-1095.8" font-family="Arial" font-weight="bold" font-size="9.00" fill="#37474f">synonym</text>
</g>
<!-- https://www.tropicos.org/name/35121477 -->
<g id="node5" class="node">
<title>https://www.tropicos.org/name/35121477</title>
<ellipse fill="#ffcdd2" stroke="#b71c1c" cx="348.85" cy="-1034" rx="137.36" ry="21.43"/>
<text text-anchor="middle" x="348.85" y="-1037" font-family="Arial,Helvetica" font-size="10.00">TaxonName</text>
<text text-anchor="middle" x="348.85" y="-1026" font-family="Arial,Helvetica" font-size="10.00">https://www.tropicos.org/name/35121477</text>
</g>
<!-- b0&#45;&gt;https://www.tropicos.org/name/35121477 -->
<g id="edge4" class="edge">
<title>b0&#45;&gt;https://www.tropicos.org/name/35121477</title>
<path fill="none" stroke="#000000" stroke-width="1.8" d="M94.27,-1034C123.96,-1034 164.29,-1034 204.04,-1034"/>
<polygon fill="#000000" stroke="#000000" stroke-width="1.8" points="204.46,-1036.45 211.46,-1034 204.46,-1031.55 204.46,-1036.45"/>
<text text-anchor="middle" x="148.69" y="-1036.8" font-family="Arial" font-weight="bold" font-size="9.00" fill="#37474f">synonym</text>
</g>
<!-- https://www.tropicos.org/name/35121484 -->
<g id="node6" class="node">
<title>https://www.tropicos.org/name/35121484</title>
<ellipse fill="#ffcdd2" stroke="#b71c1c" cx="348.85" cy="-854" rx="137.36" ry="21.43"/>
<text text-anchor="middle" x="348.85" y="-857" font-family="Arial,Helvetica" font-size="10.00">TaxonName</text>
<text text-anchor="middle" x="348.85" y="-846" font-family="Arial,Helvetica" font-size="10.00">https://www.tropicos.org/name/35121484</text>
</g>
<!-- b0&#45;&gt;https://www.tropicos.org/name/35121484 -->
<g id="edge5" class="edge">
<title>b0&#45;&gt;https://www.tropicos.org/name/35121484</title>
<path fill="none" stroke="#000000" stroke-width="1.8" d="M73.13,-1018.96C124.97,-987.84 244.41,-916.12 307.35,-878.32"/>
<polygon fill="#000000" stroke="#000000" stroke-width="1.8" points="308.89,-880.25 313.63,-874.55 306.37,-876.05 308.89,-880.25"/>
<text text-anchor="middle" x="148.69" y="-987.8" font-family="Arial" font-weight="bold" font-size="9.00" fill="#37474f">synonym</text>
</g>
<!-- https://www.tropicos.org/name/35188177 -->
<g id="node7" class="node">
<title>https://www.tropicos.org/name/35188177</title>
<ellipse fill="#ffcdd2" stroke="#b71c1c" cx="348.85" cy="-638" rx="137.36" ry="21.43"/>
<text text-anchor="middle" x="348.85" y="-641" font-family="Arial,Helvetica" font-size="10.00">TaxonName</text>
<text text-anchor="middle" x="348.85" y="-630" font-family="Arial,Helvetica" font-size="10.00">https://www.tropicos.org/name/35188177</text>
</g>
<!-- b0&#45;&gt;https://www.tropicos.org/name/35188177 -->
<g id="edge6" class="edge">
<title>b0&#45;&gt;https://www.tropicos.org/name/35188177</title>
<path fill="none" stroke="#000000" stroke-width="1.8" d="M59.96,-1016.39C85.4,-978.81 147.45,-888.21 203.19,-815 244.66,-760.52 295.93,-699.09 324.96,-664.81"/>
<polygon fill="#000000" stroke="#000000" stroke-width="1.8" points="327.11,-666.07 329.77,-659.14 323.38,-662.9 327.11,-666.07"/>
<text text-anchor="middle" x="148.69" y="-923.8" font-family="Arial" font-weight="bold" font-size="9.00" fill="#37474f">synonym</text>
</g>
<!-- https://www.tropicos.org/name/35121475 -->
<g id="node8" class="node">
<title>https://www.tropicos.org/name/35121475</title>
<ellipse fill="#ffcdd2" stroke="#b71c1c" cx="348.85" cy="-386" rx="137.36" ry="21.43"/>
<text text-anchor="middle" x="348.85" y="-389" font-family="Arial,Helvetica" font-size="10.00">TaxonName</text>
<text text-anchor="middle" x="348.85" y="-378" font-family="Arial,Helvetica" font-size="10.00">https://www.tropicos.org/name/35121475</text>
</g>
<!-- b0&#45;&gt;https://www.tropicos.org/name/35121475 -->
<g id="edge7" class="edge">
<title>b0&#45;&gt;https://www.tropicos.org/name/35121475</title>
<path fill="none" stroke="#546e7a" d="M52.75,-1015.93C68.81,-955.06 125.19,-752.72 203.19,-599 239.28,-527.86 295.35,-452.4 326.01,-413.21"/>
<polygon fill="#546e7a" stroke="#546e7a" points="328.3,-414.26 330.7,-407.24 324.45,-411.23 328.3,-414.26"/>
<text text-anchor="middle" x="148.69" y="-787.8" font-family="Arial,Helvetica" font-size="9.00" fill="#37474f">taxonName</text>
</g>
<!-- lit_httpswwwtropicosorgreference9020903_bibliographicCitation_m5d1k -->
<g id="node32" class="node">
<title>lit_httpswwwtropicosorgreference9020903_bibliographicCitation_m5d1k</title>
<path fill="#ffffff" stroke="#b0bec5" d="M875.19,-1428C875.19,-1428 714.19,-1428 714.19,-1428 708.19,-1428 702.19,-1422 702.19,-1416 702.19,-1416 702.19,-1388 702.19,-1388 702.19,-1382 708.19,-1376 714.19,-1376 714.19,-1376 875.19,-1376 875.19,-1376 881.19,-1376 887.19,-1382 887.19,-1388 887.19,-1388 887.19,-1416 887.19,-1416 887.19,-1422 881.19,-1428 875.19,-1428"/>
<text text-anchor="start" x="710.19" y="-1416" font-family="Arial,Helvetica" font-size="10.00">Klazenga, N. (1999). A revision of the</text>
<text text-anchor="start" x="710.19" y="-1405" font-family="Arial,Helvetica" font-size="10.00">Malesian species of Dicranoloma</text>
<text text-anchor="start" x="710.19" y="-1394" font-family="Arial,Helvetica" font-size="10.00">(Dicranaceae, Musci). Journal of the</text>
<text text-anchor="start" x="710.19" y="-1383" font-family="Arial,Helvetica" font-size="10.00">Hattori Botanical Laboratory 87: 1&#45;130.</text>
</g>
<!-- https://www.tropicos.org/reference/9020903&#45;&gt;lit_httpswwwtropicosorgreference9020903_bibliographicCitation_m5d1k -->
<g id="edge31" class="edge">
<title>https://www.tropicos.org/reference/9020903&#45;&gt;lit_httpswwwtropicosorgreference9020903_bibliographicCitation_m5d1k</title>
<path fill="none" stroke="#546e7a" d="M423.52,-1274.25C446.42,-1280.35 471.64,-1287.52 494.51,-1295 568.33,-1319.14 584.31,-1332.05 657.51,-1358 672.34,-1363.26 688.16,-1368.6 703.58,-1373.67"/>
<polygon fill="#546e7a" stroke="#546e7a" points="703.21,-1376.13 710.63,-1375.98 704.74,-1371.48 703.21,-1376.13"/>
<text text-anchor="middle" x="576.01" y="-1348.8" font-family="Arial,Helvetica" font-size="9.00" fill="#37474f">bibliographicCitation</text>
</g>
<!-- lit_httpswwwtropicosorgname35121973_namePublishedIn_k5xua -->
<g id="node22" class="node">
<title>lit_httpswwwtropicosorgname35121973_namePublishedIn_k5xua</title>
<path fill="#ffffff" stroke="#b0bec5" d="M846.69,-1340C846.69,-1340 742.69,-1340 742.69,-1340 736.69,-1340 730.69,-1334 730.69,-1328 730.69,-1328 730.69,-1316 730.69,-1316 730.69,-1310 736.69,-1304 742.69,-1304 742.69,-1304 846.69,-1304 846.69,-1304 852.69,-1304 858.69,-1310 858.69,-1316 858.69,-1316 858.69,-1328 858.69,-1328 858.69,-1334 852.69,-1340 846.69,-1340"/>
<text text-anchor="start" x="738.69" y="-1319.5" font-family="Arial,Helvetica" font-size="10.00">Biblioth. Bot. 44: 4 (1898)</text>
</g>
<!-- https://www.tropicos.org/name/35121973&#45;&gt;lit_httpswwwtropicosorgname35121973_namePublishedIn_k5xua -->
<g id="edge21" class="edge">
<title>https://www.tropicos.org/name/35121973&#45;&gt;lit_httpswwwtropicosorgname35121973_namePublishedIn_k5xua</title>
<path fill="none" stroke="#546e7a" d="M435.13,-1194.5C455.24,-1200.14 476.15,-1207.5 494.51,-1217 509.37,-1224.69 508.89,-1232.87 523.51,-1241 578.41,-1271.54 597.34,-1267.96 657.51,-1286 678.86,-1292.4 702.27,-1298.8 723.56,-1304.4"/>
<polygon fill="#546e7a" stroke="#546e7a" points="723.01,-1306.79 730.4,-1306.19 724.25,-1302.05 723.01,-1306.79"/>
<text text-anchor="middle" x="576.01" y="-1279.8" font-family="Arial,Helvetica" font-size="9.00" fill="#37474f">namePublishedIn</text>
</g>
<!-- lit_httpswwwtropicosorgname35121973_scientificNameAuthorship_34rzb -->
<g id="node23" class="node">
<title>lit_httpswwwtropicosorgname35121973_scientificNameAuthorship_34rzb</title>
<path fill="#ffffff" stroke="#b0bec5" d="M821.19,-1268C821.19,-1268 768.19,-1268 768.19,-1268 762.19,-1268 756.19,-1262 756.19,-1256 756.19,-1256 756.19,-1244 756.19,-1244 756.19,-1238 762.19,-1232 768.19,-1232 768.19,-1232 821.19,-1232 821.19,-1232 827.19,-1232 833.19,-1238 833.19,-1244 833.19,-1244 833.19,-1256 833.19,-1256 833.19,-1262 827.19,-1268 821.19,-1268"/>
<text text-anchor="start" x="764.19" y="-1247.5" font-family="Arial,Helvetica" font-size="10.00">Broth. &amp; Geh.</text>
</g>
<!-- https://www.tropicos.org/name/35121973&#45;&gt;lit_httpswwwtropicosorgname35121973_scientificNameAuthorship_34rzb -->
<g id="edge22" class="edge">
<title>https://www.tropicos.org/name/35121973&#45;&gt;lit_httpswwwtropicosorgname35121973_scientificNameAuthorship_34rzb</title>
<path fill="none" stroke="#546e7a" d="M444.25,-1193.31C538.13,-1208.54 678.09,-1231.25 749.03,-1242.75"/>
<polygon fill="#546e7a" stroke="#546e7a" points="748.78,-1245.2 756.09,-1243.9 749.57,-1240.36 748.78,-1245.2"/>
<text text-anchor="middle" x="576.01" y="-1224.8" font-family="Arial,Helvetica" font-size="9.00" fill="#37474f">scientificNameAuthorship</text>
</g>
<!-- lit_httpswwwtropicosorgname35121973_nameString_c91c5 -->
<g id="node24" class="node">
<title>lit_httpswwwtropicosorgname35121973_nameString_c91c5</title>
<path fill="#ffffff" stroke="#b0bec5" d="M859.19,-1196C859.19,-1196 730.19,-1196 730.19,-1196 724.19,-1196 718.19,-1190 718.19,-1184 718.19,-1184 718.19,-1172 718.19,-1172 718.19,-1166 724.19,-1160 730.19,-1160 730.19,-1160 859.19,-1160 859.19,-1160 865.19,-1160 871.19,-1166 871.19,-1172 871.19,-1172 871.19,-1184 871.19,-1184 871.19,-1190 865.19,-1196 859.19,-1196"/>
<text text-anchor="start" x="726.19" y="-1175.5" font-family="Arial,Helvetica" font-size="10.00">Dicranum blumei var. laxifolium</text>
</g>
<!-- https://www.tropicos.org/name/35121973&#45;&gt;lit_httpswwwtropicosorgname35121973_nameString_c91c5 -->
<g id="edge23" class="edge">
<title>https://www.tropicos.org/name/35121973&#45;&gt;lit_httpswwwtropicosorgname35121973_nameString_c91c5</title>
<path fill="none" stroke="#546e7a" d="M486.03,-1178C559.52,-1178 647.83,-1178 710.95,-1178"/>
<polygon fill="#546e7a" stroke="#546e7a" points="711.13,-1180.45 718.13,-1178 711.13,-1175.55 711.13,-1180.45"/>
<text text-anchor="middle" x="576.01" y="-1180.8" font-family="Arial,Helvetica" font-size="9.00" fill="#37474f">nameString</text>
</g>
<!-- lit_httpswwwtropicosorgname35121477_namePublishedIn_uo0r9 -->
<g id="node13" class="node">
<title>lit_httpswwwtropicosorgname35121477_namePublishedIn_uo0r9</title>
<path fill="#ffffff" stroke="#b0bec5" d="M857.69,-1124C857.69,-1124 731.69,-1124 731.69,-1124 725.69,-1124 719.69,-1118 719.69,-1112 719.69,-1112 719.69,-1100 719.69,-1100 719.69,-1094 725.69,-1088 731.69,-1088 731.69,-1088 857.69,-1088 857.69,-1088 863.69,-1088 869.69,-1094 869.69,-1100 869.69,-1100 869.69,-1112 869.69,-1112 869.69,-1118 863.69,-1124 857.69,-1124"/>
<text text-anchor="start" x="727.69" y="-1103.5" font-family="Arial,Helvetica" font-size="10.00">Nova Guinea 12(2): 112 (1914)</text>
</g>
<!-- https://www.tropicos.org/name/35121477&#45;&gt;lit_httpswwwtropicosorgname35121477_namePublishedIn_uo0r9 -->
<g id="edge12" class="edge">
<title>https://www.tropicos.org/name/35121477&#45;&gt;lit_httpswwwtropicosorgname35121477_namePublishedIn_uo0r9</title>
<path fill="none" stroke="#546e7a" d="M444.25,-1049.31C523.89,-1062.23 636.71,-1080.53 712.4,-1092.81"/>
<polygon fill="#546e7a" stroke="#546e7a" points="712.3,-1095.28 719.61,-1093.98 713.09,-1090.44 712.3,-1095.28"/>
<text text-anchor="middle" x="576.01" y="-1080.8" font-family="Arial,Helvetica" font-size="9.00" fill="#37474f">namePublishedIn</text>
</g>
<!-- lit_httpswwwtropicosorgname35121477_scientificNameAuthorship_vnjeq -->
<g id="node14" class="node">
<title>lit_httpswwwtropicosorgname35121477_scientificNameAuthorship_vnjeq</title>
<path fill="#ffffff" stroke="#b0bec5" d="M815.19,-1052C815.19,-1052 774.19,-1052 774.19,-1052 768.19,-1052 762.19,-1046 762.19,-1040 762.19,-1040 762.19,-1028 762.19,-1028 762.19,-1022 768.19,-1016 774.19,-1016 774.19,-1016 815.19,-1016 815.19,-1016 821.19,-1016 827.19,-1022 827.19,-1028 827.19,-1028 827.19,-1040 827.19,-1040 827.19,-1046 821.19,-1052 815.19,-1052"/>
<text text-anchor="start" x="770.19" y="-1031.5" font-family="Arial,Helvetica" font-size="10.00">M. Fleisch.</text>
</g>
<!-- https://www.tropicos.org/name/35121477&#45;&gt;lit_httpswwwtropicosorgname35121477_scientificNameAuthorship_vnjeq -->
<g id="edge13" class="edge">
<title>https://www.tropicos.org/name/35121477&#45;&gt;lit_httpswwwtropicosorgname35121477_scientificNameAuthorship_vnjeq</title>
<path fill="none" stroke="#546e7a" d="M486.03,-1034C578.65,-1034 694.81,-1034 754.42,-1034"/>
<polygon fill="#546e7a" stroke="#546e7a" points="754.75,-1036.45 761.75,-1034 754.75,-1031.55 754.75,-1036.45"/>
<text text-anchor="middle" x="576.01" y="-1036.8" font-family="Arial,Helvetica" font-size="9.00" fill="#37474f">scientificNameAuthorship</text>
</g>
<!-- lit_httpswwwtropicosorgname35121477_nameString_qwys0 -->
<g id="node15" class="node">
<title>lit_httpswwwtropicosorgname35121477_nameString_qwys0</title>
<path fill="#ffffff" stroke="#b0bec5" d="M870.69,-980C870.69,-980 718.69,-980 718.69,-980 712.69,-980 706.69,-974 706.69,-968 706.69,-968 706.69,-956 706.69,-956 706.69,-950 712.69,-944 718.69,-944 718.69,-944 870.69,-944 870.69,-944 876.69,-944 882.69,-950 882.69,-956 882.69,-956 882.69,-968 882.69,-968 882.69,-974 876.69,-980 870.69,-980"/>
<text text-anchor="start" x="714.69" y="-959.5" font-family="Arial,Helvetica" font-size="10.00">Dicranoloma blumei var. papillisetum</text>
</g>
<!-- https://www.tropicos.org/name/35121477&#45;&gt;lit_httpswwwtropicosorgname35121477_nameString_qwys0 -->
<g id="edge14" class="edge">
<title>https://www.tropicos.org/name/35121477&#45;&gt;lit_httpswwwtropicosorgname35121477_nameString_qwys0</title>
<path fill="none" stroke="#546e7a" d="M444.25,-1018.69C519.45,-1006.49 624.24,-989.49 699.41,-977.29"/>
<polygon fill="#546e7a" stroke="#546e7a" points="700.07,-979.67 706.59,-976.13 699.29,-974.83 700.07,-979.67"/>
<text text-anchor="middle" x="576.01" y="-1006.8" font-family="Arial,Helvetica" font-size="9.00" fill="#37474f">nameString</text>
</g>
<!-- lit_httpswwwtropicosorgname35121484_namePublishedIn_6vhra -->
<g id="node16" class="node">
<title>lit_httpswwwtropicosorgname35121484_namePublishedIn_6vhra</title>
<path fill="#ffffff" stroke="#b0bec5" d="M843.69,-908C843.69,-908 745.69,-908 745.69,-908 739.69,-908 733.69,-902 733.69,-896 733.69,-896 733.69,-884 733.69,-884 733.69,-878 739.69,-872 745.69,-872 745.69,-872 843.69,-872 843.69,-872 849.69,-872 855.69,-878 855.69,-884 855.69,-884 855.69,-896 855.69,-896 855.69,-902 849.69,-908 843.69,-908"/>
<text text-anchor="start" x="741.69" y="-887.5" font-family="Arial,Helvetica" font-size="10.00">Hedwigia 61: 288 (1919)</text>
</g>
<!-- https://www.tropicos.org/name/35121484&#45;&gt;lit_httpswwwtropicosorgname35121484_namePublishedIn_6vhra -->
<g id="edge15" class="edge">
<title>https://www.tropicos.org/name/35121484&#45;&gt;lit_httpswwwtropicosorgname35121484_namePublishedIn_6vhra</title>
<path fill="none" stroke="#546e7a" d="M470.84,-863.81C553.06,-870.48 658.77,-879.06 726.4,-884.54"/>
<polygon fill="#546e7a" stroke="#546e7a" points="726.46,-887 733.64,-885.13 726.86,-882.12 726.46,-887"/>
<text text-anchor="middle" x="576.01" y="-878.8" font-family="Arial,Helvetica" font-size="9.00" fill="#37474f">namePublishedIn</text>
</g>
<!-- lit_httpswwwtropicosorgname35121484_scientificNameAuthorship_gyjq2 -->
<g id="node17" class="node">
<title>lit_httpswwwtropicosorgname35121484_scientificNameAuthorship_gyjq2</title>
<path fill="#ffffff" stroke="#b0bec5" d="M809.69,-836C809.69,-836 779.69,-836 779.69,-836 773.69,-836 767.69,-830 767.69,-824 767.69,-824 767.69,-812 767.69,-812 767.69,-806 773.69,-800 779.69,-800 779.69,-800 809.69,-800 809.69,-800 815.69,-800 821.69,-806 821.69,-812 821.69,-812 821.69,-824 821.69,-824 821.69,-830 815.69,-836 809.69,-836"/>
<text text-anchor="start" x="775.69" y="-815.5" font-family="Arial,Helvetica" font-size="10.00">Herzog</text>
</g>
<!-- https://www.tropicos.org/name/35121484&#45;&gt;lit_httpswwwtropicosorgname35121484_scientificNameAuthorship_gyjq2 -->
<g id="edge16" class="edge">
<title>https://www.tropicos.org/name/35121484&#45;&gt;lit_httpswwwtropicosorgname35121484_scientificNameAuthorship_gyjq2</title>
<path fill="none" stroke="#546e7a" d="M470.84,-844.19C568.76,-836.24 700,-825.6 760.54,-820.69"/>
<polygon fill="#546e7a" stroke="#546e7a" points="760.79,-823.13 767.57,-820.12 760.39,-818.24 760.79,-823.13"/>
<text text-anchor="middle" x="576.01" y="-841.8" font-family="Arial,Helvetica" font-size="9.00" fill="#37474f">scientificNameAuthorship</text>
</g>
<!-- lit_httpswwwtropicosorgname35121484_nameString_mzawm -->
<g id="node18" class="node">
<title>lit_httpswwwtropicosorgname35121484_nameString_mzawm</title>
<path fill="#ffffff" stroke="#b0bec5" d="M852.69,-764C852.69,-764 736.69,-764 736.69,-764 730.69,-764 724.69,-758 724.69,-752 724.69,-752 724.69,-740 724.69,-740 724.69,-734 730.69,-728 736.69,-728 736.69,-728 852.69,-728 852.69,-728 858.69,-728 864.69,-734 864.69,-740 864.69,-740 864.69,-752 864.69,-752 864.69,-758 858.69,-764 852.69,-764"/>
<text text-anchor="start" x="732.69" y="-743.5" font-family="Arial,Helvetica" font-size="10.00">Dicranoloma braunfelsioides</text>
</g>
<!-- https://www.tropicos.org/name/35121484&#45;&gt;lit_httpswwwtropicosorgname35121484_nameString_mzawm -->
<g id="edge17" class="edge">
<title>https://www.tropicos.org/name/35121484&#45;&gt;lit_httpswwwtropicosorgname35121484_nameString_mzawm</title>
<path fill="none" stroke="#546e7a" d="M423.14,-836.17C504.57,-816.35 635.4,-784.52 717.84,-764.46"/>
<polygon fill="#546e7a" stroke="#546e7a" points="718.46,-766.83 724.68,-762.79 717.3,-762.07 718.46,-766.83"/>
<text text-anchor="middle" x="576.01" y="-811.8" font-family="Arial,Helvetica" font-size="9.00" fill="#37474f">nameString</text>
</g>
<!-- lit_httpswwwtropicosorgname35188177_namePublishedIn_ldccm -->
<g id="node29" class="node">
<title>lit_httpswwwtropicosorgname35188177_namePublishedIn_ldccm</title>
<path fill="#ffffff" stroke="#b0bec5" d="M833.19,-692C833.19,-692 756.19,-692 756.19,-692 750.19,-692 744.19,-686 744.19,-680 744.19,-680 744.19,-668 744.19,-668 744.19,-662 750.19,-656 756.19,-656 756.19,-656 833.19,-656 833.19,-656 839.19,-656 845.19,-662 845.19,-668 845.19,-668 845.19,-680 845.19,-680 845.19,-686 839.19,-692 833.19,-692"/>
<text text-anchor="start" x="752.19" y="-671.5" font-family="Arial,Helvetica" font-size="10.00">J. Bot. 80: 4 (1942)</text>
</g>
<!-- https://www.tropicos.org/name/35188177&#45;&gt;lit_httpswwwtropicosorgname35188177_namePublishedIn_ldccm -->
<g id="edge28" class="edge">
<title>https://www.tropicos.org/name/35188177&#45;&gt;lit_httpswwwtropicosorgname35188177_namePublishedIn_ldccm</title>
<path fill="none" stroke="#546e7a" d="M470.84,-647.81C557.52,-654.84 670.31,-663.99 737.05,-669.41"/>
<polygon fill="#546e7a" stroke="#546e7a" points="736.99,-671.86 744.16,-669.98 737.38,-666.97 736.99,-671.86"/>
<text text-anchor="middle" x="576.01" y="-662.8" font-family="Arial,Helvetica" font-size="9.00" fill="#37474f">namePublishedIn</text>
</g>
<!-- lit_httpswwwtropicosorgname35188177_scientificNameAuthorship_eay29 -->
<g id="node30" class="node">
<title>lit_httpswwwtropicosorgname35188177_scientificNameAuthorship_eay29</title>
<path fill="#ffffff" stroke="#b0bec5" d="M809.69,-620C809.69,-620 779.69,-620 779.69,-620 773.69,-620 767.69,-614 767.69,-608 767.69,-608 767.69,-596 767.69,-596 767.69,-590 773.69,-584 779.69,-584 779.69,-584 809.69,-584 809.69,-584 815.69,-584 821.69,-590 821.69,-596 821.69,-596 821.69,-608 821.69,-608 821.69,-614 815.69,-620 809.69,-620"/>
<text text-anchor="start" x="775.69" y="-599.5" font-family="Arial,Helvetica" font-size="10.00">Dixon</text>
</g>
<!-- https://www.tropicos.org/name/35188177&#45;&gt;lit_httpswwwtropicosorgname35188177_scientificNameAuthorship_eay29 -->
<g id="edge29" class="edge">
<title>https://www.tropicos.org/name/35188177&#45;&gt;lit_httpswwwtropicosorgname35188177_scientificNameAuthorship_eay29</title>
<path fill="none" stroke="#546e7a" d="M470.84,-628.19C568.76,-620.24 700,-609.6 760.54,-604.69"/>
<polygon fill="#546e7a" stroke="#546e7a" points="760.79,-607.13 767.57,-604.12 760.39,-602.24 760.79,-607.13"/>
<text text-anchor="middle" x="576.01" y="-625.8" font-family="Arial,Helvetica" font-size="9.00" fill="#37474f">scientificNameAuthorship</text>
</g>
<!-- lit_httpswwwtropicosorgname35188177_nameString_se3df -->
<g id="node31" class="node">
<title>lit_httpswwwtropicosorgname35188177_nameString_se3df</title>
<path fill="#ffffff" stroke="#b0bec5" d="M866.69,-548C866.69,-548 722.69,-548 722.69,-548 716.69,-548 710.69,-542 710.69,-536 710.69,-536 710.69,-524 710.69,-524 710.69,-518 716.69,-512 722.69,-512 722.69,-512 866.69,-512 866.69,-512 872.69,-512 878.69,-518 878.69,-524 878.69,-524 878.69,-536 878.69,-536 878.69,-542 872.69,-548 866.69,-548"/>
<text text-anchor="start" x="718.69" y="-527.5" font-family="Arial,Helvetica" font-size="10.00">Dicranoloma blumei f. subintegrum</text>
</g>
<!-- https://www.tropicos.org/name/35188177&#45;&gt;lit_httpswwwtropicosorgname35188177_nameString_se3df -->
<g id="edge30" class="edge">
<title>https://www.tropicos.org/name/35188177&#45;&gt;lit_httpswwwtropicosorgname35188177_nameString_se3df</title>
<path fill="none" stroke="#546e7a" d="M423.14,-620.17C502.89,-600.76 630.03,-569.82 712.69,-549.71"/>
<polygon fill="#546e7a" stroke="#546e7a" points="713.33,-552.08 719.55,-548.04 712.17,-547.32 713.33,-552.08"/>
<text text-anchor="middle" x="576.01" y="-595.8" font-family="Arial,Helvetica" font-size="9.00" fill="#37474f">nameString</text>
</g>
<!-- lit_httpswwwtropicosorgname35121475_namePublishedIn_h4cnj -->
<g id="node9" class="node">
<title>lit_httpswwwtropicosorgname35121475_namePublishedIn_h4cnj</title>
<path fill="#ffffff" stroke="#b0bec5" d="M850.69,-404C850.69,-404 738.69,-404 738.69,-404 732.69,-404 726.69,-398 726.69,-392 726.69,-392 726.69,-380 726.69,-380 726.69,-374 732.69,-368 738.69,-368 738.69,-368 850.69,-368 850.69,-368 856.69,-368 862.69,-374 862.69,-380 862.69,-380 862.69,-392 862.69,-392 862.69,-398 856.69,-404 850.69,-404"/>
<text text-anchor="start" x="734.69" y="-383.5" font-family="Arial,Helvetica" font-size="10.00">Rev. Bryol. 28(4): 69 (1901)</text>
</g>
<!-- https://www.tropicos.org/name/35121475&#45;&gt;lit_httpswwwtropicosorgname35121475_namePublishedIn_h4cnj -->
<g id="edge8" class="edge">
<title>https://www.tropicos.org/name/35121475&#45;&gt;lit_httpswwwtropicosorgname35121475_namePublishedIn_h4cnj</title>
<path fill="none" stroke="#546e7a" d="M486.03,-386C562.83,-386 655.82,-386 719.33,-386"/>
<polygon fill="#546e7a" stroke="#546e7a" points="719.54,-388.45 726.54,-386 719.54,-383.55 719.54,-388.45"/>
<text text-anchor="middle" x="576.01" y="-388.8" font-family="Arial,Helvetica" font-size="9.00" fill="#37474f">namePublishedIn</text>
</g>
<!-- lit_httpswwwtropicosorgname35121475_scientificNameAuthorship_z6d6j -->
<g id="node10" class="node">
<title>lit_httpswwwtropicosorgname35121475_scientificNameAuthorship_z6d6j</title>
<path fill="#ffffff" stroke="#b0bec5" d="M825.19,-332C825.19,-332 764.19,-332 764.19,-332 758.19,-332 752.19,-326 752.19,-320 752.19,-320 752.19,-308 752.19,-308 752.19,-302 758.19,-296 764.19,-296 764.19,-296 825.19,-296 825.19,-296 831.19,-296 837.19,-302 837.19,-308 837.19,-308 837.19,-320 837.19,-320 837.19,-326 831.19,-332 825.19,-332"/>
<text text-anchor="start" x="760.19" y="-311.5" font-family="Arial,Helvetica" font-size="10.00">(Nees) Renauld</text>
</g>
<!-- https://www.tropicos.org/name/35121475&#45;&gt;lit_httpswwwtropicosorgname35121475_scientificNameAuthorship_z6d6j -->
<g id="edge9" class="edge">
<title>https://www.tropicos.org/name/35121475&#45;&gt;lit_httpswwwtropicosorgname35121475_scientificNameAuthorship_z6d6j</title>
<path fill="none" stroke="#546e7a" d="M444.25,-370.69C536.28,-355.76 672.61,-333.64 744.76,-321.94"/>
<polygon fill="#546e7a" stroke="#546e7a" points="745.45,-324.31 751.97,-320.77 744.66,-319.47 745.45,-324.31"/>
<text text-anchor="middle" x="576.01" y="-358.8" font-family="Arial,Helvetica" font-size="9.00" fill="#37474f">scientificNameAuthorship</text>
</g>
<!-- https://www.tropicos.org/name/35121972 -->
<g id="node11" class="node">
<title>https://www.tropicos.org/name/35121972</title>
<ellipse fill="#ffcdd2" stroke="#b71c1c" cx="794.69" cy="-238" rx="137.36" ry="21.43"/>
<text text-anchor="middle" x="794.69" y="-241" font-family="Arial,Helvetica" font-size="10.00">TaxonName</text>
<text text-anchor="middle" x="794.69" y="-230" font-family="Arial,Helvetica" font-size="10.00">https://www.tropicos.org/name/35121972</text>
</g>
<!-- https://www.tropicos.org/name/35121475&#45;&gt;https://www.tropicos.org/name/35121972 -->
<g id="edge10" class="edge">
<title>https://www.tropicos.org/name/35121475&#45;&gt;https://www.tropicos.org/name/35121972</title>
<path fill="none" stroke="#546e7a" d="M401.73,-366.33C436.15,-353.41 482.4,-336.32 523.51,-322 582.71,-301.38 597.66,-296.61 657.51,-278 678.34,-271.52 701.04,-264.75 721.83,-258.65"/>
<polygon fill="#546e7a" stroke="#546e7a" points="722.77,-260.93 728.8,-256.61 721.39,-256.22 722.77,-260.93"/>
<text text-anchor="middle" x="576.01" y="-324.8" font-family="Arial,Helvetica" font-size="9.00" fill="#37474f">basionym</text>
</g>
<!-- lit_httpswwwtropicosorgname35121475_nameString_pw5ui -->
<g id="node12" class="node">
<title>lit_httpswwwtropicosorgname35121475_nameString_pw5ui</title>
<path fill="#ffffff" stroke="#b0bec5" d="M834.19,-476C834.19,-476 755.19,-476 755.19,-476 749.19,-476 743.19,-470 743.19,-464 743.19,-464 743.19,-452 743.19,-452 743.19,-446 749.19,-440 755.19,-440 755.19,-440 834.19,-440 834.19,-440 840.19,-440 846.19,-446 846.19,-452 846.19,-452 846.19,-464 846.19,-464 846.19,-470 840.19,-476 834.19,-476"/>
<text text-anchor="start" x="751.19" y="-455.5" font-family="Arial,Helvetica" font-size="10.00">Dicranoloma blumei</text>
</g>
<!-- https://www.tropicos.org/name/35121475&#45;&gt;lit_httpswwwtropicosorgname35121475_nameString_pw5ui -->
<g id="edge11" class="edge">
<title>https://www.tropicos.org/name/35121475&#45;&gt;lit_httpswwwtropicosorgname35121475_nameString_pw5ui</title>
<path fill="none" stroke="#546e7a" d="M444.25,-401.31C532.65,-415.65 661.9,-436.62 735.92,-448.63"/>
<polygon fill="#546e7a" stroke="#546e7a" points="735.6,-451.06 742.9,-449.76 736.39,-446.22 735.6,-451.06"/>
<text text-anchor="middle" x="576.01" y="-432.8" font-family="Arial,Helvetica" font-size="9.00" fill="#37474f">nameString</text>
</g>
<!-- lit_httpswwwtropicosorgname35121972_namePublishedIn_5mf09 -->
<g id="node19" class="node">
<title>lit_httpswwwtropicosorgname35121972_namePublishedIn_5mf09</title>
<path fill="#ffffff" stroke="#b0bec5" d="M1271.87,-328C1271.87,-328 1106.87,-328 1106.87,-328 1100.87,-328 1094.87,-322 1094.87,-316 1094.87,-316 1094.87,-304 1094.87,-304 1094.87,-298 1100.87,-292 1106.87,-292 1106.87,-292 1271.87,-292 1271.87,-292 1277.87,-292 1283.87,-298 1283.87,-304 1283.87,-304 1283.87,-316 1283.87,-316 1283.87,-322 1277.87,-328 1271.87,-328"/>
<text text-anchor="start" x="1102.87" y="-313" font-family="Arial,Helvetica" font-size="10.00">Nova Acta Phys.&#45;Med. Acad. Caes.</text>
<text text-anchor="start" x="1102.87" y="-302" font-family="Arial,Helvetica" font-size="10.00">Leop.&#45;Carol. Nat. Cur. 11(1): 131 (1823)</text>
</g>
<!-- https://www.tropicos.org/name/35121972&#45;&gt;lit_httpswwwtropicosorgname35121972_namePublishedIn_5mf09 -->
<g id="edge18" class="edge">
<title>https://www.tropicos.org/name/35121972&#45;&gt;lit_httpswwwtropicosorgname35121972_namePublishedIn_5mf09</title>
<path fill="none" stroke="#546e7a" d="M883.82,-254.16C944.24,-265.24 1024.54,-279.96 1087.52,-291.51"/>
<polygon fill="#546e7a" stroke="#546e7a" points="1087.39,-293.98 1094.72,-292.83 1088.28,-289.16 1087.39,-293.98"/>
<text text-anchor="middle" x="1013.37" y="-288.8" font-family="Arial,Helvetica" font-size="9.00" fill="#37474f">namePublishedIn</text>
</g>
<!-- lit_httpswwwtropicosorgname35121972_scientificNameAuthorship_nvu4o -->
<g id="node20" class="node">
<title>lit_httpswwwtropicosorgname35121972_scientificNameAuthorship_nvu4o</title>
<path fill="#ffffff" stroke="#b0bec5" d="M1204.37,-256C1204.37,-256 1174.37,-256 1174.37,-256 1168.37,-256 1162.37,-250 1162.37,-244 1162.37,-244 1162.37,-232 1162.37,-232 1162.37,-226 1168.37,-220 1174.37,-220 1174.37,-220 1204.37,-220 1204.37,-220 1210.37,-220 1216.37,-226 1216.37,-232 1216.37,-232 1216.37,-244 1216.37,-244 1216.37,-250 1210.37,-256 1204.37,-256"/>
<text text-anchor="start" x="1170.37" y="-235.5" font-family="Arial,Helvetica" font-size="10.00">Nees</text>
</g>
<!-- https://www.tropicos.org/name/35121972&#45;&gt;lit_httpswwwtropicosorgname35121972_scientificNameAuthorship_nvu4o -->
<g id="edge19" class="edge">
<title>https://www.tropicos.org/name/35121972&#45;&gt;lit_httpswwwtropicosorgname35121972_scientificNameAuthorship_nvu4o</title>
<path fill="none" stroke="#546e7a" d="M931.93,-238C1011.57,-238 1105.82,-238 1154.89,-238"/>
<polygon fill="#546e7a" stroke="#546e7a" points="1155.08,-240.45 1162.08,-238 1155.08,-235.55 1155.08,-240.45"/>
<text text-anchor="middle" x="1013.37" y="-240.8" font-family="Arial,Helvetica" font-size="9.00" fill="#37474f">scientificNameAuthorship</text>
</g>
<!-- lit_httpswwwtropicosorgname35121972_nameString_bmdcf -->
<g id="node21" class="node">
<title>lit_httpswwwtropicosorgname35121972_nameString_bmdcf</title>
<path fill="#ffffff" stroke="#b0bec5" d="M1222.37,-184C1222.37,-184 1156.37,-184 1156.37,-184 1150.37,-184 1144.37,-178 1144.37,-172 1144.37,-172 1144.37,-160 1144.37,-160 1144.37,-154 1150.37,-148 1156.37,-148 1156.37,-148 1222.37,-148 1222.37,-148 1228.37,-148 1234.37,-154 1234.37,-160 1234.37,-160 1234.37,-172 1234.37,-172 1234.37,-178 1228.37,-184 1222.37,-184"/>
<text text-anchor="start" x="1152.37" y="-163.5" font-family="Arial,Helvetica" font-size="10.00">Dicranum blumei</text>
</g>
<!-- https://www.tropicos.org/name/35121972&#45;&gt;lit_httpswwwtropicosorgname35121972_nameString_bmdcf -->
<g id="edge20" class="edge">
<title>https://www.tropicos.org/name/35121972&#45;&gt;lit_httpswwwtropicosorgname35121972_nameString_bmdcf</title>
<path fill="none" stroke="#546e7a" d="M883.82,-221.84C961.77,-207.55 1072.81,-187.19 1137.04,-175.41"/>
<polygon fill="#546e7a" stroke="#546e7a" points="1137.82,-177.76 1144.26,-174.09 1136.93,-172.94 1137.82,-177.76"/>
<text text-anchor="middle" x="1013.37" y="-209.8" font-family="Arial,Helvetica" font-size="9.00" fill="#37474f">nameString</text>
</g>
<!-- https://www.tropicos.org/name/35154856 -->
<g id="node25" class="node">
<title>https://www.tropicos.org/name/35154856</title>
<ellipse fill="#ffcdd2" stroke="#b71c1c" cx="348.85" cy="-126" rx="137.36" ry="21.43"/>
<text text-anchor="middle" x="348.85" y="-129" font-family="Arial,Helvetica" font-size="10.00">TaxonName</text>
<text text-anchor="middle" x="348.85" y="-118" font-family="Arial,Helvetica" font-size="10.00">https://www.tropicos.org/name/35154856</text>
</g>
<!-- https://www.tropicos.org/name/35154856&#45;&gt;https://www.tropicos.org/name/35121972 -->
<g id="edge26" class="edge">
<title>https://www.tropicos.org/name/35154856&#45;&gt;https://www.tropicos.org/name/35121972</title>
<path fill="none" stroke="#546e7a" d="M421.65,-144.12C502.08,-164.41 632.01,-197.2 715.1,-218.17"/>
<polygon fill="#546e7a" stroke="#546e7a" points="714.6,-220.57 721.99,-219.91 715.8,-215.82 714.6,-220.57"/>
<text text-anchor="middle" x="576.01" y="-198.8" font-family="Arial,Helvetica" font-size="9.00" fill="#37474f">basionym</text>
</g>
<!-- lit_httpswwwtropicosorgname35154856_namePublishedIn_plioi -->
<g id="node26" class="node">
<title>lit_httpswwwtropicosorgname35154856_namePublishedIn_plioi</title>
<path fill="#ffffff" stroke="#b0bec5" d="M865.19,-180C865.19,-180 724.19,-180 724.19,-180 718.19,-180 712.19,-174 712.19,-168 712.19,-168 712.19,-156 712.19,-156 712.19,-150 718.19,-144 724.19,-144 724.19,-144 865.19,-144 865.19,-144 871.19,-144 877.19,-150 877.19,-156 877.19,-156 877.19,-168 877.19,-168 877.19,-174 871.19,-180 865.19,-180"/>
<text text-anchor="start" x="720.19" y="-159.5" font-family="Arial,Helvetica" font-size="10.00">Nat. Pflanzenfam. I(3): 322 (1901)</text>
</g>
<!-- https://www.tropicos.org/name/35154856&#45;&gt;lit_httpswwwtropicosorgname35154856_namePublishedIn_plioi -->
<g id="edge24" class="edge">
<title>https://www.tropicos.org/name/35154856&#45;&gt;lit_httpswwwtropicosorgname35154856_namePublishedIn_plioi</title>
<path fill="none" stroke="#546e7a" d="M470.84,-135.81C544.77,-141.81 637.68,-149.35 704.83,-154.79"/>
<polygon fill="#546e7a" stroke="#546e7a" points="704.89,-157.26 712.06,-155.38 705.29,-152.37 704.89,-157.26"/>
<text text-anchor="middle" x="576.01" y="-151.8" font-family="Arial,Helvetica" font-size="9.00" fill="#37474f">namePublishedIn</text>
</g>
<!-- lit_httpswwwtropicosorgname35154856_scientificNameAuthorship_ljm6l -->
<g id="node27" class="node">
<title>lit_httpswwwtropicosorgname35154856_scientificNameAuthorship_ljm6l</title>
<path fill="#ffffff" stroke="#b0bec5" d="M820.19,-108C820.19,-108 769.19,-108 769.19,-108 763.19,-108 757.19,-102 757.19,-96 757.19,-96 757.19,-84 757.19,-84 757.19,-78 763.19,-72 769.19,-72 769.19,-72 820.19,-72 820.19,-72 826.19,-72 832.19,-78 832.19,-84 832.19,-84 832.19,-96 832.19,-96 832.19,-102 826.19,-108 820.19,-108"/>
<text text-anchor="start" x="765.19" y="-87.5" font-family="Arial,Helvetica" font-size="10.00">(Nees) Broth.</text>
</g>
<!-- https://www.tropicos.org/name/35154856&#45;&gt;lit_httpswwwtropicosorgname35154856_scientificNameAuthorship_ljm6l -->
<g id="edge25" class="edge">
<title>https://www.tropicos.org/name/35154856&#45;&gt;lit_httpswwwtropicosorgname35154856_scientificNameAuthorship_ljm6l</title>
<path fill="none" stroke="#546e7a" d="M470.84,-116.19C563.28,-108.69 685.4,-98.78 749.72,-93.57"/>
<polygon fill="#546e7a" stroke="#546e7a" points="750.12,-95.99 756.9,-92.98 749.72,-91.11 750.12,-95.99"/>
<text text-anchor="middle" x="576.01" y="-114.8" font-family="Arial,Helvetica" font-size="9.00" fill="#37474f">scientificNameAuthorship</text>
</g>
<!-- lit_httpswwwtropicosorgname35154856_nameString_f3srl -->
<g id="node28" class="node">
<title>lit_httpswwwtropicosorgname35154856_nameString_f3srl</title>
<path fill="#ffffff" stroke="#b0bec5" d="M830.19,-36C830.19,-36 759.19,-36 759.19,-36 753.19,-36 747.19,-30 747.19,-24 747.19,-24 747.19,-12 747.19,-12 747.19,-6 753.19,0 759.19,0 759.19,0 830.19,0 830.19,0 836.19,0 842.19,-6 842.19,-12 842.19,-12 842.19,-24 842.19,-24 842.19,-30 836.19,-36 830.19,-36"/>
<text text-anchor="start" x="755.19" y="-15.5" font-family="Arial,Helvetica" font-size="10.00">Leucoloma blumei</text>
</g>
<!-- https://www.tropicos.org/name/35154856&#45;&gt;lit_httpswwwtropicosorgname35154856_nameString_f3srl -->
<g id="edge27" class="edge">
<title>https://www.tropicos.org/name/35154856&#45;&gt;lit_httpswwwtropicosorgname35154856_nameString_f3srl</title>
<path fill="none" stroke="#546e7a" d="M423.14,-108.17C512.29,-86.47 660.66,-50.37 739.91,-31.09"/>
<polygon fill="#546e7a" stroke="#546e7a" points="740.67,-33.42 746.9,-29.39 739.51,-28.66 740.67,-33.42"/>
<text text-anchor="middle" x="576.01" y="-84.8" font-family="Arial,Helvetica" font-size="9.00" fill="#37474f">nameString</text>
</g>
</g>
</svg>
