<?xml version="1.0" encoding="UTF-8" standalone="no"?>
<!DOCTYPE svg PUBLIC "-//W3C//DTD SVG 1.1//EN"
 "http://www.w3.org/Graphics/SVG/1.1/DTD/svg11.dtd">
<!-- Generated by graphviz version 2.43.0 (0)
 -->
<!-- Title: Taxonomic_Data_Graph Pages: 1 -->
<svg width="100%" height="100%"
 viewBox="0.00 0.00 3253.94 994.21" xmlns="http://www.w3.org/2000/svg" xmlns:xlink="http://www.w3.org/1999/xlink">
<g id="graph0" class="graph" transform="scale(1 1) rotate(0) translate(4 990.21)">
<title>Taxonomic_Data_Graph</title>
<polygon fill="white" stroke="transparent" points="-4,4 -4,-990.21 3249.94,-990.21 3249.94,4 -4,4"/>
<!-- b0 -->
<g id="node1" class="node">
<title>b0</title>
<ellipse fill="#c5cae9" stroke="#1a237e" cx="754.76" cy="-855.21" rx="42.27" ry="18"/>
<text text-anchor="middle" x="754.76" y="-852.71" font-family="Arial,Helvetica" font-size="10.00">Identification</text>
</g>
<!-- lit_b0_date_0 -->
<g id="node2" class="node">
<title>lit_b0_date_0</title>
<path fill="#ffffff" stroke="#b0bec5" d="M1451.2,-986.21C1451.2,-986.21 1421.2,-986.21 1421.2,-986.21 1415.2,-986.21 1409.2,-980.21 1409.2,-974.21 1409.2,-974.21 1409.2,-962.21 1409.2,-962.21 1409.2,-956.21 1415.2,-950.21 1421.2,-950.21 1421.2,-950.21 1451.2,-950.21 1451.2,-950.21 1457.2,-950.21 1463.2,-956.21 1463.2,-962.21 1463.2,-962.21 1463.2,-974.21 1463.2,-974.21 1463.2,-980.21 1457.2,-986.21 1451.2,-986.21"/>
<text text-anchor="start" x="1417.2" y="-965.71" font-family="Arial,Helvetica" font-size="10.00">1984</text>
</g>
<!-- b0&#45;&gt;lit_b0_date_0 -->
<g id="edge1" class="edge">
<title>b0&#45;&gt;lit_b0_date_0</title>
<path fill="none" stroke="#546e7a" d="M791.49,-864.31C848.56,-878.57 963.96,-906.3 1063.07,-923.21 1187.22,-944.4 1336.35,-959.27 1401.73,-965.27"/>
<polygon fill="#546e7a" stroke="#546e7a" points="1401.71,-967.73 1408.91,-965.92 1402.16,-962.85 1401.71,-967.73"/>
<text text-anchor="middle" x="1094.07" y="-935.01" font-family="Arial,Helvetica" font-size="9.00" fill="#37474f">date</text>
</g>
<!-- https://www.wikidata.org/wiki/Q18982613 -->
<g id="node3" class="node">
<title>https://www.wikidata.org/wiki/Q18982613</title>
<ellipse fill="#b2dfdb" stroke="#004d40" cx="2789.64" cy="-894.21" rx="139.1" ry="21.43"/>
<text text-anchor="middle" x="2789.64" y="-897.21" font-family="Arial,Helvetica" font-size="10.00">Person</text>
<text text-anchor="middle" x="2789.64" y="-886.21" font-family="Arial,Helvetica" font-size="10.00">https://www.wikidata.org/wiki/Q18982613</text>
</g>
<!-- b0&#45;&gt;https://www.wikidata.org/wiki/Q18982613 -->
<g id="edge2" class="edge">
<title>b0&#45;&gt;https://www.wikidata.org/wiki/Q18982613</title>
<path fill="none" stroke="#546e7a" d="M796.3,-859.27C901.58,-869.44 1192.38,-895.21 1435.2,-895.21 1435.2,-895.21 1435.2,-895.21 2371.34,-895.21 2461.53,-895.21 2562.69,-894.98 2642.82,-894.73"/>
<polygon fill="#546e7a" stroke="#546e7a" points="2643.02,-897.18 2650.01,-894.71 2643.01,-892.28 2643.02,-897.18"/>
<text text-anchor="middle" x="1959.34" y="-898.01" font-family="Arial,Helvetica" font-size="9.00" fill="#37474f">identifiedBy</text>
</g>
<!-- b1 -->
<g id="node4" class="node">
<title>b1</title>
<ellipse fill="#eceff1" stroke="#78909c" cx="1436.2" cy="-788.21" rx="37.85" ry="18"/>
<text text-anchor="middle" x="1436.2" y="-785.71" font-family="Arial,Helvetica" font-size="10.00">ValueNode</text>
</g>
<!-- b0&#45;&gt;b1 -->
<g id="edge3" class="edge">
<title>b0&#45;&gt;b1</title>
<path fill="none" stroke="#546e7a" d="M796.23,-851.22C916.11,-839.4 1268.72,-804.63 1392.03,-792.47"/>
<polygon fill="#546e7a" stroke="#546e7a" points="1392.4,-794.9 1399.12,-791.77 1391.92,-790.02 1392.4,-794.9"/>
<text text-anchor="middle" x="1094.07" y="-826.01" font-family="Arial,Helvetica" font-size="9.00" fill="#37474f">toTaxon</text>
</g>
<!-- lit_httpswwwwikidataorgwikiQ18982613_comment_21 -->
<g id="node35" class="node">
<title>lit_httpswwwwikidataorgwikiQ18982613_comment_21</title>
<path fill="#ffffff" stroke="#b0bec5" d="M3233.94,-984.21C3233.94,-984.21 3047.94,-984.21 3047.94,-984.21 3041.94,-984.21 3035.94,-978.21 3035.94,-972.21 3035.94,-972.21 3035.94,-960.21 3035.94,-960.21 3035.94,-954.21 3041.94,-948.21 3047.94,-948.21 3047.94,-948.21 3233.94,-948.21 3233.94,-948.21 3239.94,-948.21 3245.94,-954.21 3245.94,-960.21 3245.94,-960.21 3245.94,-972.21 3245.94,-972.21 3245.94,-978.21 3239.94,-984.21 3233.94,-984.21"/>
<text text-anchor="start" x="3043.94" y="-969.21" font-family="Arial,Helvetica" font-size="10.00">One of the most experienced salicologists in</text>
<text text-anchor="start" x="3043.94" y="-958.21" font-family="Arial,Helvetica" font-size="10.00">US history</text>
</g>
<!-- https://www.wikidata.org/wiki/Q18982613&#45;&gt;lit_httpswwwwikidataorgwikiQ18982613_comment_21 -->
<g id="edge36" class="edge">
<title>https://www.wikidata.org/wiki/Q18982613&#45;&gt;lit_httpswwwwikidataorgwikiQ18982613_comment_21</title>
<path fill="none" stroke="#546e7a" d="M2873.42,-911.28C2925.07,-921.92 2991.7,-935.66 3045.42,-946.73"/>
<polygon fill="#546e7a" stroke="#546e7a" points="3045.22,-949.19 3052.57,-948.2 3046.21,-944.39 3045.22,-949.19"/>
<text text-anchor="middle" x="2982.44" y="-941.01" font-family="Arial,Helvetica" font-size="9.00" fill="#37474f">comment</text>
</g>
<!-- lit_httpswwwwikidataorgwikiQ18982613_familyName_22 -->
<g id="node36" class="node">
<title>lit_httpswwwwikidataorgwikiQ18982613_familyName_22</title>
<path fill="#ffffff" stroke="#b0bec5" d="M3155.94,-912.21C3155.94,-912.21 3125.94,-912.21 3125.94,-912.21 3119.94,-912.21 3113.94,-906.21 3113.94,-900.21 3113.94,-900.21 3113.94,-888.21 3113.94,-888.21 3113.94,-882.21 3119.94,-876.21 3125.94,-876.21 3125.94,-876.21 3155.94,-876.21 3155.94,-876.21 3161.94,-876.21 3167.94,-882.21 3167.94,-888.21 3167.94,-888.21 3167.94,-900.21 3167.94,-900.21 3167.94,-906.21 3161.94,-912.21 3155.94,-912.21"/>
<text text-anchor="start" x="3121.94" y="-891.71" font-family="Arial,Helvetica" font-size="10.00">Argus</text>
</g>
<!-- https://www.wikidata.org/wiki/Q18982613&#45;&gt;lit_httpswwwwikidataorgwikiQ18982613_familyName_22 -->
<g id="edge37" class="edge">
<title>https://www.wikidata.org/wiki/Q18982613&#45;&gt;lit_httpswwwwikidataorgwikiQ18982613_familyName_22</title>
<path fill="none" stroke="#546e7a" d="M2928.94,-894.21C2993.85,-894.21 3065.76,-894.21 3106.64,-894.21"/>
<polygon fill="#546e7a" stroke="#546e7a" points="3106.66,-896.66 3113.66,-894.21 3106.66,-891.76 3106.66,-896.66"/>
<text text-anchor="middle" x="2982.44" y="-897.01" font-family="Arial,Helvetica" font-size="9.00" fill="#37474f">familyName</text>
</g>
<!-- lit_httpswwwwikidataorgwikiQ18982613_givenName_23 -->
<g id="node37" class="node">
<title>lit_httpswwwwikidataorgwikiQ18982613_givenName_23</title>
<path fill="#ffffff" stroke="#b0bec5" d="M3155.94,-840.21C3155.94,-840.21 3125.94,-840.21 3125.94,-840.21 3119.94,-840.21 3113.94,-834.21 3113.94,-828.21 3113.94,-828.21 3113.94,-816.21 3113.94,-816.21 3113.94,-810.21 3119.94,-804.21 3125.94,-804.21 3125.94,-804.21 3155.94,-804.21 3155.94,-804.21 3161.94,-804.21 3167.94,-810.21 3167.94,-816.21 3167.94,-816.21 3167.94,-828.21 3167.94,-828.21 3167.94,-834.21 3161.94,-840.21 3155.94,-840.21"/>
<text text-anchor="start" x="3121.94" y="-819.71" font-family="Arial,Helvetica" font-size="10.00">George</text>
</g>
<!-- https://www.wikidata.org/wiki/Q18982613&#45;&gt;lit_httpswwwwikidataorgwikiQ18982613_givenName_23 -->
<g id="edge38" class="edge">
<title>https://www.wikidata.org/wiki/Q18982613&#45;&gt;lit_httpswwwwikidataorgwikiQ18982613_givenName_23</title>
<path fill="none" stroke="#546e7a" d="M2873.42,-877.15C2947.79,-861.82 3053.24,-840.08 3106.45,-829.12"/>
<polygon fill="#546e7a" stroke="#546e7a" points="3107.25,-831.45 3113.61,-827.64 3106.26,-826.65 3107.25,-831.45"/>
<text text-anchor="middle" x="2982.44" y="-861.01" font-family="Arial,Helvetica" font-size="9.00" fill="#37474f">givenName</text>
</g>
<!-- b2 -->
<g id="node5" class="node">
<title>b2</title>
<ellipse fill="#c8e6c9" stroke="#1b5e20" cx="1959.34" cy="-788.21" rx="47.19" ry="18"/>
<text text-anchor="middle" x="1959.34" y="-785.71" font-family="Arial,Helvetica" font-size="10.00">TaxonConcept</text>
</g>
<!-- b1&#45;&gt;b2 -->
<g id="edge4" class="edge">
<title>b1&#45;&gt;b2</title>
<path fill="none" stroke="#546e7a" d="M1474.26,-788.21C1565.08,-788.21 1798.98,-788.21 1904.86,-788.21"/>
<polygon fill="#546e7a" stroke="#546e7a" points="1904.95,-790.66 1911.95,-788.21 1904.95,-785.76 1904.95,-790.66"/>
<text text-anchor="middle" x="1783.84" y="-791.01" font-family="Arial,Helvetica" font-size="9.00" fill="#37474f">value</text>
</g>
<!-- lit_b1_comment_1 -->
<g id="node6" class="node">
<title>lit_b1_comment_1</title>
<path fill="#ffffff" stroke="#b0bec5" d="M2057.34,-734.21C2057.34,-734.21 1861.34,-734.21 1861.34,-734.21 1855.34,-734.21 1849.34,-728.21 1849.34,-722.21 1849.34,-722.21 1849.34,-710.21 1849.34,-710.21 1849.34,-704.21 1855.34,-698.21 1861.34,-698.21 1861.34,-698.21 2057.34,-698.21 2057.34,-698.21 2063.34,-698.21 2069.34,-704.21 2069.34,-710.21 2069.34,-710.21 2069.34,-722.21 2069.34,-722.21 2069.34,-728.21 2063.34,-734.21 2057.34,-734.21"/>
<text text-anchor="start" x="1857.34" y="-719.21" font-family="Arial,Helvetica" font-size="10.00">Assumes Argus&#39;s concept did not change from</text>
<text text-anchor="start" x="1857.34" y="-708.21" font-family="Arial,Helvetica" font-size="10.00">1973 to 1984 [CW 2023]</text>
</g>
<!-- b1&#45;&gt;lit_b1_comment_1 -->
<g id="edge5" class="edge">
<title>b1&#45;&gt;lit_b1_comment_1</title>
<path fill="none" stroke="#546e7a" d="M1472.61,-783.32C1547.3,-773 1723.8,-748.62 1842.18,-732.26"/>
<polygon fill="#546e7a" stroke="#546e7a" points="1842.58,-734.68 1849.18,-731.29 1841.91,-729.83 1842.58,-734.68"/>
<text text-anchor="middle" x="1783.84" y="-746.01" font-family="Arial,Helvetica" font-size="9.00" fill="#37474f">comment</text>
</g>
<!-- lit_b2_title_2 -->
<g id="node7" class="node">
<title>lit_b2_title_2</title>
<path fill="#ffffff" stroke="#b0bec5" d="M2445.84,-840.21C2445.84,-840.21 2294.84,-840.21 2294.84,-840.21 2288.84,-840.21 2282.84,-834.21 2282.84,-828.21 2282.84,-828.21 2282.84,-816.21 2282.84,-816.21 2282.84,-810.21 2288.84,-804.21 2294.84,-804.21 2294.84,-804.21 2445.84,-804.21 2445.84,-804.21 2451.84,-804.21 2457.84,-810.21 2457.84,-816.21 2457.84,-816.21 2457.84,-828.21 2457.84,-828.21 2457.84,-834.21 2451.84,-840.21 2445.84,-840.21"/>
<text text-anchor="start" x="2290.84" y="-819.71" font-family="Arial,Helvetica" font-size="10.00">Salix arbusculoides sec. Argus 1973</text>
</g>
<!-- b2&#45;&gt;lit_b2_title_2 -->
<g id="edge6" class="edge">
<title>b2&#45;&gt;lit_b2_title_2</title>
<path fill="none" stroke="#546e7a" d="M2005.67,-791.98C2070.51,-797.37 2191.21,-807.41 2275.71,-814.43"/>
<polygon fill="#546e7a" stroke="#546e7a" points="2275.57,-816.88 2282.75,-815.01 2275.97,-811.99 2275.57,-816.88"/>
<text text-anchor="middle" x="2161.34" y="-812.01" font-family="Arial,Helvetica" font-size="9.00" fill="#37474f">title</text>
</g>
<!-- b3 -->
<g id="node8" class="node">
<title>b3</title>
<ellipse fill="#bbdefb" stroke="#0d47a1" cx="2370.34" cy="-750.21" rx="27" ry="18"/>
<text text-anchor="middle" x="2370.34" y="-747.71" font-family="Arial,Helvetica" font-size="10.00">Book</text>
</g>
<!-- b2&#45;&gt;b3 -->
<g id="edge7" class="edge">
<title>b2&#45;&gt;b3</title>
<path fill="none" stroke="#546e7a" d="M2005.28,-784.04C2088.14,-776.34 2263.17,-760.08 2336.22,-753.29"/>
<polygon fill="#546e7a" stroke="#546e7a" points="2336.64,-755.71 2343.38,-752.62 2336.18,-750.83 2336.64,-755.71"/>
<text text-anchor="middle" x="2161.34" y="-777.01" font-family="Arial,Helvetica" font-size="9.00" fill="#37474f">accordingTo</text>
</g>
<!-- https://ipni.org/n/306317&#45;2 -->
<g id="node9" class="node">
<title>https://ipni.org/n/306317&#45;2</title>
<ellipse fill="#ffcdd2" stroke="#b71c1c" cx="2370.34" cy="-675.21" rx="91.85" ry="21.43"/>
<text text-anchor="middle" x="2370.34" y="-678.21" font-family="Arial,Helvetica" font-size="10.00">TaxonName</text>
<text text-anchor="middle" x="2370.34" y="-667.21" font-family="Arial,Helvetica" font-size="10.00">https://ipni.org/n/306317&#45;2</text>
</g>
<!-- b2&#45;&gt;https://ipni.org/n/306317&#45;2 -->
<g id="edge8" class="edge">
<title>b2&#45;&gt;https://ipni.org/n/306317&#45;2</title>
<path fill="none" stroke="#546e7a" d="M1995.65,-776.68C2023.44,-767.74 2063.22,-755.21 2098.34,-745.21 2166.35,-725.85 2244.61,-705.88 2299.49,-692.25"/>
<polygon fill="#546e7a" stroke="#546e7a" points="2300.2,-694.6 2306.4,-690.54 2299.02,-689.84 2300.2,-694.6"/>
<text text-anchor="middle" x="2161.34" y="-748.01" font-family="Arial,Helvetica" font-size="9.00" fill="#37474f">taxonName</text>
</g>
<!-- b3&#45;&gt;https://www.wikidata.org/wiki/Q18982613 -->
<g id="edge9" class="edge">
<title>b3&#45;&gt;https://www.wikidata.org/wiki/Q18982613</title>
<path fill="none" stroke="#546e7a" d="M2396.37,-755.16C2420.59,-760.59 2457.88,-770.66 2487.34,-786.21 2501.89,-793.89 2501.91,-801.32 2516.34,-809.21 2571.58,-839.43 2590.24,-836.44 2650.34,-855.21 2670.66,-861.56 2692.81,-868.01 2713.3,-873.79"/>
<polygon fill="#546e7a" stroke="#546e7a" points="2712.78,-876.19 2720.18,-875.72 2714.1,-871.47 2712.78,-876.19"/>
<text text-anchor="middle" x="2568.84" y="-848.01" font-family="Arial,Helvetica" font-size="9.00" fill="#37474f">creator</text>
</g>
<!-- lit_b3_date_3 -->
<g id="node10" class="node">
<title>lit_b3_date_3</title>
<path fill="#ffffff" stroke="#b0bec5" d="M2804.64,-837.21C2804.64,-837.21 2774.64,-837.21 2774.64,-837.21 2768.64,-837.21 2762.64,-831.21 2762.64,-825.21 2762.64,-825.21 2762.64,-813.21 2762.64,-813.21 2762.64,-807.21 2768.64,-801.21 2774.64,-801.21 2774.64,-801.21 2804.64,-801.21 2804.64,-801.21 2810.64,-801.21 2816.64,-807.21 2816.64,-813.21 2816.64,-813.21 2816.64,-825.21 2816.64,-825.21 2816.64,-831.21 2810.64,-837.21 2804.64,-837.21"/>
<text text-anchor="start" x="2770.64" y="-816.71" font-family="Arial,Helvetica" font-size="10.00">1984</text>
</g>
<!-- b3&#45;&gt;lit_b3_date_3 -->
<g id="edge10" class="edge">
<title>b3&#45;&gt;lit_b3_date_3</title>
<path fill="none" stroke="#546e7a" d="M2396.81,-754.43C2468.96,-766.35 2674.65,-800.37 2755.46,-813.73"/>
<polygon fill="#546e7a" stroke="#546e7a" points="2755.12,-816.15 2762.43,-814.88 2755.92,-811.32 2755.12,-816.15"/>
<text text-anchor="middle" x="2568.84" y="-793.01" font-family="Arial,Helvetica" font-size="9.00" fill="#37474f">date</text>
</g>
<!-- lit_b3_title_4 -->
<g id="node11" class="node">
<title>lit_b3_title_4</title>
<path fill="#ffffff" stroke="#b0bec5" d="M2876.14,-765.21C2876.14,-765.21 2703.14,-765.21 2703.14,-765.21 2697.14,-765.21 2691.14,-759.21 2691.14,-753.21 2691.14,-753.21 2691.14,-741.21 2691.14,-741.21 2691.14,-735.21 2697.14,-729.21 2703.14,-729.21 2703.14,-729.21 2876.14,-729.21 2876.14,-729.21 2882.14,-729.21 2888.14,-735.21 2888.14,-741.21 2888.14,-741.21 2888.14,-753.21 2888.14,-753.21 2888.14,-759.21 2882.14,-765.21 2876.14,-765.21"/>
<text text-anchor="start" x="2699.14" y="-744.71" font-family="Arial,Helvetica" font-size="10.00">The Genus Salix in Alaska and the Yukon</text>
</g>
<!-- b3&#45;&gt;lit_b3_title_4 -->
<g id="edge11" class="edge">
<title>b3&#45;&gt;lit_b3_title_4</title>
<path fill="none" stroke="#546e7a" d="M2397.44,-750.03C2453.49,-749.62 2588.03,-748.66 2683.64,-747.97"/>
<polygon fill="#546e7a" stroke="#546e7a" points="2683.76,-750.42 2690.74,-747.92 2683.73,-745.52 2683.76,-750.42"/>
<text text-anchor="middle" x="2568.84" y="-751.01" font-family="Arial,Helvetica" font-size="9.00" fill="#37474f">title</text>
</g>
<!-- lit_httpsipniorgn3063172_scientificNameAuthorship_16 -->
<g id="node29" class="node">
<title>lit_httpsipniorgn3063172_scientificNameAuthorship_16</title>
<path fill="#ffffff" stroke="#b0bec5" d="M2809.14,-693.21C2809.14,-693.21 2770.14,-693.21 2770.14,-693.21 2764.14,-693.21 2758.14,-687.21 2758.14,-681.21 2758.14,-681.21 2758.14,-669.21 2758.14,-669.21 2758.14,-663.21 2764.14,-657.21 2770.14,-657.21 2770.14,-657.21 2809.14,-657.21 2809.14,-657.21 2815.14,-657.21 2821.14,-663.21 2821.14,-669.21 2821.14,-669.21 2821.14,-681.21 2821.14,-681.21 2821.14,-687.21 2815.14,-693.21 2809.14,-693.21"/>
<text text-anchor="start" x="2766.14" y="-672.71" font-family="Arial,Helvetica" font-size="10.00">Andersson</text>
</g>
<!-- https://ipni.org/n/306317&#45;2&#45;&gt;lit_httpsipniorgn3063172_scientificNameAuthorship_16 -->
<g id="edge27" class="edge">
<title>https://ipni.org/n/306317&#45;2&#45;&gt;lit_httpsipniorgn3063172_scientificNameAuthorship_16</title>
<path fill="none" stroke="#546e7a" d="M2462.4,-675.21C2552.46,-675.21 2685.91,-675.21 2750.65,-675.21"/>
<polygon fill="#546e7a" stroke="#546e7a" points="2750.83,-677.66 2757.83,-675.21 2750.83,-672.76 2750.83,-677.66"/>
<text text-anchor="middle" x="2568.84" y="-678.01" font-family="Arial,Helvetica" font-size="9.00" fill="#37474f">scientificNameAuthorship</text>
</g>
<!-- lit_httpsipniorgn3063172_nameString_17 -->
<g id="node30" class="node">
<title>lit_httpsipniorgn3063172_nameString_17</title>
<path fill="#ffffff" stroke="#b0bec5" d="M2828.14,-621.21C2828.14,-621.21 2751.14,-621.21 2751.14,-621.21 2745.14,-621.21 2739.14,-615.21 2739.14,-609.21 2739.14,-609.21 2739.14,-597.21 2739.14,-597.21 2739.14,-591.21 2745.14,-585.21 2751.14,-585.21 2751.14,-585.21 2828.14,-585.21 2828.14,-585.21 2834.14,-585.21 2840.14,-591.21 2840.14,-597.21 2840.14,-597.21 2840.14,-609.21 2840.14,-609.21 2840.14,-615.21 2834.14,-621.21 2828.14,-621.21"/>
<text text-anchor="start" x="2747.14" y="-600.71" font-family="Arial,Helvetica" font-size="10.00">Salix arbusculoides</text>
</g>
<!-- https://ipni.org/n/306317&#45;2&#45;&gt;lit_httpsipniorgn3063172_nameString_17 -->
<g id="edge28" class="edge">
<title>https://ipni.org/n/306317&#45;2&#45;&gt;lit_httpsipniorgn3063172_nameString_17</title>
<path fill="none" stroke="#546e7a" d="M2444.5,-662.59C2526.48,-648.45 2657.6,-625.82 2732.09,-612.97"/>
<polygon fill="#546e7a" stroke="#546e7a" points="2732.64,-615.36 2739.12,-611.76 2731.81,-610.53 2732.64,-615.36"/>
<text text-anchor="middle" x="2568.84" y="-652.01" font-family="Arial,Helvetica" font-size="9.00" fill="#37474f">nameString</text>
</g>
<!-- b4 -->
<g id="node12" class="node">
<title>b4</title>
<ellipse fill="#fce4ec" stroke="#880e4f" cx="1436.2" cy="-312.21" rx="27" ry="18"/>
<text text-anchor="middle" x="1436.2" y="-309.71" font-family="Arial,Helvetica" font-size="10.00">Event</text>
</g>
<!-- b5 -->
<g id="node13" class="node">
<title>b5</title>
<ellipse fill="#fff3e0" stroke="#e65100" cx="1959.34" cy="-384.21" rx="31.4" ry="18"/>
<text text-anchor="middle" x="1959.34" y="-381.71" font-family="Arial,Helvetica" font-size="10.00">Location</text>
</g>
<!-- b4&#45;&gt;b5 -->
<g id="edge12" class="edge">
<title>b4&#45;&gt;b5</title>
<path fill="none" stroke="#546e7a" d="M1462.69,-315.73C1547.72,-327.48 1821.89,-365.36 1921.63,-379.14"/>
<polygon fill="#546e7a" stroke="#546e7a" points="1921.51,-381.6 1928.78,-380.13 1922.18,-376.74 1921.51,-381.6"/>
<text text-anchor="middle" x="1783.84" y="-367.01" font-family="Arial,Helvetica" font-size="9.00" fill="#37474f">inDescribedPlace</text>
</g>
<!-- lit_b4_eventDate_5 -->
<g id="node14" class="node">
<title>lit_b4_eventDate_5</title>
<path fill="#ffffff" stroke="#b0bec5" d="M1979.84,-330.21C1979.84,-330.21 1938.84,-330.21 1938.84,-330.21 1932.84,-330.21 1926.84,-324.21 1926.84,-318.21 1926.84,-318.21 1926.84,-306.21 1926.84,-306.21 1926.84,-300.21 1932.84,-294.21 1938.84,-294.21 1938.84,-294.21 1979.84,-294.21 1979.84,-294.21 1985.84,-294.21 1991.84,-300.21 1991.84,-306.21 1991.84,-306.21 1991.84,-318.21 1991.84,-318.21 1991.84,-324.21 1985.84,-330.21 1979.84,-330.21"/>
<text text-anchor="start" x="1934.84" y="-309.71" font-family="Arial,Helvetica" font-size="10.00">1975&#45;07&#45;03</text>
</g>
<!-- b4&#45;&gt;lit_b4_eventDate_5 -->
<g id="edge13" class="edge">
<title>b4&#45;&gt;lit_b4_eventDate_5</title>
<path fill="none" stroke="#546e7a" d="M1463.4,-312.21C1548.58,-312.21 1817.98,-312.21 1919.3,-312.21"/>
<polygon fill="#546e7a" stroke="#546e7a" points="1919.59,-314.66 1926.59,-312.21 1919.59,-309.76 1919.59,-314.66"/>
<text text-anchor="middle" x="1783.84" y="-315.01" font-family="Arial,Helvetica" font-size="9.00" fill="#37474f">eventDate</text>
</g>
<!-- vcb_b5_geodeticDatum_6 -->
<g id="node15" class="node">
<title>vcb_b5_geodeticDatum_6</title>
<polygon fill="#fffde7" stroke="#fbc02d" points="2397.34,-618.21 2343.34,-618.21 2343.34,-582.21 2397.34,-582.21 2397.34,-618.21"/>
<text text-anchor="start" x="2351.34" y="-597.71" font-family="Arial,Helvetica" font-size="10.00">4326</text>
</g>
<!-- b5&#45;&gt;vcb_b5_geodeticDatum_6 -->
<g id="edge14" class="edge">
<title>b5&#45;&gt;vcb_b5_geodeticDatum_6</title>
<path fill="none" stroke="#546e7a" d="M1974.55,-400.3C1998.03,-426.04 2047.42,-476.68 2098.34,-507.21 2176.97,-554.37 2282.87,-581.83 2336,-593.52"/>
<polygon fill="#546e7a" stroke="#546e7a" points="2335.78,-595.97 2343.14,-595.06 2336.81,-591.18 2335.78,-595.97"/>
<text text-anchor="middle" x="2161.34" y="-564.01" font-family="Arial,Helvetica" font-size="9.00" fill="#37474f">geodeticDatum</text>
</g>
<!-- lit_b5_coordinateUncertaintyInMeters_7 -->
<g id="node16" class="node">
<title>lit_b5_coordinateUncertaintyInMeters_7</title>
<path fill="#ffffff" stroke="#b0bec5" d="M2385.34,-546.21C2385.34,-546.21 2355.34,-546.21 2355.34,-546.21 2349.34,-546.21 2343.34,-540.21 2343.34,-534.21 2343.34,-534.21 2343.34,-522.21 2343.34,-522.21 2343.34,-516.21 2349.34,-510.21 2355.34,-510.21 2355.34,-510.21 2385.34,-510.21 2385.34,-510.21 2391.34,-510.21 2397.34,-516.21 2397.34,-522.21 2397.34,-522.21 2397.34,-534.21 2397.34,-534.21 2397.34,-540.21 2391.34,-546.21 2385.34,-546.21"/>
<text text-anchor="start" x="2351.34" y="-525.71" font-family="Arial,Helvetica" font-size="10.00">3615</text>
</g>
<!-- b5&#45;&gt;lit_b5_coordinateUncertaintyInMeters_7 -->
<g id="edge15" class="edge">
<title>b5&#45;&gt;lit_b5_coordinateUncertaintyInMeters_7</title>
<path fill="none" stroke="#546e7a" d="M1983.36,-395.91C2010.43,-409.38 2056.92,-431.65 2098.34,-447.21 2182.41,-478.8 2284.68,-506.6 2336.23,-519.9"/>
<polygon fill="#546e7a" stroke="#546e7a" points="2335.77,-522.31 2343.16,-521.68 2336.99,-517.56 2335.77,-522.31"/>
<text text-anchor="middle" x="2161.34" y="-491.01" font-family="Arial,Helvetica" font-size="9.00" fill="#37474f">coordinateUncertaintyInMeters</text>
</g>
<!-- lit_b5_country_8 -->
<g id="node17" class="node">
<title>lit_b5_country_8</title>
<path fill="#ffffff" stroke="#b0bec5" d="M2396.84,-474.21C2396.84,-474.21 2343.84,-474.21 2343.84,-474.21 2337.84,-474.21 2331.84,-468.21 2331.84,-462.21 2331.84,-462.21 2331.84,-450.21 2331.84,-450.21 2331.84,-444.21 2337.84,-438.21 2343.84,-438.21 2343.84,-438.21 2396.84,-438.21 2396.84,-438.21 2402.84,-438.21 2408.84,-444.21 2408.84,-450.21 2408.84,-450.21 2408.84,-462.21 2408.84,-462.21 2408.84,-468.21 2402.84,-474.21 2396.84,-474.21"/>
<text text-anchor="start" x="2339.84" y="-453.71" font-family="Arial,Helvetica" font-size="10.00">United States</text>
</g>
<!-- b5&#45;&gt;lit_b5_country_8 -->
<g id="edge16" class="edge">
<title>b5&#45;&gt;lit_b5_country_8</title>
<path fill="none" stroke="#546e7a" d="M1989.42,-389.33C2059.91,-401.74 2240.26,-433.49 2324.6,-448.34"/>
<polygon fill="#546e7a" stroke="#546e7a" points="2324.4,-450.79 2331.72,-449.59 2325.25,-445.96 2324.4,-450.79"/>
<text text-anchor="middle" x="2161.34" y="-431.01" font-family="Arial,Helvetica" font-size="9.00" fill="#37474f">country</text>
</g>
<!-- lit_b5_county_9 -->
<g id="node18" class="node">
<title>lit_b5_county_9</title>
<path fill="#ffffff" stroke="#b0bec5" d="M2411.84,-402.21C2411.84,-402.21 2328.84,-402.21 2328.84,-402.21 2322.84,-402.21 2316.84,-396.21 2316.84,-390.21 2316.84,-390.21 2316.84,-378.21 2316.84,-378.21 2316.84,-372.21 2322.84,-366.21 2328.84,-366.21 2328.84,-366.21 2411.84,-366.21 2411.84,-366.21 2417.84,-366.21 2423.84,-372.21 2423.84,-378.21 2423.84,-378.21 2423.84,-390.21 2423.84,-390.21 2423.84,-396.21 2417.84,-402.21 2411.84,-402.21"/>
<text text-anchor="start" x="2324.84" y="-381.71" font-family="Arial,Helvetica" font-size="10.00">Fairbanks North Star</text>
</g>
<!-- b5&#45;&gt;lit_b5_county_9 -->
<g id="edge17" class="edge">
<title>b5&#45;&gt;lit_b5_county_9</title>
<path fill="none" stroke="#546e7a" d="M1990.75,-384.21C2058.16,-384.21 2221.18,-384.21 2309.72,-384.21"/>
<polygon fill="#546e7a" stroke="#546e7a" points="2309.74,-386.66 2316.74,-384.21 2309.74,-381.76 2309.74,-386.66"/>
<text text-anchor="middle" x="2161.34" y="-387.01" font-family="Arial,Helvetica" font-size="9.00" fill="#37474f">county</text>
</g>
<!-- lit_b5_decimalLatitude_10 -->
<g id="node19" class="node">
<title>lit_b5_decimalLatitude_10</title>
<path fill="#ffffff" stroke="#b0bec5" d="M2385.34,-330.21C2385.34,-330.21 2355.34,-330.21 2355.34,-330.21 2349.34,-330.21 2343.34,-324.21 2343.34,-318.21 2343.34,-318.21 2343.34,-306.21 2343.34,-306.21 2343.34,-300.21 2349.34,-294.21 2355.34,-294.21 2355.34,-294.21 2385.34,-294.21 2385.34,-294.21 2391.34,-294.21 2397.34,-300.21 2397.34,-306.21 2397.34,-306.21 2397.34,-318.21 2397.34,-318.21 2397.34,-324.21 2391.34,-330.21 2385.34,-330.21"/>
<text text-anchor="start" x="2351.34" y="-309.71" font-family="Arial,Helvetica" font-size="10.00">&#45;148.3</text>
</g>
<!-- b5&#45;&gt;lit_b5_decimalLatitude_10 -->
<g id="edge18" class="edge">
<title>b5&#45;&gt;lit_b5_decimalLatitude_10</title>
<path fill="none" stroke="#546e7a" d="M1989.42,-379.09C2063.33,-366.08 2257.97,-331.82 2336.14,-318.06"/>
<polygon fill="#546e7a" stroke="#546e7a" points="2336.87,-320.42 2343.34,-316.79 2336.02,-315.59 2336.87,-320.42"/>
<text text-anchor="middle" x="2161.34" y="-361.01" font-family="Arial,Helvetica" font-size="9.00" fill="#37474f">decimalLatitude</text>
</g>
<!-- lit_b5_decimalLongitude_11 -->
<g id="node20" class="node">
<title>lit_b5_decimalLongitude_11</title>
<path fill="#ffffff" stroke="#b0bec5" d="M2385.34,-258.21C2385.34,-258.21 2355.34,-258.21 2355.34,-258.21 2349.34,-258.21 2343.34,-252.21 2343.34,-246.21 2343.34,-246.21 2343.34,-234.21 2343.34,-234.21 2343.34,-228.21 2349.34,-222.21 2355.34,-222.21 2355.34,-222.21 2385.34,-222.21 2385.34,-222.21 2391.34,-222.21 2397.34,-228.21 2397.34,-234.21 2397.34,-234.21 2397.34,-246.21 2397.34,-246.21 2397.34,-252.21 2391.34,-258.21 2385.34,-258.21"/>
<text text-anchor="start" x="2351.34" y="-237.71" font-family="Arial,Helvetica" font-size="10.00">64.7</text>
</g>
<!-- b5&#45;&gt;lit_b5_decimalLongitude_11 -->
<g id="edge19" class="edge">
<title>b5&#45;&gt;lit_b5_decimalLongitude_11</title>
<path fill="none" stroke="#546e7a" d="M1989.16,-378.43C2012.04,-372.98 2044.26,-363.36 2069.34,-348.21 2084.67,-338.95 2082.86,-329.23 2098.34,-320.21 2176.47,-274.7 2282.59,-253.25 2335.88,-244.81"/>
<polygon fill="#546e7a" stroke="#546e7a" points="2336.5,-247.2 2343.04,-243.71 2335.75,-242.35 2336.5,-247.2"/>
<text text-anchor="middle" x="2161.34" y="-323.01" font-family="Arial,Helvetica" font-size="9.00" fill="#37474f">decimalLongitude</text>
</g>
<!-- lit_b5_stateOrProvince_12 -->
<g id="node21" class="node">
<title>lit_b5_stateOrProvince_12</title>
<path fill="#ffffff" stroke="#b0bec5" d="M2385.34,-186.21C2385.34,-186.21 2355.34,-186.21 2355.34,-186.21 2349.34,-186.21 2343.34,-180.21 2343.34,-174.21 2343.34,-174.21 2343.34,-162.21 2343.34,-162.21 2343.34,-156.21 2349.34,-150.21 2355.34,-150.21 2355.34,-150.21 2385.34,-150.21 2385.34,-150.21 2391.34,-150.21 2397.34,-156.21 2397.34,-162.21 2397.34,-162.21 2397.34,-174.21 2397.34,-174.21 2397.34,-180.21 2391.34,-186.21 2385.34,-186.21"/>
<text text-anchor="start" x="2351.34" y="-165.71" font-family="Arial,Helvetica" font-size="10.00">Alaska</text>
</g>
<!-- b5&#45;&gt;lit_b5_stateOrProvince_12 -->
<g id="edge20" class="edge">
<title>b5&#45;&gt;lit_b5_stateOrProvince_12</title>
<path fill="none" stroke="#546e7a" d="M1990.7,-381.76C2015.11,-378.21 2048.64,-369.51 2069.34,-348.21 2100.7,-315.95 2066.63,-283.14 2098.34,-251.21 2163.55,-185.56 2279.19,-171.58 2335.98,-168.78"/>
<polygon fill="#546e7a" stroke="#546e7a" points="2336.38,-171.21 2343.27,-168.46 2336.17,-166.32 2336.38,-171.21"/>
<text text-anchor="middle" x="2161.34" y="-254.01" font-family="Arial,Helvetica" font-size="9.00" fill="#37474f">stateOrProvince</text>
</g>
<!-- lit_b5_verbatimLocality_13 -->
<g id="node22" class="node">
<title>lit_b5_verbatimLocality_13</title>
<path fill="#ffffff" stroke="#b0bec5" d="M2475.34,-114.21C2475.34,-114.21 2265.34,-114.21 2265.34,-114.21 2259.34,-114.21 2253.34,-108.21 2253.34,-102.21 2253.34,-102.21 2253.34,-74.21 2253.34,-74.21 2253.34,-68.21 2259.34,-62.21 2265.34,-62.21 2265.34,-62.21 2475.34,-62.21 2475.34,-62.21 2481.34,-62.21 2487.34,-68.21 2487.34,-74.21 2487.34,-74.21 2487.34,-102.21 2487.34,-102.21 2487.34,-108.21 2481.34,-114.21 2475.34,-114.21"/>
<text text-anchor="start" x="2261.34" y="-102.21" font-family="Arial,Helvetica" font-size="10.00">Tanana Lowlands, Bonanza Creek Experimental</text>
<text text-anchor="start" x="2261.34" y="-91.21" font-family="Arial,Helvetica" font-size="10.00">Forest, Bonanza Cr. Logging Road, 10 Km Down,</text>
<text text-anchor="start" x="2261.34" y="-80.21" font-family="Arial,Helvetica" font-size="10.00">Fairbanks Quad, Bonanza Creek Experimental</text>
<text text-anchor="start" x="2261.34" y="-69.21" font-family="Arial,Helvetica" font-size="10.00">Forest</text>
</g>
<!-- b5&#45;&gt;lit_b5_verbatimLocality_13 -->
<g id="edge21" class="edge">
<title>b5&#45;&gt;lit_b5_verbatimLocality_13</title>
<path fill="none" stroke="#546e7a" d="M1990.46,-382.58C2015.41,-379.53 2049.83,-371.13 2069.34,-348.21 2122.15,-286.18 2044.43,-228.3 2098.34,-167.21 2135.34,-125.28 2193.21,-105.03 2245.99,-95.47"/>
<polygon fill="#546e7a" stroke="#546e7a" points="2246.59,-97.85 2253.07,-94.25 2245.75,-93.02 2246.59,-97.85"/>
<text text-anchor="middle" x="2161.34" y="-170.01" font-family="Arial,Helvetica" font-size="9.00" fill="#37474f">verbatimLocality</text>
</g>
<!-- b6 -->
<g id="node23" class="node">
<title>b6</title>
<ellipse fill="#b2dfdb" stroke="#004d40" cx="1436.2" cy="-240.21" rx="27.84" ry="18"/>
<text text-anchor="middle" x="1436.2" y="-237.71" font-family="Arial,Helvetica" font-size="10.00">Person</text>
</g>
<!-- lit_b6_familyName_14 -->
<g id="node24" class="node">
<title>lit_b6_familyName_14</title>
<path fill="#ffffff" stroke="#b0bec5" d="M1978.34,-258.21C1978.34,-258.21 1940.34,-258.21 1940.34,-258.21 1934.34,-258.21 1928.34,-252.21 1928.34,-246.21 1928.34,-246.21 1928.34,-234.21 1928.34,-234.21 1928.34,-228.21 1934.34,-222.21 1940.34,-222.21 1940.34,-222.21 1978.34,-222.21 1978.34,-222.21 1984.34,-222.21 1990.34,-228.21 1990.34,-234.21 1990.34,-234.21 1990.34,-246.21 1990.34,-246.21 1990.34,-252.21 1984.34,-258.21 1978.34,-258.21"/>
<text text-anchor="start" x="1936.34" y="-237.71" font-family="Arial,Helvetica" font-size="10.00">Densmore</text>
</g>
<!-- b6&#45;&gt;lit_b6_familyName_14 -->
<g id="edge22" class="edge">
<title>b6&#45;&gt;lit_b6_familyName_14</title>
<path fill="none" stroke="#546e7a" d="M1464.12,-240.21C1550.54,-240.21 1821.1,-240.21 1920.89,-240.21"/>
<polygon fill="#546e7a" stroke="#546e7a" points="1921.05,-242.66 1928.05,-240.21 1921.05,-237.76 1921.05,-242.66"/>
<text text-anchor="middle" x="1783.84" y="-243.01" font-family="Arial,Helvetica" font-size="9.00" fill="#37474f">familyName</text>
</g>
<!-- lit_b6_givenName_15 -->
<g id="node25" class="node">
<title>lit_b6_givenName_15</title>
<path fill="#ffffff" stroke="#b0bec5" d="M1974.34,-186.21C1974.34,-186.21 1944.34,-186.21 1944.34,-186.21 1938.34,-186.21 1932.34,-180.21 1932.34,-174.21 1932.34,-174.21 1932.34,-162.21 1932.34,-162.21 1932.34,-156.21 1938.34,-150.21 1944.34,-150.21 1944.34,-150.21 1974.34,-150.21 1974.34,-150.21 1980.34,-150.21 1986.34,-156.21 1986.34,-162.21 1986.34,-162.21 1986.34,-174.21 1986.34,-174.21 1986.34,-180.21 1980.34,-186.21 1974.34,-186.21"/>
<text text-anchor="start" x="1940.34" y="-165.71" font-family="Arial,Helvetica" font-size="10.00">David</text>
</g>
<!-- b6&#45;&gt;lit_b6_givenName_15 -->
<g id="edge23" class="edge">
<title>b6&#45;&gt;lit_b6_givenName_15</title>
<path fill="none" stroke="#546e7a" d="M1463.58,-237.03C1513.41,-230.97 1624.76,-217.22 1718.34,-204.21 1792.22,-193.94 1878.69,-180.66 1925,-173.45"/>
<polygon fill="#546e7a" stroke="#546e7a" points="1925.55,-175.84 1932.09,-172.34 1924.79,-171 1925.55,-175.84"/>
<text text-anchor="middle" x="1783.84" y="-202.01" font-family="Arial,Helvetica" font-size="9.00" fill="#37474f">givenName</text>
</g>
<!-- https://arctos.database.museum/guid/UAM:Herb:86707 -->
<g id="node26" class="node">
<title>https://arctos.database.museum/guid/UAM:Herb:86707</title>
<ellipse fill="#d1c4e9" stroke="#311b92" cx="181.73" cy="-271.21" rx="181.95" ry="21.43"/>
<text text-anchor="middle" x="181.73" y="-274.21" font-family="Arial,Helvetica" font-size="10.00">PreservedSpecimen</text>
<text text-anchor="middle" x="181.73" y="-263.21" font-family="Arial,Helvetica" font-size="10.00">https://arctos.database.museum/guid/UAM:Herb:86707</text>
</g>
<!-- https://arctos.database.museum/guid/UAM:Herb:86707&#45;&gt;b0 -->
<g id="edge25" class="edge">
<title>https://arctos.database.museum/guid/UAM:Herb:86707&#45;&gt;b0</title>
<path fill="none" stroke="#546e7a" d="M203.39,-292.34C292.29,-383.27 641.87,-740.78 732.31,-833.27"/>
<polygon fill="#546e7a" stroke="#546e7a" points="730.75,-835.19 737.4,-838.48 734.26,-831.76 730.75,-835.19"/>
<text text-anchor="middle" x="419.45" y="-531.01" font-family="Arial,Helvetica" font-size="9.00" fill="#37474f">isBasisForId</text>
</g>
<!-- https://www.idigbio.org/portal/records/1e364de0&#45;e016&#45;4ace&#45;8c7d&#45;46a60027c4cb -->
<g id="node27" class="node">
<title>https://www.idigbio.org/portal/records/1e364de0&#45;e016&#45;4ace&#45;8c7d&#45;46a60027c4cb</title>
<ellipse fill="#fce4ec" stroke="#880e4f" cx="754.76" cy="-271.21" rx="255.95" ry="21.43"/>
<text text-anchor="middle" x="754.76" y="-274.21" font-family="Arial,Helvetica" font-size="10.00">Occurrence</text>
<text text-anchor="middle" x="754.76" y="-263.21" font-family="Arial,Helvetica" font-size="10.00">https://www.idigbio.org/portal/records/1e364de0&#45;e016&#45;4ace&#45;8c7d&#45;46a60027c4cb</text>
</g>
<!-- https://arctos.database.museum/guid/UAM:Herb:86707&#45;&gt;https://www.idigbio.org/portal/records/1e364de0&#45;e016&#45;4ace&#45;8c7d&#45;46a60027c4cb -->
<g id="edge24" class="edge">
<title>https://arctos.database.museum/guid/UAM:Herb:86707&#45;&gt;https://www.idigbio.org/portal/records/1e364de0&#45;e016&#45;4ace&#45;8c7d&#45;46a60027c4cb</title>
<path fill="none" stroke="#546e7a" d="M363.8,-271.21C404.41,-271.21 448.29,-271.21 491.47,-271.21"/>
<polygon fill="#546e7a" stroke="#546e7a" points="491.67,-273.66 498.67,-271.21 491.67,-268.76 491.67,-273.66"/>
<text text-anchor="middle" x="419.45" y="-274.01" font-family="Arial,Helvetica" font-size="9.00" fill="#37474f">evidenceFor</text>
</g>
<!-- https://scientific&#45;collections.gbif.org/collection/d89c112d&#45;f357&#45;4697&#45;946d&#45;c70a6145148d -->
<g id="node28" class="node">
<title>https://scientific&#45;collections.gbif.org/collection/d89c112d&#45;f357&#45;4697&#45;946d&#45;c70a6145148d</title>
<ellipse fill="#b2dfdb" stroke="#004d40" cx="754.76" cy="-124.21" rx="279.11" ry="21.43"/>
<text text-anchor="middle" x="754.76" y="-127.21" font-family="Arial,Helvetica" font-size="10.00">OrganizationalUnit</text>
<text text-anchor="middle" x="754.76" y="-116.21" font-family="Arial,Helvetica" font-size="10.00">https://scientific&#45;collections.gbif.org/collection/d89c112d&#45;f357&#45;4697&#45;946d&#45;c70a6145148d</text>
</g>
<!-- https://arctos.database.museum/guid/UAM:Herb:86707&#45;&gt;https://scientific&#45;collections.gbif.org/collection/d89c112d&#45;f357&#45;4697&#45;946d&#45;c70a6145148d -->
<g id="edge26" class="edge">
<title>https://arctos.database.museum/guid/UAM:Herb:86707&#45;&gt;https://scientific&#45;collections.gbif.org/collection/d89c112d&#45;f357&#45;4697&#45;946d&#45;c70a6145148d</title>
<path fill="none" stroke="#546e7a" d="M257.67,-251.92C363.48,-224.68 556.16,-175.08 667.69,-146.37"/>
<polygon fill="#546e7a" stroke="#546e7a" points="668.42,-148.71 674.59,-144.59 667.2,-143.97 668.42,-148.71"/>
<text text-anchor="middle" x="419.45" y="-217.01" font-family="Arial,Helvetica" font-size="9.00" fill="#37474f">itemLocation</text>
</g>
<!-- https://www.idigbio.org/portal/records/1e364de0&#45;e016&#45;4ace&#45;8c7d&#45;46a60027c4cb&#45;&gt;b4 -->
<g id="edge33" class="edge">
<title>https://www.idigbio.org/portal/records/1e364de0&#45;e016&#45;4ace&#45;8c7d&#45;46a60027c4cb&#45;&gt;b4</title>
<path fill="none" stroke="#546e7a" d="M962.38,-283.68C1120.1,-293.2 1323.28,-305.46 1402,-310.21"/>
<polygon fill="#546e7a" stroke="#546e7a" points="1402.09,-312.67 1409.22,-310.65 1402.38,-307.78 1402.09,-312.67"/>
<text text-anchor="middle" x="1094.07" y="-295.01" font-family="Arial,Helvetica" font-size="9.00" fill="#37474f">atEvent</text>
</g>
<!-- https://www.idigbio.org/portal/records/1e364de0&#45;e016&#45;4ace&#45;8c7d&#45;46a60027c4cb&#45;&gt;b6 -->
<g id="edge35" class="edge">
<title>https://www.idigbio.org/portal/records/1e364de0&#45;e016&#45;4ace&#45;8c7d&#45;46a60027c4cb&#45;&gt;b6</title>
<path fill="none" stroke="#546e7a" d="M930.35,-255.78C973.68,-252.44 1020.04,-249.3 1063.07,-247.21 1187.36,-241.2 1335.24,-240.27 1400.89,-240.18"/>
<polygon fill="#546e7a" stroke="#546e7a" points="1401.1,-242.63 1408.1,-240.17 1401.1,-237.73 1401.1,-242.63"/>
<text text-anchor="middle" x="1094.07" y="-250.01" font-family="Arial,Helvetica" font-size="9.00" fill="#37474f">recordedBy</text>
</g>
<!-- https://www.idigbio.org/portal/records/1e364de0&#45;e016&#45;4ace&#45;8c7d&#45;46a60027c4cb&#45;&gt;https://arctos.database.museum/guid/UAM:Herb:86707 -->
<g id="edge34" class="edge">
<title>https://www.idigbio.org/portal/records/1e364de0&#45;e016&#45;4ace&#45;8c7d&#45;46a60027c4cb&#45;&gt;https://arctos.database.museum/guid/UAM:Herb:86707</title>
<path fill="none" stroke="#546e7a" d="M583.31,-255.4C523.03,-251.62 454.73,-249.4 392.45,-252.21 370.61,-253.2 347.52,-254.76 324.97,-256.58"/>
<polygon fill="#546e7a" stroke="#546e7a" points="324.76,-254.14 317.99,-257.15 325.16,-259.02 324.76,-254.14"/>
<text text-anchor="middle" x="419.45" y="-255.01" font-family="Arial,Helvetica" font-size="9.00" fill="#37474f">hasEvidence</text>
</g>
<!-- lit_httpsscientificcollectionsgbiforgcollectiond89c112df3574697946dc70a6145148d_collectionCode_18 -->
<g id="node31" class="node">
<title>lit_httpsscientificcollectionsgbiforgcollectiond89c112df3574697946dc70a6145148d_collectionCode_18</title>
<path fill="#ffffff" stroke="#b0bec5" d="M1451.2,-186.21C1451.2,-186.21 1421.2,-186.21 1421.2,-186.21 1415.2,-186.21 1409.2,-180.21 1409.2,-174.21 1409.2,-174.21 1409.2,-162.21 1409.2,-162.21 1409.2,-156.21 1415.2,-150.21 1421.2,-150.21 1421.2,-150.21 1451.2,-150.21 1451.2,-150.21 1457.2,-150.21 1463.2,-156.21 1463.2,-162.21 1463.2,-162.21 1463.2,-174.21 1463.2,-174.21 1463.2,-180.21 1457.2,-186.21 1451.2,-186.21"/>
<text text-anchor="start" x="1417.2" y="-165.71" font-family="Arial,Helvetica" font-size="10.00">ALA</text>
</g>
<!-- https://scientific&#45;collections.gbif.org/collection/d89c112d&#45;f357&#45;4697&#45;946d&#45;c70a6145148d&#45;&gt;lit_httpsscientificcollectionsgbiforgcollectiond89c112df3574697946dc70a6145148d_collectionCode_18 -->
<g id="edge29" class="edge">
<title>https://scientific&#45;collections.gbif.org/collection/d89c112d&#45;f357&#45;4697&#45;946d&#45;c70a6145148d&#45;&gt;lit_httpsscientificcollectionsgbiforgcollectiond89c112df3574697946dc70a6145148d_collectionCode_18</title>
<path fill="none" stroke="#546e7a" d="M967.95,-137.95C1124.86,-148.12 1324.24,-161.03 1402.02,-166.06"/>
<polygon fill="#546e7a" stroke="#546e7a" points="1402.02,-168.52 1409.17,-166.53 1402.34,-163.63 1402.02,-168.52"/>
<text text-anchor="middle" x="1094.07" y="-150.01" font-family="Arial,Helvetica" font-size="9.00" fill="#37474f">collectionCode</text>
</g>
<!-- lit_httpsscientificcollectionsgbiforgcollectiond89c112df3574697946dc70a6145148d_prefLabel_19 -->
<g id="node32" class="node">
<title>lit_httpsscientificcollectionsgbiforgcollectiond89c112df3574697946dc70a6145148d_prefLabel_19</title>
<path fill="#ffffff" stroke="#b0bec5" d="M1529.2,-114.21C1529.2,-114.21 1343.2,-114.21 1343.2,-114.21 1337.2,-114.21 1331.2,-108.21 1331.2,-102.21 1331.2,-102.21 1331.2,-90.21 1331.2,-90.21 1331.2,-84.21 1337.2,-78.21 1343.2,-78.21 1343.2,-78.21 1529.2,-78.21 1529.2,-78.21 1535.2,-78.21 1541.2,-84.21 1541.2,-90.21 1541.2,-90.21 1541.2,-102.21 1541.2,-102.21 1541.2,-108.21 1535.2,-114.21 1529.2,-114.21"/>
<text text-anchor="start" x="1339.2" y="-99.21" font-family="Arial,Helvetica" font-size="10.00">Herbarium &#45; University of Alaska Museum of</text>
<text text-anchor="start" x="1339.2" y="-88.21" font-family="Arial,Helvetica" font-size="10.00">the North</text>
</g>
<!-- https://scientific&#45;collections.gbif.org/collection/d89c112d&#45;f357&#45;4697&#45;946d&#45;c70a6145148d&#45;&gt;lit_httpsscientificcollectionsgbiforgcollectiond89c112df3574697946dc70a6145148d_prefLabel_19 -->
<g id="edge30" class="edge">
<title>https://scientific&#45;collections.gbif.org/collection/d89c112d&#45;f357&#45;4697&#45;946d&#45;c70a6145148d&#45;&gt;lit_httpsscientificcollectionsgbiforgcollectiond89c112df3574697946dc70a6145148d_prefLabel_19</title>
<path fill="none" stroke="#546e7a" d="M1000.57,-114.12C1111.28,-109.56 1236.61,-104.4 1324.14,-100.79"/>
<polygon fill="#546e7a" stroke="#546e7a" points="1324.27,-103.24 1331.16,-100.5 1324.07,-98.34 1324.27,-103.24"/>
<text text-anchor="middle" x="1094.07" y="-113.01" font-family="Arial,Helvetica" font-size="9.00" fill="#37474f">prefLabel</text>
</g>
<!-- https://scientific&#45;collections.gbif.org/institution/5a35d381&#45;0dc9&#45;4ea0&#45;9b50&#45;9b69a2ce0ed0 -->
<g id="node33" class="node">
<title>https://scientific&#45;collections.gbif.org/institution/5a35d381&#45;0dc9&#45;4ea0&#45;9b50&#45;9b69a2ce0ed0</title>
<ellipse fill="#b2dfdb" stroke="#004d40" cx="1436.2" cy="-21.21" rx="282.27" ry="21.43"/>
<text text-anchor="middle" x="1436.2" y="-24.21" font-family="Arial,Helvetica" font-size="10.00">Organization</text>
<text text-anchor="middle" x="1436.2" y="-13.21" font-family="Arial,Helvetica" font-size="10.00">https://scientific&#45;collections.gbif.org/institution/5a35d381&#45;0dc9&#45;4ea0&#45;9b50&#45;9b69a2ce0ed0</text>
</g>
<!-- https://scientific&#45;collections.gbif.org/collection/d89c112d&#45;f357&#45;4697&#45;946d&#45;c70a6145148d&#45;&gt;https://scientific&#45;collections.gbif.org/institution/5a35d381&#45;0dc9&#45;4ea0&#45;9b50&#45;9b69a2ce0ed0 -->
<g id="edge31" class="edge">
<title>https://scientific&#45;collections.gbif.org/collection/d89c112d&#45;f357&#45;4697&#45;946d&#45;c70a6145148d&#45;&gt;https://scientific&#45;collections.gbif.org/institution/5a35d381&#45;0dc9&#45;4ea0&#45;9b50&#45;9b69a2ce0ed0</title>
<path fill="none" stroke="#546e7a" d="M871.56,-104.93C950.99,-91.87 1058.83,-74.47 1154.07,-60.21 1198.36,-53.58 1246.64,-46.75 1290.49,-40.68"/>
<polygon fill="#546e7a" stroke="#546e7a" points="1290.89,-43.1 1297.49,-39.72 1290.22,-38.25 1290.89,-43.1"/>
<text text-anchor="middle" x="1094.07" y="-76.01" font-family="Arial,Helvetica" font-size="9.00" fill="#37474f">unitOf</text>
</g>
<!-- lit_httpsscientificcollectionsgbiforginstitution5a35d3810dc94ea09b509b69a2ce0ed0_prefLabel_20 -->
<g id="node34" class="node">
<title>lit_httpsscientificcollectionsgbiforginstitution5a35d3810dc94ea09b509b69a2ce0ed0_prefLabel_20</title>
<path fill="#ffffff" stroke="#b0bec5" d="M2047.34,-39.21C2047.34,-39.21 1871.34,-39.21 1871.34,-39.21 1865.34,-39.21 1859.34,-33.21 1859.34,-27.21 1859.34,-27.21 1859.34,-15.21 1859.34,-15.21 1859.34,-9.21 1865.34,-3.21 1871.34,-3.21 1871.34,-3.21 2047.34,-3.21 2047.34,-3.21 2053.34,-3.21 2059.34,-9.21 2059.34,-15.21 2059.34,-15.21 2059.34,-27.21 2059.34,-27.21 2059.34,-33.21 2053.34,-39.21 2047.34,-39.21"/>
<text text-anchor="start" x="1867.34" y="-18.71" font-family="Arial,Helvetica" font-size="10.00">University of Alaska Museum of the North</text>
</g>
<!-- https://scientific&#45;collections.gbif.org/institution/5a35d381&#45;0dc9&#45;4ea0&#45;9b50&#45;9b69a2ce0ed0&#45;&gt;lit_httpsscientificcollectionsgbiforginstitution5a35d3810dc94ea09b509b69a2ce0ed0_prefLabel_20 -->
<g id="edge32" class="edge">
<title>https://scientific&#45;collections.gbif.org/institution/5a35d381&#45;0dc9&#45;4ea0&#45;9b50&#45;9b69a2ce0ed0&#45;&gt;lit_httpsscientificcollectionsgbiforginstitution5a35d3810dc94ea09b509b69a2ce0ed0_prefLabel_20</title>
<path fill="none" stroke="#546e7a" d="M1718.36,-21.21C1766,-21.21 1812.71,-21.21 1852.07,-21.21"/>
<polygon fill="#546e7a" stroke="#546e7a" points="1852.34,-23.66 1859.34,-21.21 1852.34,-18.76 1852.34,-23.66"/>
<text text-anchor="middle" x="1783.84" y="-24.01" font-family="Arial,Helvetica" font-size="9.00" fill="#37474f">prefLabel</text>
</g>
</g>
</svg>
