<?xml version="1.0" encoding="UTF-8" standalone="no"?>
<!DOCTYPE svg PUBLIC "-//W3C//DTD SVG 1.1//EN"
 "http://www.w3.org/Graphics/SVG/1.1/DTD/svg11.dtd">
<!-- Generated by graphviz version 2.43.0 (0)
 -->
<!-- Title: Taxonomic_Data_Graph Pages: 1 -->
<svg width="100%" height="100%"
 viewBox="0.00 0.00 776.96 404.00" xmlns="http://www.w3.org/2000/svg" xmlns:xlink="http://www.w3.org/1999/xlink">
<g id="graph0" class="graph" transform="scale(1 1) rotate(0) translate(4 400)">
<title>Taxonomic_Data_Graph</title>
<polygon fill="white" stroke="transparent" points="-4,4 -4,-400 772.96,-400 772.96,4 -4,4"/>
<!-- b0 -->
<g id="node1" class="node">
<title>b0</title>
<ellipse fill="#ffe0b2" stroke="#e65100" stroke-width="1.8" cx="62.99" cy="-214" rx="62.97" ry="18"/>
<text text-anchor="middle" x="62.99" y="-211.5" font-family="Arial" font-weight="bold" font-size="10.00">NomenclaturalType</text>
</g>
<!-- https://ipni.org/n/333193&#45;1 -->
<g id="node2" class="node">
<title>https://ipni.org/n/333193&#45;1</title>
<ellipse fill="#ffcdd2" stroke="#b71c1c" cx="337.97" cy="-297" rx="91.85" ry="21.43"/>
<text text-anchor="middle" x="337.97" y="-300" font-family="Arial,Helvetica" font-size="10.00">TaxonName</text>
<text text-anchor="middle" x="337.97" y="-289" font-family="Arial,Helvetica" font-size="10.00">https://ipni.org/n/333193&#45;1</text>
</g>
<!-- b0&#45;&gt;https://ipni.org/n/333193&#45;1 -->
<g id="edge1" class="edge">
<title>b0&#45;&gt;https://ipni.org/n/333193&#45;1</title>
<path fill="none" stroke="#000000" stroke-width="1.8" d="M106.94,-227.06C152.06,-240.78 223.46,-262.49 274.74,-278.08"/>
<polygon fill="#000000" stroke="#000000" stroke-width="1.8" points="274.12,-280.45 281.53,-280.14 275.54,-275.76 274.12,-280.45"/>
<text text-anchor="middle" x="182.47" y="-259.8" font-family="Arial" font-weight="bold" font-size="9.00" fill="#37474f">typeName</text>
</g>
<!-- vcb_b0_typeOfType_mt0x1 -->
<g id="node3" class="node">
<title>vcb_b0_typeOfType_mt0x1</title>
<path fill="#fffde7" stroke="#fbc02d" d="M353.97,-232C353.97,-232 321.97,-232 321.97,-232 315.97,-232 309.97,-226 309.97,-220 309.97,-220 309.97,-208 309.97,-208 309.97,-202 315.97,-196 321.97,-196 321.97,-196 353.97,-196 353.97,-196 359.97,-196 365.97,-202 365.97,-208 365.97,-208 365.97,-220 365.97,-220 365.97,-226 359.97,-232 353.97,-232"/>
<text text-anchor="middle" x="337.97" y="-211.5" font-family="Arial,Helvetica" font-size="10.00">lectotype</text>
</g>
<!-- b0&#45;&gt;vcb_b0_typeOfType_mt0x1 -->
<g id="edge2" class="edge">
<title>b0&#45;&gt;vcb_b0_typeOfType_mt0x1</title>
<path fill="none" stroke="#546e7a" d="M126.27,-214C180.98,-214 258.53,-214 302.69,-214"/>
<polygon fill="#546e7a" stroke="#546e7a" points="302.74,-216.45 309.74,-214 302.74,-211.55 302.74,-216.45"/>
<text text-anchor="middle" x="182.47" y="-216.8" font-family="Arial,Helvetica" font-size="9.00" fill="#37474f">typeOfType</text>
</g>
<!-- https://ipni.org/n/50985479&#45;1 -->
<g id="node4" class="node">
<title>https://ipni.org/n/50985479&#45;1</title>
<ellipse fill="#ffcdd2" stroke="#b71c1c" cx="337.97" cy="-123" rx="98.99" ry="21.43"/>
<text text-anchor="middle" x="337.97" y="-126" font-family="Arial,Helvetica" font-size="10.00">TaxonName</text>
<text text-anchor="middle" x="337.97" y="-115" font-family="Arial,Helvetica" font-size="10.00">https://ipni.org/n/50985479&#45;1</text>
</g>
<!-- b0&#45;&gt;https://ipni.org/n/50985479&#45;1 -->
<g id="edge3" class="edge">
<title>b0&#45;&gt;https://ipni.org/n/50985479&#45;1</title>
<path fill="none" stroke="#546e7a" d="M104.56,-200.47C150.05,-185.31 224.27,-160.57 276.58,-143.13"/>
<polygon fill="#546e7a" stroke="#546e7a" points="277.62,-145.37 283.48,-140.83 276.07,-140.72 277.62,-145.37"/>
<text text-anchor="middle" x="182.47" y="-183.8" font-family="Arial,Helvetica" font-size="9.00" fill="#37474f">typifiedName</text>
</g>
<!-- lit_httpsipniorgn3331931_scientificNameAuthorship_udnzp -->
<g id="node5" class="node">
<title>lit_httpsipniorgn3331931_scientificNameAuthorship_udnzp</title>
<path fill="#ffffff" stroke="#b0bec5" d="M719.46,-396C719.46,-396 649.46,-396 649.46,-396 643.46,-396 637.46,-390 637.46,-384 637.46,-384 637.46,-372 637.46,-372 637.46,-366 643.46,-360 649.46,-360 649.46,-360 719.46,-360 719.46,-360 725.46,-360 731.46,-366 731.46,-372 731.46,-372 731.46,-384 731.46,-384 731.46,-390 725.46,-396 719.46,-396"/>
<text text-anchor="start" x="645.46" y="-375.5" font-family="Arial,Helvetica" font-size="10.00">Bisset &amp; S.Moore</text>
</g>
<!-- https://ipni.org/n/333193&#45;1&#45;&gt;lit_httpsipniorgn3331931_scientificNameAuthorship_udnzp -->
<g id="edge4" class="edge">
<title>https://ipni.org/n/333193&#45;1&#45;&gt;lit_httpsipniorgn3331931_scientificNameAuthorship_udnzp</title>
<path fill="none" stroke="#546e7a" d="M402.96,-312.05C468.53,-327.46 569.31,-351.16 630.54,-365.56"/>
<polygon fill="#546e7a" stroke="#546e7a" points="630.07,-367.96 637.44,-367.18 631.19,-363.19 630.07,-367.96"/>
<text text-anchor="middle" x="518.46" y="-351.8" font-family="Arial,Helvetica" font-size="9.00" fill="#37474f">scientificNameAuthorship</text>
</g>
<!-- lit_httpsipniorgn3331931_nameString_zlxr7 -->
<g id="node6" class="node">
<title>lit_httpsipniorgn3331931_nameString_zlxr7</title>
<path fill="#ffffff" stroke="#b0bec5" d="M743.96,-324C743.96,-324 624.96,-324 624.96,-324 618.96,-324 612.96,-318 612.96,-312 612.96,-312 612.96,-300 612.96,-300 612.96,-294 618.96,-288 624.96,-288 624.96,-288 743.96,-288 743.96,-288 749.96,-288 755.96,-294 755.96,-300 755.96,-300 755.96,-312 755.96,-312 755.96,-318 749.96,-324 743.96,-324"/>
<text text-anchor="start" x="620.96" y="-303.5" font-family="Arial,Helvetica" font-size="10.00">Rhododendron quinquefolium</text>
</g>
<!-- https://ipni.org/n/333193&#45;1&#45;&gt;lit_httpsipniorgn3331931_nameString_zlxr7 -->
<g id="edge5" class="edge">
<title>https://ipni.org/n/333193&#45;1&#45;&gt;lit_httpsipniorgn3331931_nameString_zlxr7</title>
<path fill="none" stroke="#546e7a" d="M429.48,-299.36C484.22,-300.79 553.3,-302.6 605.59,-303.97"/>
<polygon fill="#546e7a" stroke="#546e7a" points="605.79,-306.42 612.85,-304.16 605.92,-301.52 605.79,-306.42"/>
<text text-anchor="middle" x="518.46" y="-304.8" font-family="Arial,Helvetica" font-size="9.00" fill="#37474f">nameString</text>
</g>
<!-- vcb_httpsipniorgn3331931_taxonRank_zu4bu -->
<g id="node7" class="node">
<title>vcb_httpsipniorgn3331931_taxonRank_zu4bu</title>
<path fill="#fffde7" stroke="#fbc02d" d="M699.46,-252C699.46,-252 669.46,-252 669.46,-252 663.46,-252 657.46,-246 657.46,-240 657.46,-240 657.46,-228 657.46,-228 657.46,-222 663.46,-216 669.46,-216 669.46,-216 699.46,-216 699.46,-216 705.46,-216 711.46,-222 711.46,-228 711.46,-228 711.46,-240 711.46,-240 711.46,-246 705.46,-252 699.46,-252"/>
<text text-anchor="middle" x="684.46" y="-231.5" font-family="Arial,Helvetica" font-size="10.00">species</text>
</g>
<!-- https://ipni.org/n/333193&#45;1&#45;&gt;vcb_httpsipniorgn3331931_taxonRank_zu4bu -->
<g id="edge6" class="edge">
<title>https://ipni.org/n/333193&#45;1&#45;&gt;vcb_httpsipniorgn3331931_taxonRank_zu4bu</title>
<path fill="none" stroke="#546e7a" d="M410.77,-283.87C484.18,-270.44 595.01,-250.18 650.03,-240.11"/>
<polygon fill="#546e7a" stroke="#546e7a" points="650.65,-242.49 657.09,-238.82 649.77,-237.67 650.65,-242.49"/>
<text text-anchor="middle" x="518.46" y="-274.8" font-family="Arial,Helvetica" font-size="9.00" fill="#37474f">taxonRank</text>
</g>
<!-- lit_httpsipniorgn509854791_scientificNameAuthorship_infw5 -->
<g id="node8" class="node">
<title>lit_httpsipniorgn509854791_scientificNameAuthorship_infw5</title>
<path fill="#ffffff" stroke="#b0bec5" d="M717.96,-180C717.96,-180 650.96,-180 650.96,-180 644.96,-180 638.96,-174 638.96,-168 638.96,-168 638.96,-156 638.96,-156 638.96,-150 644.96,-144 650.96,-144 650.96,-144 717.96,-144 717.96,-144 723.96,-144 729.96,-150 729.96,-156 729.96,-156 729.96,-168 729.96,-168 729.96,-174 723.96,-180 717.96,-180"/>
<text text-anchor="start" x="646.96" y="-159.5" font-family="Arial,Helvetica" font-size="10.00">Rehder &amp; Wilson</text>
</g>
<!-- https://ipni.org/n/50985479&#45;1&#45;&gt;lit_httpsipniorgn509854791_scientificNameAuthorship_infw5 -->
<g id="edge7" class="edge">
<title>https://ipni.org/n/50985479&#45;1&#45;&gt;lit_httpsipniorgn509854791_scientificNameAuthorship_infw5</title>
<path fill="none" stroke="#546e7a" d="M425.9,-132.84C490.76,-140.18 577.21,-149.97 631.61,-156.13"/>
<polygon fill="#546e7a" stroke="#546e7a" points="631.5,-158.58 638.74,-156.94 632.06,-153.71 631.5,-158.58"/>
<text text-anchor="middle" x="518.46" y="-150.8" font-family="Arial,Helvetica" font-size="9.00" fill="#37474f">scientificNameAuthorship</text>
</g>
<!-- lit_httpsipniorgn509854791_nameString_ar4m3 -->
<g id="node9" class="node">
<title>lit_httpsipniorgn509854791_nameString_ar4m3</title>
<path fill="#ffffff" stroke="#b0bec5" d="M756.96,-108C756.96,-108 611.96,-108 611.96,-108 605.96,-108 599.96,-102 599.96,-96 599.96,-96 599.96,-84 599.96,-84 599.96,-78 605.96,-72 611.96,-72 611.96,-72 756.96,-72 756.96,-72 762.96,-72 768.96,-78 768.96,-84 768.96,-84 768.96,-96 768.96,-96 768.96,-102 762.96,-108 756.96,-108"/>
<text text-anchor="start" x="607.96" y="-87.5" font-family="Arial,Helvetica" font-size="10.00">Rhododendron sect. Sciadorhodion</text>
</g>
<!-- https://ipni.org/n/50985479&#45;1&#45;&gt;lit_httpsipniorgn509854791_nameString_ar4m3 -->
<g id="edge8" class="edge">
<title>https://ipni.org/n/50985479&#45;1&#45;&gt;lit_httpsipniorgn509854791_nameString_ar4m3</title>
<path fill="none" stroke="#546e7a" d="M422.59,-111.89C437.04,-110.14 451.93,-108.43 465.96,-107 507.47,-102.77 553.52,-99.03 592.52,-96.14"/>
<polygon fill="#546e7a" stroke="#546e7a" points="592.92,-98.57 599.72,-95.62 592.56,-93.68 592.92,-98.57"/>
<text text-anchor="middle" x="518.46" y="-109.8" font-family="Arial,Helvetica" font-size="9.00" fill="#37474f">nameString</text>
</g>
<!-- vcb_httpsipniorgn509854791_taxonRank_m3qhg -->
<g id="node10" class="node">
<title>vcb_httpsipniorgn509854791_taxonRank_m3qhg</title>
<path fill="#fffde7" stroke="#fbc02d" d="M699.46,-36C699.46,-36 669.46,-36 669.46,-36 663.46,-36 657.46,-30 657.46,-24 657.46,-24 657.46,-12 657.46,-12 657.46,-6 663.46,0 669.46,0 669.46,0 699.46,0 699.46,0 705.46,0 711.46,-6 711.46,-12 711.46,-12 711.46,-24 711.46,-24 711.46,-30 705.46,-36 699.46,-36"/>
<text text-anchor="middle" x="684.46" y="-15.5" font-family="Arial,Helvetica" font-size="10.00">section</text>
</g>
<!-- https://ipni.org/n/50985479&#45;1&#45;&gt;vcb_httpsipniorgn509854791_taxonRank_m3qhg -->
<g id="edge9" class="edge">
<title>https://ipni.org/n/50985479&#45;1&#45;&gt;vcb_httpsipniorgn509854791_taxonRank_m3qhg</title>
<path fill="none" stroke="#546e7a" d="M389.41,-104.74C412.62,-96.54 440.58,-86.95 465.96,-79 530.84,-58.68 607.58,-37.91 650.38,-26.62"/>
<polygon fill="#546e7a" stroke="#546e7a" points="651.05,-28.97 657.2,-24.82 649.81,-24.23 651.05,-28.97"/>
<text text-anchor="middle" x="518.46" y="-81.8" font-family="Arial,Helvetica" font-size="9.00" fill="#37474f">taxonRank</text>
</g>
</g>
</svg>
