<?xml version="1.0" encoding="UTF-8" standalone="no"?>
<!DOCTYPE svg PUBLIC "-//W3C//DTD SVG 1.1//EN"
 "http://www.w3.org/Graphics/SVG/1.1/DTD/svg11.dtd">
<!-- Generated by graphviz version 2.43.0 (0)
 -->
<!-- Title: Taxonomic_Data_Graph Pages: 1 -->
<svg width="100%" height="100%"
 viewBox="0.00 0.00 577.78 701.00" xmlns="http://www.w3.org/2000/svg" xmlns:xlink="http://www.w3.org/1999/xlink">
<g id="graph0" class="graph" transform="scale(1 1) rotate(0) translate(4 697)">
<title>Taxonomic_Data_Graph</title>
<polygon fill="white" stroke="transparent" points="-4,4 -4,-697 573.78,-697 573.78,4 -4,4"/>
<!-- b0 -->
<g id="node1" class="node">
<title>b0</title>
<ellipse fill="#ffcdd2" stroke="#b71c1c" cx="52.39" cy="-44" rx="40.74" ry="18"/>
<text text-anchor="middle" x="52.39" y="-41.5" font-family="Arial,Helvetica" font-size="10.00">TaxonName</text>
</g>
<!-- b1 -->
<g id="node2" class="node">
<title>b1</title>
<ellipse fill="#ffcdd2" stroke="#b71c1c" cx="287.28" cy="-90" rx="40.74" ry="18"/>
<text text-anchor="middle" x="287.28" y="-87.5" font-family="Arial,Helvetica" font-size="10.00">TaxonName</text>
</g>
<!-- b0&#45;&gt;b1 -->
<g id="edge1" class="edge">
<title>b0&#45;&gt;b1</title>
<path fill="none" stroke="#546e7a" d="M89.78,-51.19C131.19,-59.37 198.78,-72.72 242.89,-81.43"/>
<polygon fill="#546e7a" stroke="#546e7a" points="242.42,-83.83 249.76,-82.79 243.37,-79.03 242.42,-83.83"/>
<text text-anchor="middle" x="168.28" y="-75.8" font-family="Arial,Helvetica" font-size="9.00" fill="#37474f">basionym</text>
</g>
<!-- lit_b0_nameString_0 -->
<g id="node3" class="node">
<title>lit_b0_nameString_0</title>
<path fill="#ffffff" stroke="#b0bec5" d="M316.28,-36C316.28,-36 258.28,-36 258.28,-36 252.28,-36 246.28,-30 246.28,-24 246.28,-24 246.28,-12 246.28,-12 246.28,-6 252.28,0 258.28,0 258.28,0 316.28,0 316.28,0 322.28,0 328.28,-6 328.28,-12 328.28,-12 328.28,-24 328.28,-24 328.28,-30 322.28,-36 316.28,-36"/>
<text text-anchor="start" x="254.28" y="-15.5" font-family="Arial,Helvetica" font-size="10.00">Panthera uncia</text>
</g>
<!-- b0&#45;&gt;lit_b0_nameString_0 -->
<g id="edge2" class="edge">
<title>b0&#45;&gt;lit_b0_nameString_0</title>
<path fill="none" stroke="#546e7a" d="M87.16,-34.54C101.43,-30.93 118.3,-27.17 133.78,-25 168.9,-20.09 208.95,-18.4 239.2,-17.9"/>
<polygon fill="#546e7a" stroke="#546e7a" points="239.31,-20.35 246.28,-17.81 239.25,-15.45 239.31,-20.35"/>
<text text-anchor="middle" x="168.28" y="-27.8" font-family="Arial,Helvetica" font-size="9.00" fill="#37474f">nameString</text>
</g>
<!-- lit_b1_namePublishedInYear_1 -->
<g id="node4" class="node">
<title>lit_b1_namePublishedInYear_1</title>
<path fill="#ffffff" stroke="#b0bec5" d="M552.78,-180C552.78,-180 522.78,-180 522.78,-180 516.78,-180 510.78,-174 510.78,-168 510.78,-168 510.78,-156 510.78,-156 510.78,-150 516.78,-144 522.78,-144 522.78,-144 552.78,-144 552.78,-144 558.78,-144 564.78,-150 564.78,-156 564.78,-156 564.78,-168 564.78,-168 564.78,-174 558.78,-180 552.78,-180"/>
<text text-anchor="start" x="518.78" y="-159.5" font-family="Arial,Helvetica" font-size="10.00">1775</text>
</g>
<!-- b1&#45;&gt;lit_b1_namePublishedInYear_1 -->
<g id="edge3" class="edge">
<title>b1&#45;&gt;lit_b1_namePublishedInYear_1</title>
<path fill="none" stroke="#546e7a" d="M321.8,-99.71C369.43,-113.51 456.18,-138.65 503.62,-152.39"/>
<polygon fill="#546e7a" stroke="#546e7a" points="503.2,-154.82 510.6,-154.41 504.56,-150.11 503.2,-154.82"/>
<text text-anchor="middle" x="424.28" y="-147.8" font-family="Arial,Helvetica" font-size="9.00" fill="#37474f">namePublishedInYear</text>
</g>
<!-- lit_b1_scientificNameAuthorship_2 -->
<g id="node5" class="node">
<title>lit_b1_scientificNameAuthorship_2</title>
<path fill="#ffffff" stroke="#b0bec5" d="M553.78,-108C553.78,-108 521.78,-108 521.78,-108 515.78,-108 509.78,-102 509.78,-96 509.78,-96 509.78,-84 509.78,-84 509.78,-78 515.78,-72 521.78,-72 521.78,-72 553.78,-72 553.78,-72 559.78,-72 565.78,-78 565.78,-84 565.78,-84 565.78,-96 565.78,-96 565.78,-102 559.78,-108 553.78,-108"/>
<text text-anchor="start" x="517.78" y="-87.5" font-family="Arial,Helvetica" font-size="10.00">Schreber</text>
</g>
<!-- b1&#45;&gt;lit_b1_scientificNameAuthorship_2 -->
<g id="edge4" class="edge">
<title>b1&#45;&gt;lit_b1_scientificNameAuthorship_2</title>
<path fill="none" stroke="#546e7a" d="M327.93,-90C376.19,-90 456.87,-90 502.54,-90"/>
<polygon fill="#546e7a" stroke="#546e7a" points="502.55,-92.45 509.55,-90 502.55,-87.55 502.55,-92.45"/>
<text text-anchor="middle" x="424.28" y="-92.8" font-family="Arial,Helvetica" font-size="9.00" fill="#37474f">scientificNameAuthorship</text>
</g>
<!-- lit_b1_nameString_3 -->
<g id="node6" class="node">
<title>lit_b1_nameString_3</title>
<path fill="#ffffff" stroke="#b0bec5" d="M557.78,-36C557.78,-36 517.78,-36 517.78,-36 511.78,-36 505.78,-30 505.78,-24 505.78,-24 505.78,-12 505.78,-12 505.78,-6 511.78,0 517.78,0 517.78,0 557.78,0 557.78,0 563.78,0 569.78,-6 569.78,-12 569.78,-12 569.78,-24 569.78,-24 569.78,-30 563.78,-36 557.78,-36"/>
<text text-anchor="start" x="513.78" y="-15.5" font-family="Arial,Helvetica" font-size="10.00">Felis uncia</text>
</g>
<!-- b1&#45;&gt;lit_b1_nameString_3 -->
<g id="edge5" class="edge">
<title>b1&#45;&gt;lit_b1_nameString_3</title>
<path fill="none" stroke="#546e7a" d="M321.8,-80.29C367.88,-66.94 450.6,-42.97 498.88,-28.98"/>
<polygon fill="#546e7a" stroke="#546e7a" points="499.71,-31.29 505.75,-26.99 498.35,-26.59 499.71,-31.29"/>
<text text-anchor="middle" x="424.28" y="-67.8" font-family="Arial,Helvetica" font-size="9.00" fill="#37474f">nameString</text>
</g>
<!-- b2 -->
<g id="node7" class="node">
<title>b2</title>
<ellipse fill="#ffcdd2" stroke="#b71c1c" cx="52.39" cy="-198" rx="52.28" ry="18"/>
<text text-anchor="middle" x="52.39" y="-195.5" font-family="Arial,Helvetica" font-size="10.00">VernacularName</text>
</g>
<!-- lit_b2_language_4 -->
<g id="node8" class="node">
<title>lit_b2_language_4</title>
<path fill="#ffffff" stroke="#b0bec5" d="M302.28,-252C302.28,-252 272.28,-252 272.28,-252 266.28,-252 260.28,-246 260.28,-240 260.28,-240 260.28,-228 260.28,-228 260.28,-222 266.28,-216 272.28,-216 272.28,-216 302.28,-216 302.28,-216 308.28,-216 314.28,-222 314.28,-228 314.28,-228 314.28,-240 314.28,-240 314.28,-246 308.28,-252 302.28,-252"/>
<text text-anchor="start" x="268.28" y="-231.5" font-family="Arial,Helvetica" font-size="10.00">en</text>
</g>
<!-- b2&#45;&gt;lit_b2_language_4 -->
<g id="edge6" class="edge">
<title>b2&#45;&gt;lit_b2_language_4</title>
<path fill="none" stroke="#546e7a" d="M100.52,-205.29C145.82,-212.29 213.11,-222.69 253.05,-228.86"/>
<polygon fill="#546e7a" stroke="#546e7a" points="252.89,-231.32 260.18,-229.97 253.64,-226.47 252.89,-231.32"/>
<text text-anchor="middle" x="168.28" y="-222.8" font-family="Arial,Helvetica" font-size="9.00" fill="#37474f">language</text>
</g>
<!-- lit_b2_vernacularName_5 -->
<g id="node9" class="node">
<title>lit_b2_vernacularName_5</title>
<path fill="#ffffff" stroke="#b0bec5" d="M314.78,-180C314.78,-180 259.78,-180 259.78,-180 253.78,-180 247.78,-174 247.78,-168 247.78,-168 247.78,-156 247.78,-156 247.78,-150 253.78,-144 259.78,-144 259.78,-144 314.78,-144 314.78,-144 320.78,-144 326.78,-150 326.78,-156 326.78,-156 326.78,-168 326.78,-168 326.78,-174 320.78,-180 314.78,-180"/>
<text text-anchor="start" x="255.78" y="-159.5" font-family="Arial,Helvetica" font-size="10.00">Snow Leopard</text>
</g>
<!-- b2&#45;&gt;lit_b2_vernacularName_5 -->
<g id="edge7" class="edge">
<title>b2&#45;&gt;lit_b2_vernacularName_5</title>
<path fill="none" stroke="#546e7a" d="M100.52,-190.71C141.4,-184.4 200.19,-175.31 240.62,-169.06"/>
<polygon fill="#546e7a" stroke="#546e7a" points="241.16,-171.45 247.7,-167.96 240.41,-166.61 241.16,-171.45"/>
<text text-anchor="middle" x="168.28" y="-188.8" font-family="Arial,Helvetica" font-size="9.00" fill="#37474f">vernacularName</text>
</g>
<!-- b3 -->
<g id="node10" class="node">
<title>b3</title>
<ellipse fill="#ffcdd2" stroke="#b71c1c" cx="52.39" cy="-342" rx="52.28" ry="18"/>
<text text-anchor="middle" x="52.39" y="-339.5" font-family="Arial,Helvetica" font-size="10.00">VernacularName</text>
</g>
<!-- lit_b3_language_6 -->
<g id="node11" class="node">
<title>lit_b3_language_6</title>
<path fill="#ffffff" stroke="#b0bec5" d="M302.28,-396C302.28,-396 272.28,-396 272.28,-396 266.28,-396 260.28,-390 260.28,-384 260.28,-384 260.28,-372 260.28,-372 260.28,-366 266.28,-360 272.28,-360 272.28,-360 302.28,-360 302.28,-360 308.28,-360 314.28,-366 314.28,-372 314.28,-372 314.28,-384 314.28,-384 314.28,-390 308.28,-396 302.28,-396"/>
<text text-anchor="start" x="268.28" y="-375.5" font-family="Arial,Helvetica" font-size="10.00">fr</text>
</g>
<!-- b3&#45;&gt;lit_b3_language_6 -->
<g id="edge8" class="edge">
<title>b3&#45;&gt;lit_b3_language_6</title>
<path fill="none" stroke="#546e7a" d="M100.52,-349.29C145.82,-356.29 213.11,-366.69 253.05,-372.86"/>
<polygon fill="#546e7a" stroke="#546e7a" points="252.89,-375.32 260.18,-373.97 253.64,-370.47 252.89,-375.32"/>
<text text-anchor="middle" x="168.28" y="-366.8" font-family="Arial,Helvetica" font-size="9.00" fill="#37474f">language</text>
</g>
<!-- lit_b3_vernacularName_7 -->
<g id="node12" class="node">
<title>lit_b3_vernacularName_7</title>
<path fill="#ffffff" stroke="#b0bec5" d="M322.78,-324C322.78,-324 251.78,-324 251.78,-324 245.78,-324 239.78,-318 239.78,-312 239.78,-312 239.78,-300 239.78,-300 239.78,-294 245.78,-288 251.78,-288 251.78,-288 322.78,-288 322.78,-288 328.78,-288 334.78,-294 334.78,-300 334.78,-300 334.78,-312 334.78,-312 334.78,-318 328.78,-324 322.78,-324"/>
<text text-anchor="start" x="247.78" y="-303.5" font-family="Arial,Helvetica" font-size="10.00">Panthère de neige</text>
</g>
<!-- b3&#45;&gt;lit_b3_vernacularName_7 -->
<g id="edge9" class="edge">
<title>b3&#45;&gt;lit_b3_vernacularName_7</title>
<path fill="none" stroke="#546e7a" d="M100.52,-334.71C138.68,-328.82 192.46,-320.5 232.34,-314.34"/>
<polygon fill="#546e7a" stroke="#546e7a" points="233.08,-316.7 239.62,-313.21 232.33,-311.86 233.08,-316.7"/>
<text text-anchor="middle" x="168.28" y="-331.8" font-family="Arial,Helvetica" font-size="9.00" fill="#37474f">vernacularName</text>
</g>
<!-- b4 -->
<g id="node13" class="node">
<title>b4</title>
<ellipse fill="#ffcdd2" stroke="#b71c1c" cx="52.39" cy="-513" rx="52.28" ry="18"/>
<text text-anchor="middle" x="52.39" y="-510.5" font-family="Arial,Helvetica" font-size="10.00">VernacularName</text>
</g>
<!-- lit_b4_language_8 -->
<g id="node14" class="node">
<title>lit_b4_language_8</title>
<path fill="#ffffff" stroke="#b0bec5" d="M302.28,-540C302.28,-540 272.28,-540 272.28,-540 266.28,-540 260.28,-534 260.28,-528 260.28,-528 260.28,-516 260.28,-516 260.28,-510 266.28,-504 272.28,-504 272.28,-504 302.28,-504 302.28,-504 308.28,-504 314.28,-510 314.28,-516 314.28,-516 314.28,-528 314.28,-528 314.28,-534 308.28,-540 302.28,-540"/>
<text text-anchor="start" x="268.28" y="-519.5" font-family="Arial,Helvetica" font-size="10.00">fr</text>
</g>
<!-- b4&#45;&gt;lit_b4_language_8 -->
<g id="edge10" class="edge">
<title>b4&#45;&gt;lit_b4_language_8</title>
<path fill="none" stroke="#546e7a" d="M104.5,-514.98C149.56,-516.72 213.93,-519.2 252.75,-520.7"/>
<polygon fill="#546e7a" stroke="#546e7a" points="253.07,-523.17 260.16,-520.99 253.26,-518.27 253.07,-523.17"/>
<text text-anchor="middle" x="168.28" y="-520.8" font-family="Arial,Helvetica" font-size="9.00" fill="#37474f">language</text>
</g>
<!-- lit_b4_vernacularName_9 -->
<g id="node15" class="node">
<title>lit_b4_vernacularName_9</title>
<path fill="#ffffff" stroke="#b0bec5" d="M302.28,-468C302.28,-468 272.28,-468 272.28,-468 266.28,-468 260.28,-462 260.28,-456 260.28,-456 260.28,-444 260.28,-444 260.28,-438 266.28,-432 272.28,-432 272.28,-432 302.28,-432 302.28,-432 308.28,-432 314.28,-438 314.28,-444 314.28,-444 314.28,-456 314.28,-456 314.28,-462 308.28,-468 302.28,-468"/>
<text text-anchor="start" x="268.28" y="-447.5" font-family="Arial,Helvetica" font-size="10.00">Once</text>
</g>
<!-- b4&#45;&gt;lit_b4_vernacularName_9 -->
<g id="edge11" class="edge">
<title>b4&#45;&gt;lit_b4_vernacularName_9</title>
<path fill="none" stroke="#546e7a" d="M93.96,-502.03C139.17,-489.8 211.41,-470.25 253.3,-458.92"/>
<polygon fill="#546e7a" stroke="#546e7a" points="254.13,-461.23 260.25,-457.04 252.85,-456.5 254.13,-461.23"/>
<text text-anchor="middle" x="168.28" y="-492.8" font-family="Arial,Helvetica" font-size="9.00" fill="#37474f">vernacularName</text>
</g>
<!-- b5 -->
<g id="node16" class="node">
<title>b5</title>
<ellipse fill="#ffcdd2" stroke="#b71c1c" cx="52.39" cy="-621" rx="52.28" ry="18"/>
<text text-anchor="middle" x="52.39" y="-618.5" font-family="Arial,Helvetica" font-size="10.00">VernacularName</text>
</g>
<!-- lit_b5_language_10 -->
<g id="node17" class="node">
<title>lit_b5_language_10</title>
<path fill="#ffffff" stroke="#b0bec5" d="M302.28,-693C302.28,-693 272.28,-693 272.28,-693 266.28,-693 260.28,-687 260.28,-681 260.28,-681 260.28,-669 260.28,-669 260.28,-663 266.28,-657 272.28,-657 272.28,-657 302.28,-657 302.28,-657 308.28,-657 314.28,-663 314.28,-669 314.28,-669 314.28,-681 314.28,-681 314.28,-687 308.28,-693 302.28,-693"/>
<text text-anchor="start" x="268.28" y="-672.5" font-family="Arial,Helvetica" font-size="10.00">es</text>
</g>
<!-- b5&#45;&gt;lit_b5_language_10 -->
<g id="edge12" class="edge">
<title>b5&#45;&gt;lit_b5_language_10</title>
<path fill="none" stroke="#546e7a" d="M96.38,-630.97C141.73,-641.48 212.2,-657.82 253.34,-667.36"/>
<polygon fill="#546e7a" stroke="#546e7a" points="252.8,-669.75 260.17,-668.95 253.91,-664.98 252.8,-669.75"/>
<text text-anchor="middle" x="168.28" y="-656.8" font-family="Arial,Helvetica" font-size="9.00" fill="#37474f">language</text>
</g>
<!-- lit_b5_vernacularName_11 -->
<g id="node18" class="node">
<title>lit_b5_vernacularName_11</title>
<path fill="#ffffff" stroke="#b0bec5" d="M330.78,-621C330.78,-621 243.78,-621 243.78,-621 237.78,-621 231.78,-615 231.78,-609 231.78,-609 231.78,-597 231.78,-597 231.78,-591 237.78,-585 243.78,-585 243.78,-585 330.78,-585 330.78,-585 336.78,-585 342.78,-591 342.78,-597 342.78,-597 342.78,-609 342.78,-609 342.78,-615 336.78,-621 330.78,-621"/>
<text text-anchor="start" x="239.78" y="-600.5" font-family="Arial,Helvetica" font-size="10.00">Pantera de las nieves</text>
</g>
<!-- b5&#45;&gt;lit_b5_vernacularName_11 -->
<g id="edge13" class="edge">
<title>b5&#45;&gt;lit_b5_vernacularName_11</title>
<path fill="none" stroke="#546e7a" d="M103.64,-617.12C138.99,-614.38 186.53,-610.71 224.25,-607.79"/>
<polygon fill="#546e7a" stroke="#546e7a" points="224.86,-610.2 231.65,-607.22 224.48,-605.32 224.86,-610.2"/>
<text text-anchor="middle" x="168.28" y="-616.8" font-family="Arial,Helvetica" font-size="9.00" fill="#37474f">vernacularName</text>
</g>
</g>
</svg>
