<?xml version="1.0" encoding="UTF-8" standalone="no"?>
<!DOCTYPE svg PUBLIC "-//W3C//DTD SVG 1.1//EN"
 "http://www.w3.org/Graphics/SVG/1.1/DTD/svg11.dtd">
<!-- Generated by graphviz version 2.43.0 (0)
 -->
<!-- Title: Taxonomic_Data_Graph Pages: 1 -->
<svg width="100%" height="100%"
 viewBox="0.00 0.00 581.78 701.00" xmlns="http://www.w3.org/2000/svg" xmlns:xlink="http://www.w3.org/1999/xlink">
<g id="graph0" class="graph" transform="scale(1 1) rotate(0) translate(4 697)">
<title>Taxonomic_Data_Graph</title>
<polygon fill="white" stroke="transparent" points="-4,4 -4,-697 577.78,-697 577.78,4 -4,4"/>
<!-- b0 -->
<g id="node1" class="node">
<title>b0</title>
<ellipse fill="#ffcdd2" stroke="#b71c1c" cx="52.39" cy="-44" rx="40.74" ry="18"/>
<text text-anchor="middle" x="52.39" y="-41.5" font-family="Arial,Helvetica" font-size="10.00">TaxonName</text>
</g>
<!-- b1 -->
<g id="node2" class="node">
<title>b1</title>
<ellipse fill="#ffcdd2" stroke="#b71c1c" cx="291.28" cy="-90" rx="40.74" ry="18"/>
<text text-anchor="middle" x="291.28" y="-87.5" font-family="Arial,Helvetica" font-size="10.00">TaxonName</text>
</g>
<!-- b0&#45;&gt;b1 -->
<g id="edge1" class="edge">
<title>b0&#45;&gt;b1</title>
<path fill="none" stroke="#546e7a" d="M89.89,-51.09C132.14,-59.29 201.69,-72.8 246.73,-81.54"/>
<polygon fill="#546e7a" stroke="#546e7a" points="246.41,-83.98 253.75,-82.91 247.34,-79.17 246.41,-83.98"/>
<text text-anchor="middle" x="170.28" y="-75.8" font-family="Arial,Helvetica" font-size="9.00" fill="#37474f">basionym</text>
</g>
<!-- lit_b0_nameString_pb7hh -->
<g id="node3" class="node">
<title>lit_b0_nameString_pb7hh</title>
<path fill="#ffffff" stroke="#b0bec5" d="M320.28,-36C320.28,-36 262.28,-36 262.28,-36 256.28,-36 250.28,-30 250.28,-24 250.28,-24 250.28,-12 250.28,-12 250.28,-6 256.28,0 262.28,0 262.28,0 320.28,0 320.28,0 326.28,0 332.28,-6 332.28,-12 332.28,-12 332.28,-24 332.28,-24 332.28,-30 326.28,-36 320.28,-36"/>
<text text-anchor="start" x="258.28" y="-15.5" font-family="Arial,Helvetica" font-size="10.00">Panthera uncia</text>
</g>
<!-- b0&#45;&gt;lit_b0_nameString_pb7hh -->
<g id="edge2" class="edge">
<title>b0&#45;&gt;lit_b0_nameString_pb7hh</title>
<path fill="none" stroke="#546e7a" d="M87.16,-34.53C101.43,-30.92 118.3,-27.16 133.78,-25 170.19,-19.93 211.78,-18.26 242.93,-17.82"/>
<polygon fill="#546e7a" stroke="#546e7a" points="243.24,-20.26 250.21,-17.73 243.18,-15.36 243.24,-20.26"/>
<text text-anchor="middle" x="170.28" y="-27.8" font-family="Arial,Helvetica" font-size="9.00" fill="#37474f">nameString</text>
</g>
<!-- lit_b1_namePublishedInYear_msqa6 -->
<g id="node4" class="node">
<title>lit_b1_namePublishedInYear_msqa6</title>
<path fill="#ffffff" stroke="#b0bec5" d="M556.78,-180C556.78,-180 526.78,-180 526.78,-180 520.78,-180 514.78,-174 514.78,-168 514.78,-168 514.78,-156 514.78,-156 514.78,-150 520.78,-144 526.78,-144 526.78,-144 556.78,-144 556.78,-144 562.78,-144 568.78,-150 568.78,-156 568.78,-156 568.78,-168 568.78,-168 568.78,-174 562.78,-180 556.78,-180"/>
<text text-anchor="start" x="522.78" y="-159.5" font-family="Arial,Helvetica" font-size="10.00">1775</text>
</g>
<!-- b1&#45;&gt;lit_b1_namePublishedInYear_msqa6 -->
<g id="edge3" class="edge">
<title>b1&#45;&gt;lit_b1_namePublishedInYear_msqa6</title>
<path fill="none" stroke="#546e7a" d="M325.8,-99.71C373.43,-113.51 460.18,-138.65 507.62,-152.39"/>
<polygon fill="#546e7a" stroke="#546e7a" points="507.2,-154.82 514.6,-154.41 508.56,-150.11 507.2,-154.82"/>
<text text-anchor="middle" x="428.28" y="-147.8" font-family="Arial,Helvetica" font-size="9.00" fill="#37474f">namePublishedInYear</text>
</g>
<!-- lit_b1_scientificNameAuthorship_cwolc -->
<g id="node5" class="node">
<title>lit_b1_scientificNameAuthorship_cwolc</title>
<path fill="#ffffff" stroke="#b0bec5" d="M557.78,-108C557.78,-108 525.78,-108 525.78,-108 519.78,-108 513.78,-102 513.78,-96 513.78,-96 513.78,-84 513.78,-84 513.78,-78 519.78,-72 525.78,-72 525.78,-72 557.78,-72 557.78,-72 563.78,-72 569.78,-78 569.78,-84 569.78,-84 569.78,-96 569.78,-96 569.78,-102 563.78,-108 557.78,-108"/>
<text text-anchor="start" x="521.78" y="-87.5" font-family="Arial,Helvetica" font-size="10.00">Schreber</text>
</g>
<!-- b1&#45;&gt;lit_b1_scientificNameAuthorship_cwolc -->
<g id="edge4" class="edge">
<title>b1&#45;&gt;lit_b1_scientificNameAuthorship_cwolc</title>
<path fill="none" stroke="#546e7a" d="M331.93,-90C380.19,-90 460.87,-90 506.54,-90"/>
<polygon fill="#546e7a" stroke="#546e7a" points="506.55,-92.45 513.55,-90 506.55,-87.55 506.55,-92.45"/>
<text text-anchor="middle" x="428.28" y="-92.8" font-family="Arial,Helvetica" font-size="9.00" fill="#37474f">scientificNameAuthorship</text>
</g>
<!-- lit_b1_nameString_q1ka2 -->
<g id="node6" class="node">
<title>lit_b1_nameString_q1ka2</title>
<path fill="#ffffff" stroke="#b0bec5" d="M561.78,-36C561.78,-36 521.78,-36 521.78,-36 515.78,-36 509.78,-30 509.78,-24 509.78,-24 509.78,-12 509.78,-12 509.78,-6 515.78,0 521.78,0 521.78,0 561.78,0 561.78,0 567.78,0 573.78,-6 573.78,-12 573.78,-12 573.78,-24 573.78,-24 573.78,-30 567.78,-36 561.78,-36"/>
<text text-anchor="start" x="517.78" y="-15.5" font-family="Arial,Helvetica" font-size="10.00">Felis uncia</text>
</g>
<!-- b1&#45;&gt;lit_b1_nameString_q1ka2 -->
<g id="edge5" class="edge">
<title>b1&#45;&gt;lit_b1_nameString_q1ka2</title>
<path fill="none" stroke="#546e7a" d="M325.8,-80.29C371.88,-66.94 454.6,-42.97 502.88,-28.98"/>
<polygon fill="#546e7a" stroke="#546e7a" points="503.71,-31.29 509.75,-26.99 502.35,-26.59 503.71,-31.29"/>
<text text-anchor="middle" x="428.28" y="-67.8" font-family="Arial,Helvetica" font-size="9.00" fill="#37474f">nameString</text>
</g>
<!-- b2 -->
<g id="node7" class="node">
<title>b2</title>
<ellipse fill="#ffcdd2" stroke="#b71c1c" cx="52.39" cy="-198" rx="52.28" ry="18"/>
<text text-anchor="middle" x="52.39" y="-195.5" font-family="Arial,Helvetica" font-size="10.00">VernacularName</text>
</g>
<!-- lit_b2_language_4fhx3 -->
<g id="node8" class="node">
<title>lit_b2_language_4fhx3</title>
<path fill="#ffffff" stroke="#b0bec5" d="M306.28,-252C306.28,-252 276.28,-252 276.28,-252 270.28,-252 264.28,-246 264.28,-240 264.28,-240 264.28,-228 264.28,-228 264.28,-222 270.28,-216 276.28,-216 276.28,-216 306.28,-216 306.28,-216 312.28,-216 318.28,-222 318.28,-228 318.28,-228 318.28,-240 318.28,-240 318.28,-246 312.28,-252 306.28,-252"/>
<text text-anchor="start" x="272.28" y="-231.5" font-family="Arial,Helvetica" font-size="10.00">en</text>
</g>
<!-- b2&#45;&gt;lit_b2_language_4fhx3 -->
<g id="edge6" class="edge">
<title>b2&#45;&gt;lit_b2_language_4fhx3</title>
<path fill="none" stroke="#546e7a" d="M100.48,-205.16C146.81,-212.2 216.37,-222.77 257.16,-228.97"/>
<polygon fill="#546e7a" stroke="#546e7a" points="256.89,-231.4 264.18,-230.03 257.63,-226.56 256.89,-231.4"/>
<text text-anchor="middle" x="170.28" y="-222.8" font-family="Arial,Helvetica" font-size="9.00" fill="#37474f">language</text>
</g>
<!-- lit_b2_vernacularName_7cjno -->
<g id="node9" class="node">
<title>lit_b2_vernacularName_7cjno</title>
<path fill="#ffffff" stroke="#b0bec5" d="M318.78,-180C318.78,-180 263.78,-180 263.78,-180 257.78,-180 251.78,-174 251.78,-168 251.78,-168 251.78,-156 251.78,-156 251.78,-150 257.78,-144 263.78,-144 263.78,-144 318.78,-144 318.78,-144 324.78,-144 330.78,-150 330.78,-156 330.78,-156 330.78,-168 330.78,-168 330.78,-174 324.78,-180 318.78,-180"/>
<text text-anchor="start" x="259.78" y="-159.5" font-family="Arial,Helvetica" font-size="10.00">Snow Leopard</text>
</g>
<!-- b2&#45;&gt;lit_b2_vernacularName_7cjno -->
<g id="edge7" class="edge">
<title>b2&#45;&gt;lit_b2_vernacularName_7cjno</title>
<path fill="none" stroke="#000000" stroke-width="1.8" d="M100.48,-190.84C142.31,-184.49 203.09,-175.25 244.52,-168.95"/>
<polygon fill="#000000" stroke="#000000" stroke-width="1.8" points="244.96,-171.37 251.51,-167.89 244.22,-166.52 244.96,-171.37"/>
<text text-anchor="middle" x="170.28" y="-188.8" font-family="Arial" font-weight="bold" font-size="9.00" fill="#37474f">vernacularName</text>
</g>
<!-- b3 -->
<g id="node10" class="node">
<title>b3</title>
<ellipse fill="#ffcdd2" stroke="#b71c1c" cx="52.39" cy="-342" rx="52.28" ry="18"/>
<text text-anchor="middle" x="52.39" y="-339.5" font-family="Arial,Helvetica" font-size="10.00">VernacularName</text>
</g>
<!-- lit_b3_language_rcojq -->
<g id="node11" class="node">
<title>lit_b3_language_rcojq</title>
<path fill="#ffffff" stroke="#b0bec5" d="M306.28,-396C306.28,-396 276.28,-396 276.28,-396 270.28,-396 264.28,-390 264.28,-384 264.28,-384 264.28,-372 264.28,-372 264.28,-366 270.28,-360 276.28,-360 276.28,-360 306.28,-360 306.28,-360 312.28,-360 318.28,-366 318.28,-372 318.28,-372 318.28,-384 318.28,-384 318.28,-390 312.28,-396 306.28,-396"/>
<text text-anchor="start" x="272.28" y="-375.5" font-family="Arial,Helvetica" font-size="10.00">fr</text>
</g>
<!-- b3&#45;&gt;lit_b3_language_rcojq -->
<g id="edge8" class="edge">
<title>b3&#45;&gt;lit_b3_language_rcojq</title>
<path fill="none" stroke="#546e7a" d="M100.48,-349.16C146.81,-356.2 216.37,-366.77 257.16,-372.97"/>
<polygon fill="#546e7a" stroke="#546e7a" points="256.89,-375.4 264.18,-374.03 257.63,-370.56 256.89,-375.4"/>
<text text-anchor="middle" x="170.28" y="-366.8" font-family="Arial,Helvetica" font-size="9.00" fill="#37474f">language</text>
</g>
<!-- lit_b3_vernacularName_7cel2 -->
<g id="node12" class="node">
<title>lit_b3_vernacularName_7cel2</title>
<path fill="#ffffff" stroke="#b0bec5" d="M326.78,-324C326.78,-324 255.78,-324 255.78,-324 249.78,-324 243.78,-318 243.78,-312 243.78,-312 243.78,-300 243.78,-300 243.78,-294 249.78,-288 255.78,-288 255.78,-288 326.78,-288 326.78,-288 332.78,-288 338.78,-294 338.78,-300 338.78,-300 338.78,-312 338.78,-312 338.78,-318 332.78,-324 326.78,-324"/>
<text text-anchor="start" x="251.78" y="-303.5" font-family="Arial,Helvetica" font-size="10.00">Panthère de neige</text>
</g>
<!-- b3&#45;&gt;lit_b3_vernacularName_7cel2 -->
<g id="edge9" class="edge">
<title>b3&#45;&gt;lit_b3_vernacularName_7cel2</title>
<path fill="none" stroke="#000000" stroke-width="1.8" d="M100.48,-334.84C139.76,-328.87 195.75,-320.37 236.73,-314.14"/>
<polygon fill="#000000" stroke="#000000" stroke-width="1.8" points="237.14,-316.55 243.69,-313.08 236.4,-311.71 237.14,-316.55"/>
<text text-anchor="middle" x="170.28" y="-331.8" font-family="Arial" font-weight="bold" font-size="9.00" fill="#37474f">vernacularName</text>
</g>
<!-- b4 -->
<g id="node13" class="node">
<title>b4</title>
<ellipse fill="#ffcdd2" stroke="#b71c1c" cx="52.39" cy="-513" rx="52.28" ry="18"/>
<text text-anchor="middle" x="52.39" y="-510.5" font-family="Arial,Helvetica" font-size="10.00">VernacularName</text>
</g>
<!-- lit_b4_language_tsvrx -->
<g id="node14" class="node">
<title>lit_b4_language_tsvrx</title>
<path fill="#ffffff" stroke="#b0bec5" d="M306.28,-540C306.28,-540 276.28,-540 276.28,-540 270.28,-540 264.28,-534 264.28,-528 264.28,-528 264.28,-516 264.28,-516 264.28,-510 270.28,-504 276.28,-504 276.28,-504 306.28,-504 306.28,-504 312.28,-504 318.28,-510 318.28,-516 318.28,-516 318.28,-528 318.28,-528 318.28,-534 312.28,-540 306.28,-540"/>
<text text-anchor="start" x="272.28" y="-519.5" font-family="Arial,Helvetica" font-size="10.00">fr</text>
</g>
<!-- b4&#45;&gt;lit_b4_language_tsvrx -->
<g id="edge10" class="edge">
<title>b4&#45;&gt;lit_b4_language_tsvrx</title>
<path fill="none" stroke="#546e7a" d="M104.5,-514.94C150.73,-516.7 217.44,-519.23 257.07,-520.74"/>
<polygon fill="#546e7a" stroke="#546e7a" points="257.06,-523.19 264.15,-521.01 257.25,-518.29 257.06,-523.19"/>
<text text-anchor="middle" x="170.28" y="-520.8" font-family="Arial,Helvetica" font-size="9.00" fill="#37474f">language</text>
</g>
<!-- lit_b4_vernacularName_i8gs7 -->
<g id="node15" class="node">
<title>lit_b4_vernacularName_i8gs7</title>
<path fill="#ffffff" stroke="#b0bec5" d="M306.28,-468C306.28,-468 276.28,-468 276.28,-468 270.28,-468 264.28,-462 264.28,-456 264.28,-456 264.28,-444 264.28,-444 264.28,-438 270.28,-432 276.28,-432 276.28,-432 306.28,-432 306.28,-432 312.28,-432 318.28,-438 318.28,-444 318.28,-444 318.28,-456 318.28,-456 318.28,-462 312.28,-468 306.28,-468"/>
<text text-anchor="start" x="272.28" y="-447.5" font-family="Arial,Helvetica" font-size="10.00">Once</text>
</g>
<!-- b4&#45;&gt;lit_b4_vernacularName_i8gs7 -->
<g id="edge11" class="edge">
<title>b4&#45;&gt;lit_b4_vernacularName_i8gs7</title>
<path fill="none" stroke="#000000" stroke-width="1.8" d="M94.38,-502.1C140.55,-489.82 214.66,-470.11 257.26,-458.78"/>
<polygon fill="#000000" stroke="#000000" stroke-width="1.8" points="257.94,-461.14 264.08,-456.97 256.68,-456.4 257.94,-461.14"/>
<text text-anchor="middle" x="170.28" y="-492.8" font-family="Arial" font-weight="bold" font-size="9.00" fill="#37474f">vernacularName</text>
</g>
<!-- b5 -->
<g id="node16" class="node">
<title>b5</title>
<ellipse fill="#ffcdd2" stroke="#b71c1c" cx="52.39" cy="-621" rx="52.28" ry="18"/>
<text text-anchor="middle" x="52.39" y="-618.5" font-family="Arial,Helvetica" font-size="10.00">VernacularName</text>
</g>
<!-- lit_b5_language_zbxok -->
<g id="node17" class="node">
<title>lit_b5_language_zbxok</title>
<path fill="#ffffff" stroke="#b0bec5" d="M306.28,-693C306.28,-693 276.28,-693 276.28,-693 270.28,-693 264.28,-687 264.28,-681 264.28,-681 264.28,-669 264.28,-669 264.28,-663 270.28,-657 276.28,-657 276.28,-657 306.28,-657 306.28,-657 312.28,-657 318.28,-663 318.28,-669 318.28,-669 318.28,-681 318.28,-681 318.28,-687 312.28,-693 306.28,-693"/>
<text text-anchor="start" x="272.28" y="-672.5" font-family="Arial,Helvetica" font-size="10.00">es</text>
</g>
<!-- b5&#45;&gt;lit_b5_language_zbxok -->
<g id="edge12" class="edge">
<title>b5&#45;&gt;lit_b5_language_zbxok</title>
<path fill="none" stroke="#546e7a" d="M96.57,-630.84C142.86,-641.4 215.36,-657.92 257.3,-667.48"/>
<polygon fill="#546e7a" stroke="#546e7a" points="256.89,-669.9 264.26,-669.07 257.98,-665.12 256.89,-669.9"/>
<text text-anchor="middle" x="170.28" y="-656.8" font-family="Arial,Helvetica" font-size="9.00" fill="#37474f">language</text>
</g>
<!-- lit_b5_vernacularName_nlphf -->
<g id="node18" class="node">
<title>lit_b5_vernacularName_nlphf</title>
<path fill="#ffffff" stroke="#b0bec5" d="M334.78,-621C334.78,-621 247.78,-621 247.78,-621 241.78,-621 235.78,-615 235.78,-609 235.78,-609 235.78,-597 235.78,-597 235.78,-591 241.78,-585 247.78,-585 247.78,-585 334.78,-585 334.78,-585 340.78,-585 346.78,-591 346.78,-597 346.78,-597 346.78,-609 346.78,-609 346.78,-615 340.78,-621 334.78,-621"/>
<text text-anchor="start" x="243.78" y="-600.5" font-family="Arial,Helvetica" font-size="10.00">Pantera de las nieves</text>
</g>
<!-- b5&#45;&gt;lit_b5_vernacularName_nlphf -->
<g id="edge13" class="edge">
<title>b5&#45;&gt;lit_b5_vernacularName_nlphf</title>
<path fill="none" stroke="#000000" stroke-width="1.8" d="M103.63,-617.18C140.07,-614.41 189.57,-610.65 228.44,-607.7"/>
<polygon fill="#000000" stroke="#000000" stroke-width="1.8" points="228.78,-610.13 235.57,-607.16 228.41,-605.24 228.78,-610.13"/>
<text text-anchor="middle" x="170.28" y="-616.8" font-family="Arial" font-weight="bold" font-size="9.00" fill="#37474f">vernacularName</text>
</g>
</g>
</svg>
