<?xml version="1.0" encoding="UTF-8" standalone="no"?>
<!DOCTYPE svg PUBLIC "-//W3C//DTD SVG 1.1//EN"
 "http://www.w3.org/Graphics/SVG/1.1/DTD/svg11.dtd">
<!-- Generated by graphviz version 2.43.0 (0)
 -->
<!-- Title: Taxonomic_Data_Graph Pages: 1 -->
<svg width="100%" height="100%"
 viewBox="0.00 0.00 906.99 628.00" xmlns="http://www.w3.org/2000/svg" xmlns:xlink="http://www.w3.org/1999/xlink">
<g id="graph0" class="graph" transform="scale(1 1) rotate(0) translate(4 624)">
<title>Taxonomic_Data_Graph</title>
<polygon fill="white" stroke="transparent" points="-4,4 -4,-624 902.99,-624 902.99,4 -4,4"/>
<!-- b0 -->
<g id="node1" class="node">
<title>b0</title>
<ellipse fill="#bbdefb" stroke="#0d47a1" cx="445.49" cy="-594" rx="27" ry="18"/>
<text text-anchor="middle" x="445.49" y="-591.5" font-family="Arial,Helvetica" font-size="10.00">Book</text>
</g>
<!-- lit_b0_bibliographicCitation_0 -->
<g id="node2" class="node">
<title>lit_b0_bibliographicCitation_0</title>
<path fill="#ffffff" stroke="#b0bec5" d="M886.99,-620C886.99,-620 684.99,-620 684.99,-620 678.99,-620 672.99,-614 672.99,-608 672.99,-608 672.99,-580 672.99,-580 672.99,-574 678.99,-568 684.99,-568 684.99,-568 886.99,-568 886.99,-568 892.99,-568 898.99,-574 898.99,-580 898.99,-580 898.99,-608 898.99,-608 898.99,-614 892.99,-620 886.99,-620"/>
<text text-anchor="start" x="680.99" y="-608" font-family="Arial,Helvetica" font-size="10.00">Wilson, E.H. &amp; Rehder, A. (1921). A monograph</text>
<text text-anchor="start" x="680.99" y="-597" font-family="Arial,Helvetica" font-size="10.00">of the azaleas. Publication of the Arnold</text>
<text text-anchor="start" x="680.99" y="-586" font-family="Arial,Helvetica" font-size="10.00">Arboretum No. 9 Harvard University, Cambridge</text>
<text text-anchor="start" x="680.99" y="-575" font-family="Arial,Helvetica" font-size="10.00">MA.</text>
</g>
<!-- b0&#45;&gt;lit_b0_bibliographicCitation_0 -->
<g id="edge1" class="edge">
<title>b0&#45;&gt;lit_b0_bibliographicCitation_0</title>
<path fill="none" stroke="#546e7a" d="M472.77,-594C513.92,-594 596.07,-594 665.77,-594"/>
<polygon fill="#546e7a" stroke="#546e7a" points="665.91,-596.45 672.91,-594 665.91,-591.55 665.91,-596.45"/>
<text text-anchor="middle" x="601.49" y="-596.8" font-family="Arial,Helvetica" font-size="9.00" fill="#37474f">bibliographicCitation</text>
</g>
<!-- https://ipni.org/n/50985479&#45;1 -->
<g id="node3" class="node">
<title>https://ipni.org/n/50985479&#45;1</title>
<ellipse fill="#ffcdd2" stroke="#b71c1c" cx="98.99" cy="-306" rx="98.99" ry="21.43"/>
<text text-anchor="middle" x="98.99" y="-309" font-family="Arial,Helvetica" font-size="10.00">TaxonName</text>
<text text-anchor="middle" x="98.99" y="-298" font-family="Arial,Helvetica" font-size="10.00">https://ipni.org/n/50985479&#45;1</text>
</g>
<!-- https://ipni.org/n/50985479&#45;1&#45;&gt;b0 -->
<g id="edge8" class="edge">
<title>https://ipni.org/n/50985479&#45;1&#45;&gt;b0</title>
<path fill="none" stroke="#546e7a" d="M108.61,-327.38C125.61,-367.1 167.09,-452.83 226.99,-503 283.14,-550.03 367.05,-575.77 412.49,-587.01"/>
<polygon fill="#546e7a" stroke="#546e7a" points="412.06,-589.43 419.44,-588.69 413.21,-584.66 412.06,-589.43"/>
<text text-anchor="middle" x="279.49" y="-562.8" font-family="Arial,Helvetica" font-size="9.00" fill="#37474f">namePublishedIn</text>
</g>
<!-- lit_httpsipniorgn509854791_genericName_1 -->
<g id="node4" class="node">
<title>lit_httpsipniorgn509854791_genericName_1</title>
<path fill="#ffffff" stroke="#b0bec5" d="M473.49,-540C473.49,-540 417.49,-540 417.49,-540 411.49,-540 405.49,-534 405.49,-528 405.49,-528 405.49,-516 405.49,-516 405.49,-510 411.49,-504 417.49,-504 417.49,-504 473.49,-504 473.49,-504 479.49,-504 485.49,-510 485.49,-516 485.49,-516 485.49,-528 485.49,-528 485.49,-534 479.49,-540 473.49,-540"/>
<text text-anchor="start" x="413.49" y="-519.5" font-family="Arial,Helvetica" font-size="10.00">Rhododendron</text>
</g>
<!-- https://ipni.org/n/50985479&#45;1&#45;&gt;lit_httpsipniorgn509854791_genericName_1 -->
<g id="edge2" class="edge">
<title>https://ipni.org/n/50985479&#45;1&#45;&gt;lit_httpsipniorgn509854791_genericName_1</title>
<path fill="none" stroke="#546e7a" d="M116.94,-327.08C139.61,-354.16 182.17,-401.19 226.99,-431 281.45,-467.22 352.67,-493.68 398.5,-508.45"/>
<polygon fill="#546e7a" stroke="#546e7a" points="397.94,-510.84 405.36,-510.63 399.43,-506.17 397.94,-510.84"/>
<text text-anchor="middle" x="279.49" y="-486.8" font-family="Arial,Helvetica" font-size="9.00" fill="#37474f">genericName</text>
</g>
<!-- lit_httpsipniorgn509854791_infragenericName_2 -->
<g id="node5" class="node">
<title>lit_httpsipniorgn509854791_infragenericName_2</title>
<path fill="#ffffff" stroke="#b0bec5" d="M472.49,-468C472.49,-468 418.49,-468 418.49,-468 412.49,-468 406.49,-462 406.49,-456 406.49,-456 406.49,-444 406.49,-444 406.49,-438 412.49,-432 418.49,-432 418.49,-432 472.49,-432 472.49,-432 478.49,-432 484.49,-438 484.49,-444 484.49,-444 484.49,-456 484.49,-456 484.49,-462 478.49,-468 472.49,-468"/>
<text text-anchor="start" x="414.49" y="-447.5" font-family="Arial,Helvetica" font-size="10.00">Sciadorhodion</text>
</g>
<!-- https://ipni.org/n/50985479&#45;1&#45;&gt;lit_httpsipniorgn509854791_infragenericName_2 -->
<g id="edge3" class="edge">
<title>https://ipni.org/n/50985479&#45;1&#45;&gt;lit_httpsipniorgn509854791_infragenericName_2</title>
<path fill="none" stroke="#546e7a" d="M134.95,-325.8C160.12,-339.64 195.11,-358.08 226.99,-372 285.26,-397.45 354.77,-421.29 399.25,-435.76"/>
<polygon fill="#546e7a" stroke="#546e7a" points="398.75,-438.17 406.16,-438 400.26,-433.51 398.75,-438.17"/>
<text text-anchor="middle" x="279.49" y="-414.8" font-family="Arial,Helvetica" font-size="9.00" fill="#37474f">infragenericName</text>
</g>
<!-- lit_httpsipniorgn509854791_namePublishedIn_3 -->
<g id="node6" class="node">
<title>lit_httpsipniorgn509854791_namePublishedIn_3</title>
<path fill="#ffffff" stroke="#b0bec5" d="M499.99,-396C499.99,-396 390.99,-396 390.99,-396 384.99,-396 378.99,-390 378.99,-384 378.99,-384 378.99,-372 378.99,-372 378.99,-366 384.99,-360 390.99,-360 390.99,-360 499.99,-360 499.99,-360 505.99,-360 511.99,-366 511.99,-372 511.99,-372 511.99,-384 511.99,-384 511.99,-390 505.99,-396 499.99,-396"/>
<text text-anchor="start" x="386.99" y="-375.5" font-family="Arial,Helvetica" font-size="10.00">Monogr. Azaleas 79 (1921)</text>
</g>
<!-- https://ipni.org/n/50985479&#45;1&#45;&gt;lit_httpsipniorgn509854791_namePublishedIn_3 -->
<g id="edge4" class="edge">
<title>https://ipni.org/n/50985479&#45;1&#45;&gt;lit_httpsipniorgn509854791_namePublishedIn_3</title>
<path fill="none" stroke="#546e7a" d="M170.54,-320.74C229.18,-333 312.32,-350.38 371.6,-362.77"/>
<polygon fill="#546e7a" stroke="#546e7a" points="371.35,-365.22 378.71,-364.25 372.36,-360.42 371.35,-365.22"/>
<text text-anchor="middle" x="279.49" y="-355.8" font-family="Arial,Helvetica" font-size="9.00" fill="#37474f">namePublishedIn</text>
</g>
<!-- lit_httpsipniorgn509854791_namePublishedInYear_4 -->
<g id="node7" class="node">
<title>lit_httpsipniorgn509854791_namePublishedInYear_4</title>
<path fill="#ffffff" stroke="#b0bec5" d="M460.49,-324C460.49,-324 430.49,-324 430.49,-324 424.49,-324 418.49,-318 418.49,-312 418.49,-312 418.49,-300 418.49,-300 418.49,-294 424.49,-288 430.49,-288 430.49,-288 460.49,-288 460.49,-288 466.49,-288 472.49,-294 472.49,-300 472.49,-300 472.49,-312 472.49,-312 472.49,-318 466.49,-324 460.49,-324"/>
<text text-anchor="start" x="426.49" y="-303.5" font-family="Arial,Helvetica" font-size="10.00">1921</text>
</g>
<!-- https://ipni.org/n/50985479&#45;1&#45;&gt;lit_httpsipniorgn509854791_namePublishedInYear_4 -->
<g id="edge5" class="edge">
<title>https://ipni.org/n/50985479&#45;1&#45;&gt;lit_httpsipniorgn509854791_namePublishedInYear_4</title>
<path fill="none" stroke="#546e7a" d="M198.25,-306C269.76,-306 362.26,-306 411.01,-306"/>
<polygon fill="#546e7a" stroke="#546e7a" points="411.17,-308.45 418.17,-306 411.17,-303.55 411.17,-308.45"/>
<text text-anchor="middle" x="279.49" y="-308.8" font-family="Arial,Helvetica" font-size="9.00" fill="#37474f">namePublishedInYear</text>
</g>
<!-- lit_httpsipniorgn509854791_scientificNameAuthorship_5 -->
<g id="node8" class="node">
<title>lit_httpsipniorgn509854791_scientificNameAuthorship_5</title>
<path fill="#ffffff" stroke="#b0bec5" d="M478.99,-252C478.99,-252 411.99,-252 411.99,-252 405.99,-252 399.99,-246 399.99,-240 399.99,-240 399.99,-228 399.99,-228 399.99,-222 405.99,-216 411.99,-216 411.99,-216 478.99,-216 478.99,-216 484.99,-216 490.99,-222 490.99,-228 490.99,-228 490.99,-240 490.99,-240 490.99,-246 484.99,-252 478.99,-252"/>
<text text-anchor="start" x="407.99" y="-231.5" font-family="Arial,Helvetica" font-size="10.00">Rehder &amp; Wilson</text>
</g>
<!-- https://ipni.org/n/50985479&#45;1&#45;&gt;lit_httpsipniorgn509854791_scientificNameAuthorship_5 -->
<g id="edge6" class="edge">
<title>https://ipni.org/n/50985479&#45;1&#45;&gt;lit_httpsipniorgn509854791_scientificNameAuthorship_5</title>
<path fill="none" stroke="#546e7a" d="M170.54,-291.26C236.56,-277.46 333.63,-257.17 392.74,-244.81"/>
<polygon fill="#546e7a" stroke="#546e7a" points="393.41,-247.18 399.76,-243.35 392.41,-242.38 393.41,-247.18"/>
<text text-anchor="middle" x="279.49" y="-281.8" font-family="Arial,Helvetica" font-size="9.00" fill="#37474f">scientificNameAuthorship</text>
</g>
<!-- lit_httpsipniorgn509854791_microReference_6 -->
<g id="node9" class="node">
<title>lit_httpsipniorgn509854791_microReference_6</title>
<path fill="#ffffff" stroke="#b0bec5" d="M460.49,-180C460.49,-180 430.49,-180 430.49,-180 424.49,-180 418.49,-174 418.49,-168 418.49,-168 418.49,-156 418.49,-156 418.49,-150 424.49,-144 430.49,-144 430.49,-144 460.49,-144 460.49,-144 466.49,-144 472.49,-150 472.49,-156 472.49,-156 472.49,-168 472.49,-168 472.49,-174 466.49,-180 460.49,-180"/>
<text text-anchor="start" x="426.49" y="-159.5" font-family="Arial,Helvetica" font-size="10.00">79</text>
</g>
<!-- https://ipni.org/n/50985479&#45;1&#45;&gt;lit_httpsipniorgn509854791_microReference_6 -->
<g id="edge7" class="edge">
<title>https://ipni.org/n/50985479&#45;1&#45;&gt;lit_httpsipniorgn509854791_microReference_6</title>
<path fill="none" stroke="#546e7a" d="M135.82,-286.15C160.95,-272.6 195.54,-254.7 226.99,-241 291.01,-213.12 368.37,-186.68 411.43,-172.58"/>
<polygon fill="#546e7a" stroke="#546e7a" points="412.4,-174.84 418.3,-170.34 410.89,-170.18 412.4,-174.84"/>
<text text-anchor="middle" x="279.49" y="-243.8" font-family="Arial,Helvetica" font-size="9.00" fill="#37474f">microReference</text>
</g>
<!-- lit_httpsipniorgn509854791_nameString_7 -->
<g id="node10" class="node">
<title>lit_httpsipniorgn509854791_nameString_7</title>
<path fill="#ffffff" stroke="#b0bec5" d="M517.99,-108C517.99,-108 372.99,-108 372.99,-108 366.99,-108 360.99,-102 360.99,-96 360.99,-96 360.99,-84 360.99,-84 360.99,-78 366.99,-72 372.99,-72 372.99,-72 517.99,-72 517.99,-72 523.99,-72 529.99,-78 529.99,-84 529.99,-84 529.99,-96 529.99,-96 529.99,-102 523.99,-108 517.99,-108"/>
<text text-anchor="start" x="368.99" y="-87.5" font-family="Arial,Helvetica" font-size="10.00">Rhododendron sect. Sciadorhodion</text>
</g>
<!-- https://ipni.org/n/50985479&#45;1&#45;&gt;lit_httpsipniorgn509854791_nameString_7 -->
<g id="edge9" class="edge">
<title>https://ipni.org/n/50985479&#45;1&#45;&gt;lit_httpsipniorgn509854791_nameString_7</title>
<path fill="none" stroke="#546e7a" d="M117.44,-284.87C140.32,-258.23 182.77,-212.4 226.99,-183 274.81,-151.21 335.27,-126.4 380.31,-110.43"/>
<polygon fill="#546e7a" stroke="#546e7a" points="381.32,-112.67 387.12,-108.04 379.7,-108.05 381.32,-112.67"/>
<text text-anchor="middle" x="279.49" y="-185.8" font-family="Arial,Helvetica" font-size="9.00" fill="#37474f">nameString</text>
</g>
<!-- lit_httpsipniorgn509854791_nomenclaturalCode_8 -->
<g id="node11" class="node">
<title>lit_httpsipniorgn509854791_nomenclaturalCode_8</title>
<path fill="#ffffff" stroke="#b0bec5" d="M460.49,-36C460.49,-36 430.49,-36 430.49,-36 424.49,-36 418.49,-30 418.49,-24 418.49,-24 418.49,-12 418.49,-12 418.49,-6 424.49,0 430.49,0 430.49,0 460.49,0 460.49,0 466.49,0 472.49,-6 472.49,-12 472.49,-12 472.49,-24 472.49,-24 472.49,-30 466.49,-36 460.49,-36"/>
<text text-anchor="start" x="426.49" y="-15.5" font-family="Arial,Helvetica" font-size="10.00">ICN</text>
</g>
<!-- https://ipni.org/n/50985479&#45;1&#45;&gt;lit_httpsipniorgn509854791_nomenclaturalCode_8 -->
<g id="edge10" class="edge">
<title>https://ipni.org/n/50985479&#45;1&#45;&gt;lit_httpsipniorgn509854791_nomenclaturalCode_8</title>
<path fill="none" stroke="#546e7a" d="M108.7,-284.89C125.86,-245.64 167.6,-160.9 226.99,-111 282.8,-64.11 365.78,-37.53 411.42,-25.64"/>
<polygon fill="#546e7a" stroke="#546e7a" points="412.24,-27.96 418.42,-23.86 411.03,-23.21 412.24,-27.96"/>
<text text-anchor="middle" x="279.49" y="-113.8" font-family="Arial,Helvetica" font-size="9.00" fill="#37474f">nomenclaturalCode</text>
</g>
</g>
</svg>
